<svg width="122" height="67" viewBox="0 0 122 67" fill="none" xmlns="http://www.w3.org/2000/svg">
<rect width="122" height="67" fill="#0E0923"/>
<path d="M23.7134 11.5003C23.7134 15.5518 20.4437 18.8569 16.3567 18.8569C12.3052 18.8569 9 15.5518 9 11.5003C9 8.79926 10.4571 6.4181 12.625 5.13868C13.7267 4.49897 15.0062 4.14355 16.3567 4.14355C20.4437 4.14355 23.7134 7.44876 23.7134 11.5003Z" fill="url(#paint0_linear_95_23884)"/>
<path d="M22.3983 11.5002C22.3983 14.8054 19.6972 17.5064 16.3565 17.5064C13.0514 17.5064 10.3503 14.8054 10.3503 11.5002C10.3503 8.1595 13.0514 5.4585 16.3565 5.4585C19.6972 5.4585 22.3983 8.1595 22.3983 11.5002Z" fill="#EAD0A5"/>
<path d="M22.3983 11.5002C22.3983 14.8054 19.6972 17.5064 16.3565 17.5064C13.0514 17.5064 10.3503 14.8054 10.3503 11.5002C10.3503 8.1595 13.0514 5.4585 16.3565 5.4585C19.6972 5.4585 22.3983 8.1595 22.3983 11.5002Z" fill="#CEB183"/>
<path d="M11.1018 12.1308C11.1018 8.79012 13.6464 6.45567 16.9871 6.45567C18.6575 6.45567 20.5502 7.48422 21.6519 8.58595C20.6213 6.73789 18.6311 5.4585 16.3565 5.4585C13.0514 5.4585 10.3503 8.1595 10.3503 11.5002C10.3503 13.135 11.0256 14.6632 12.0918 15.7294C11.6298 14.8764 11.1018 13.1615 11.1018 12.1308Z" fill="#AE8C55"/>
<path fill-rule="evenodd" clip-rule="evenodd" d="M22.6114 11.358C22.6114 14.8053 19.7683 17.5774 16.2143 17.5774C12.6959 17.5774 9.85278 14.8053 9.85278 11.358C9.85278 7.91064 12.6959 5.10303 16.2143 5.10303C19.7683 5.10303 22.6114 7.91064 22.6114 11.358ZM22.3982 11.5001C22.3982 8.15943 19.6972 5.45842 16.3565 5.45842C13.0513 5.45842 10.3503 8.15943 10.3503 11.5001C10.3503 14.8053 13.0513 17.5063 16.3565 17.5063C19.6972 17.5063 22.3982 14.8053 22.3982 11.5001Z" fill="white"/>
<path d="M20.2304 12.9569C19.9816 13.2057 19.6617 13.3123 19.3063 13.3123H18.2757V14.343C18.2757 14.6984 18.1335 15.0182 17.8848 15.267C17.636 15.5513 17.3161 15.6579 16.9607 15.6579H16.2499C15.8945 15.6579 15.5747 15.5513 15.3259 15.267C15.0416 15.0182 14.935 14.6984 14.935 14.343V13.3123H13.9043C13.158 13.3123 12.5894 12.7436 12.5894 11.9973V11.2865C12.5894 10.9311 12.7315 10.6113 12.9803 10.3625C13.2291 10.1137 13.5489 9.97158 13.9043 9.97158H14.935V8.94092C14.935 8.62107 15.0416 8.26568 15.3259 8.0169C15.5747 7.76813 15.8945 7.62598 16.2499 7.62598H16.9607C17.6715 7.62598 18.2757 8.23013 18.2757 8.94092V9.97158H19.3063C19.6617 9.97158 19.9816 10.1137 20.2304 10.3625C20.4791 10.6113 20.6213 10.9311 20.6213 11.2865V11.9973C20.6213 12.3527 20.4791 12.7081 20.2304 12.9569Z" fill="#AE8C55"/>
<path d="M17.1385 10.6474V8.94144C17.1385 8.58605 16.8186 8.30176 16.4632 8.30176H15.7524C15.397 8.30176 15.1127 8.58605 15.1127 8.94144V10.6474H13.4068C13.0514 10.6474 12.7671 10.9316 12.7671 11.287V11.9978C12.7671 12.3532 13.0514 12.6731 13.4068 12.6731H15.1127V14.3435C15.1127 14.6989 15.397 15.0187 15.7524 15.0187H16.4632C16.8186 15.0187 17.1385 14.6989 17.1385 14.3435V12.6731H18.8088C19.1642 12.6731 19.4841 12.3532 19.4841 11.9978V11.287C19.4841 10.9316 19.1642 10.6474 18.8088 10.6474H17.1385Z" fill="#EAD0A5"/>
<g style="mix-blend-mode:screen" opacity="0.5">
<path d="M13.2647 12.4954V11.7846C13.2647 11.4292 13.5489 11.1093 13.9043 11.1093H15.2193C15.4326 11.1093 15.5747 10.9672 15.5747 10.754V9.43901C15.5747 9.08361 15.8946 8.76375 16.25 8.76375H16.9608C17.0082 8.78744 17.0555 8.79928 17.1029 8.79928C17.0318 8.51496 16.7831 8.30176 16.4632 8.30176H15.7524C15.397 8.30176 15.1127 8.58605 15.1127 8.94144V10.6474H13.4068C13.0514 10.6474 12.7671 10.9316 12.7671 11.287V11.9978C12.7671 12.3177 12.9803 12.5665 13.2647 12.6376C13.2647 12.5902 13.2647 12.5428 13.2647 12.4954Z" fill="white"/>
</g>
<path d="M29.2603 15.5V9.64257H29.1716L27.4031 10.8889V9.69676L29.2603 8.39127H30.5264V15.5H29.2603ZM34.1797 15.6773C33.6148 15.6773 33.1304 15.5263 32.7265 15.2241C32.3258 14.922 32.0171 14.4917 31.8003 13.9334C31.5835 13.3751 31.4752 12.7133 31.4752 11.9481V11.9382C31.4752 11.173 31.5835 10.5129 31.8003 9.95785C32.0171 9.39953 32.3258 8.9693 32.7265 8.66715C33.1304 8.365 33.6148 8.21392 34.1797 8.21392C34.7446 8.21392 35.229 8.365 35.633 8.66715C36.037 8.9693 36.3473 9.39953 36.5641 9.95785C36.7808 10.5129 36.8892 11.173 36.8892 11.9382V11.9481C36.8892 12.7133 36.7808 13.3751 36.5641 13.9334C36.3473 14.4917 36.037 14.922 35.633 15.2241C35.229 15.5263 34.7446 15.6773 34.1797 15.6773ZM34.1797 14.6477C34.4819 14.6477 34.7397 14.5394 34.9532 14.3226C35.1666 14.1058 35.3292 13.7971 35.4409 13.3964C35.5558 12.9925 35.6133 12.5097 35.6133 11.9481V11.9382C35.6133 11.3766 35.5558 10.8955 35.4409 10.4948C35.3292 10.0909 35.1666 9.78215 34.9532 9.56867C34.7397 9.35191 34.4819 9.24353 34.1797 9.24353C33.8776 9.24353 33.6198 9.35191 33.4063 9.56867C33.1961 9.78215 33.0335 10.0909 32.9186 10.4948C32.8069 10.8955 32.7511 11.3766 32.7511 11.9382V11.9481C32.7511 12.5097 32.8069 12.9925 32.9186 13.3964C33.0335 13.7971 33.1961 14.1058 33.4063 14.3226C33.6198 14.5394 33.8776 14.6477 34.1797 14.6477Z" fill="white"/>
<path d="M55.312 11.5003C55.312 15.5518 52.0423 18.8569 47.9553 18.8569C43.9038 18.8569 40.5986 15.5518 40.5986 11.5003C40.5986 8.79926 42.0557 6.4181 44.2236 5.13868C45.3254 4.49897 46.6048 4.14355 47.9553 4.14355C52.0423 4.14355 55.312 7.44876 55.312 11.5003Z" fill="url(#paint1_linear_95_23884)"/>
<path d="M53.9971 11.5002C53.9971 14.8054 51.2961 17.5064 47.9554 17.5064C44.6502 17.5064 41.9492 14.8054 41.9492 11.5002C41.9492 8.1595 44.6502 5.4585 47.9554 5.4585C51.2961 5.4585 53.9971 8.1595 53.9971 11.5002Z" fill="#FF008C"/>
<path d="M53.9971 11.5002C53.9971 14.8054 51.2961 17.5064 47.9554 17.5064C44.6502 17.5064 41.9492 14.8054 41.9492 11.5002C41.9492 8.1595 44.6502 5.4585 47.9554 5.4585C51.2961 5.4585 53.9971 8.1595 53.9971 11.5002Z" fill="#CEB183"/>
<path d="M42.4905 12.1308C42.4905 8.79012 45.0351 6.24548 48.3758 6.24548C50.0462 6.24548 52.1491 7.48422 53.2508 8.58595C52.2202 6.73789 50.2299 5.4585 47.9554 5.4585C44.6502 5.4585 41.9492 8.1595 41.9492 11.5002C41.9492 13.135 42.6245 14.6632 43.6907 15.7294C43.2287 14.8764 42.4905 13.1615 42.4905 12.1308Z" fill="#AE8C55"/>
<path fill-rule="evenodd" clip-rule="evenodd" d="M54.2103 11.358C54.2103 14.8053 51.3672 17.5774 47.8132 17.5774C44.2948 17.5774 41.4517 14.8053 41.4517 11.358C41.4517 7.91064 44.2948 5.10303 47.8132 5.10303C51.3672 5.10303 54.2103 7.91064 54.2103 11.358ZM53.9971 11.5001C53.9971 8.15943 51.2961 5.45842 47.9554 5.45842C44.6502 5.45842 41.9492 8.15943 41.9492 11.5001C41.9492 14.8053 44.6502 17.5063 47.9554 17.5063C51.2961 17.5063 53.9971 14.8053 53.9971 11.5001Z" fill="white"/>
<path d="M51.8292 12.9575C51.5805 13.2063 51.2606 13.3129 50.9052 13.3129H49.8746H46.5338H45.5032C44.7568 13.3129 44.1882 12.7442 44.1882 11.9979V11.2871C44.1882 10.9317 44.3304 10.6119 44.5792 10.3631C44.8279 10.1143 45.1478 9.97217 45.5032 9.97217H46.5338H49.8746H50.9052C51.2606 9.97217 51.5805 10.1143 51.8292 10.3631C52.078 10.6119 52.2202 10.9317 52.2202 11.2871V11.9979C52.2202 12.3533 52.078 12.7087 51.8292 12.9575Z" fill="#AE8C55"/>
<path d="M48.7373 10.6475C48.382 10.6475 46.7116 10.6475 46.7116 10.6475L45.0057 10.6475C44.6503 10.6475 44.366 10.9318 44.366 11.2872V11.998C44.366 12.3534 44.6503 12.6732 45.0057 12.6732H46.7116C46.9959 12.6731 47.529 12.6731 47.8844 12.6731C47.8844 12.6731 48.2398 12.6731 48.7373 12.6732H50.4077C50.7631 12.6732 51.0829 12.3534 51.0829 11.998V11.2872C51.0829 10.9318 50.7631 10.6475 50.4077 10.6475H48.7373Z" fill="#EAD0A5"/>
<g style="mix-blend-mode:screen" opacity="0.5">
<path d="M44.8635 12.495V11.7842C44.8635 11.4288 45.1478 11.109 45.5032 11.109H46.8182C47.0314 11.109 47.1736 10.9668 47.1736 10.7536C47.1736 10.7536 47.1736 10.8958 47.1736 10.647H46.7116H45.0057C44.6503 10.647 44.366 10.9313 44.366 11.2867V11.9974C44.366 12.3173 44.5792 12.5661 44.8635 12.6372C44.8635 12.5898 44.8635 12.5424 44.8635 12.495Z" fill="white"/>
</g>
<mask id="mask0_95_23884" style="mask-type:luminance" maskUnits="userSpaceOnUse" x="70" y="10" width="2" height="5">
<path d="M70.5663 11.557L71.1407 10.3335C70.789 11.1012 70.7773 12.0368 71.1993 12.9964L70.6249 14.2198C70.2029 13.2483 70.2146 12.3127 70.5663 11.557Z" fill="white"/>
</mask>
<g mask="url(#mask0_95_23884)">
<path d="M71.1993 12.9964L70.6249 14.2198C70.2029 13.2602 70.2146 12.3246 70.5663 11.557L71.1407 10.3335C70.789 11.0892 70.7773 12.0248 71.1993 12.9964Z" fill="#D8D145"/>
</g>
<mask id="mask1_95_23884" style="mask-type:luminance" maskUnits="userSpaceOnUse" x="70" y="12" width="10" height="6">
<path d="M79.5813 14.4478L79.0068 15.6712C78.5848 16.5708 77.6939 17.2186 76.4513 17.3985C74.1536 17.7344 71.5511 16.295 70.625 14.2079L71.1994 12.9844C72.1138 15.0835 74.728 16.5109 77.0257 16.175C78.2683 16.0071 79.1592 15.3474 79.5813 14.4478Z" fill="white"/>
</mask>
<g mask="url(#mask1_95_23884)">
<path d="M78.5263 15.6475C78.1043 15.9113 77.6002 16.1033 77.0258 16.1872C76.6038 16.2472 76.1583 16.2472 75.7246 16.1992L75.1501 17.4227C75.5839 17.4707 76.0176 17.4707 76.4514 17.4107C77.0375 17.3267 77.5416 17.1348 77.9519 16.8709C78.4208 16.5711 78.7842 16.1632 79.007 15.6834L79.5814 14.46C79.3586 14.9278 78.9952 15.3356 78.5263 15.6475Z" fill="#CD8D21"/>
<path d="M73.5674 15.4793C72.5241 14.9036 71.6566 14.0279 71.1994 12.9844L70.625 14.2079C71.0822 15.2394 71.9497 16.115 72.993 16.7028C73.6612 17.0746 74.4115 17.3265 75.15 17.4105L75.7244 16.187C74.9742 16.103 74.2356 15.8512 73.5674 15.4793Z" fill="#D4A21F"/>
</g>
<path d="M79.5225 11.7972C78.6081 9.69812 75.9939 8.27073 73.6962 8.60658C71.3985 8.94244 70.2731 10.8976 71.1992 12.9967C72.1136 15.0958 74.7278 16.5232 77.0255 16.1874C79.3232 15.8515 80.4368 13.8843 79.5225 11.7972ZM76.7207 15.5036C74.8333 15.7795 72.688 14.604 71.9378 12.8768C71.1875 11.1615 72.1136 9.55418 73.9893 9.2783C75.8766 9.00242 78.0219 10.1779 78.7722 11.9052C79.5342 13.6204 78.6081 15.2398 76.7207 15.5036Z" fill="#E1DB4A"/>
<path d="M73.6965 8.60645L73.9895 9.27816C72.1139 9.55404 71.1878 11.1614 71.938 12.8886L71.1995 12.9966C70.2851 10.8975 71.3988 8.93031 73.6965 8.60645Z" fill="white"/>
<path d="M73.9894 9.27842C75.8768 9.00254 78.022 10.178 78.7723 11.9053C79.5226 13.6206 78.6082 15.2399 76.7208 15.5158C74.8334 15.7916 72.6881 14.6161 71.9379 12.8889C71.1876 11.1616 72.1137 9.5543 73.9894 9.27842Z" fill="#E7C825"/>
<path d="M73.7899 9.5898C75.6773 9.31392 77.8226 10.4894 78.5729 12.2167C78.9363 13.0563 78.9128 13.872 78.5611 14.5197C79.0887 13.836 79.2059 12.8884 78.7722 11.9048C78.0219 10.1775 75.8766 9.00205 73.9892 9.27793C73.028 9.42187 72.3129 9.90167 71.9495 10.5854C72.348 10.0696 72.9811 9.69775 73.7899 9.5898Z" fill="#CD8D21"/>
<path fill-rule="evenodd" clip-rule="evenodd" d="M74.7465 10.4705C74.8077 10.4358 74.8759 10.4253 74.951 10.4389C75.0261 10.4525 75.0848 10.4976 75.1309 10.5518C75.1769 10.606 75.1978 10.6786 75.1864 10.7453C75.1751 10.812 75.1442 10.8636 75.083 10.8984L74.9227 10.9953L75.5496 11.7968C75.9567 11.7446 76.3751 11.8206 76.7425 12.0019C77.1098 12.1832 77.3939 12.464 77.5379 12.7881C77.6818 13.1122 77.6895 13.4574 77.5665 13.7904C77.4347 14.1103 77.1868 14.3976 76.8536 14.6007C76.5311 14.8057 76.138 14.9062 75.7637 14.8956C75.3895 14.8849 75.036 14.752 74.7551 14.5176C74.4742 14.2832 74.2873 13.9513 74.2279 13.5853C74.1577 13.2173 74.2346 12.8301 74.422 12.5089L73.7951 11.7074L73.6455 11.8063C73.5951 11.843 73.5269 11.8535 73.4518 11.8399C73.3874 11.8282 73.3161 11.7923 73.2719 11.727C73.2258 11.6728 73.205 11.6003 73.2163 11.5336C73.2276 11.4668 73.2604 11.404 73.3109 11.3674L74.7465 10.4705Z" fill="#ECB72B"/>
<path d="M69.4685 8.12273C69.5732 8.57261 69.9291 8.91539 70.3479 9.0225C70.4944 9.06535 70.4944 9.27958 70.3479 9.301C69.9082 9.40812 69.5732 9.77232 69.4685 10.2008C69.4266 10.3507 69.2173 10.3507 69.1963 10.2008C69.0916 9.75089 68.7357 9.40812 68.317 9.301C68.1704 9.25816 68.1704 9.04393 68.317 9.0225C68.7566 8.91539 69.0916 8.55119 69.1963 8.12273C69.2173 7.97276 69.4266 7.97276 69.4685 8.12273Z" fill="white"/>
<path d="M72.0438 5.55206C72.1066 5.80914 72.316 6.02337 72.5672 6.08764C72.651 6.10907 72.651 6.23761 72.5672 6.25903C72.316 6.3233 72.1066 6.53753 72.0438 6.79461C72.0228 6.8803 71.8972 6.8803 71.8763 6.79461C71.8135 6.53753 71.6041 6.3233 71.3529 6.25903C71.2691 6.23761 71.2691 6.10907 71.3529 6.08764C71.6041 6.02337 71.8135 5.80914 71.8763 5.55206C71.8972 5.46637 72.0228 5.46637 72.0438 5.55206Z" fill="white"/>
<path d="M89.5355 17V8.61837H89.4086L86.8779 10.4018V8.69591L89.5355 6.82784H91.3471V17H89.5355ZM96.9748 17.2538C96.1665 17.2538 95.4733 17.0376 94.8953 16.6052C94.3219 16.1729 93.8802 15.5572 93.57 14.7583C93.2598 13.9594 93.1048 13.0124 93.1048 11.9174V11.9033C93.1048 10.8084 93.2598 9.86375 93.57 9.06953C93.8802 8.2706 94.3219 7.65496 94.8953 7.22261C95.4733 6.79025 96.1665 6.57407 96.9748 6.57407C97.7831 6.57407 98.4763 6.79025 99.0544 7.22261C99.6324 7.65496 100.077 8.2706 100.387 9.06953C100.697 9.86375 100.852 10.8084 100.852 11.9033V11.9174C100.852 13.0124 100.697 13.9594 100.387 14.7583C100.077 15.5572 99.6324 16.1729 99.0544 16.6052C98.4763 17.0376 97.7831 17.2538 96.9748 17.2538ZM96.9748 15.7805C97.4072 15.7805 97.7761 15.6254 98.0816 15.3152C98.387 15.005 98.6197 14.5633 98.7794 13.9899C98.9439 13.4119 99.0262 12.7211 99.0262 11.9174V11.9033C99.0262 11.0997 98.9439 10.4112 98.7794 9.8379C98.6197 9.25986 98.387 8.8181 98.0816 8.51263C97.7761 8.20246 97.4072 8.04738 96.9748 8.04738C96.5425 8.04738 96.1736 8.20246 95.8681 8.51263C95.5673 8.8181 95.3347 9.25986 95.1702 9.8379C95.0104 10.4112 94.9305 11.0997 94.9305 11.9033V11.9174C94.9305 12.7211 95.0104 13.4119 95.1702 13.9899C95.3347 14.5633 95.5673 15.005 95.8681 15.3152C96.1736 15.6254 96.5425 15.7805 96.9748 15.7805ZM106.708 13.8913L106.637 11.5297H106.968L110.979 6.82784H113.059L109.083 11.4169L108.068 12.3122L106.708 13.8913ZM105.03 17V6.82784H106.849V17H105.03ZM111.149 17L107.814 12.2981L109.097 11.0856L113.369 17H111.149Z" fill="white"/>
<rect x="9.84082" y="45.9238" width="103.185" height="17.2357" fill="#1E2328" fill-opacity="0.95" stroke="black" stroke-opacity="0.6" stroke-width="1.68153"/>
<rect x="9.84082" y="45.9238" width="103.185" height="17.2357" stroke="url(#paint2_linear_95_23884)" stroke-width="0.840764"/>
<path d="M52.3431 56.5415H51.5518V52.7667H49.4242V56.5415H48.6298V52.0985H52.3431V56.5415ZM53.3638 57.6592V53.1762H54.1305V53.7027H54.1828C54.2444 53.5816 54.3245 53.4779 54.423 53.3917C54.5236 53.3055 54.6395 53.2388 54.7709 53.1916C54.9023 53.1444 55.047 53.1208 55.205 53.1208C55.4863 53.1208 55.7295 53.1916 55.9348 53.3332C56.1421 53.4748 56.3022 53.676 56.4151 53.9367C56.53 54.1953 56.5875 54.5022 56.5875 54.8573V54.8635C56.5875 55.2206 56.5311 55.5285 56.4182 55.7872C56.3053 56.0458 56.1452 56.2459 55.9378 56.3876C55.7326 56.5271 55.4883 56.5969 55.205 56.5969C55.0511 56.5969 54.9074 56.5733 54.774 56.5261C54.6406 56.4768 54.5236 56.4081 54.423 56.3198C54.3224 56.2316 54.2424 56.1269 54.1828 56.0058H54.1305V57.6592H53.3638ZM54.9649 55.9503C55.1394 55.9503 55.2892 55.9072 55.4144 55.821C55.5396 55.7328 55.6361 55.6075 55.7038 55.4454C55.7716 55.2812 55.8054 55.0872 55.8054 54.8635V54.8573C55.8054 54.6295 55.7716 54.4345 55.7038 54.2723C55.6361 54.1101 55.5396 53.986 55.4144 53.8997C55.2892 53.8115 55.1394 53.7674 54.9649 53.7674C54.7904 53.7674 54.6395 53.8115 54.5123 53.8997C54.3871 53.986 54.2896 54.1101 54.2198 54.2723C54.152 54.4345 54.1182 54.6284 54.1182 54.8542V54.8604C54.1182 55.0862 54.152 55.2812 54.2198 55.4454C54.2896 55.6075 54.3881 55.7328 54.5154 55.821C54.6426 55.9072 54.7925 55.9503 54.9649 55.9503ZM58.8121 56.6092C58.4775 56.6092 58.1891 56.5395 57.9469 56.3999C57.7047 56.2582 57.5179 56.0571 57.3866 55.7964C57.2572 55.5357 57.1926 55.2237 57.1926 54.8604V54.8542C57.1926 54.495 57.2583 54.1851 57.3896 53.9244C57.521 53.6616 57.7068 53.4605 57.9469 53.3209C58.1891 53.1813 58.4775 53.1115 58.8121 53.1115C59.1467 53.1115 59.4341 53.1813 59.6742 53.3209C59.9164 53.4605 60.1032 53.6606 60.2346 53.9213C60.366 54.182 60.4317 54.493 60.4317 54.8542V54.8604C60.4317 55.2237 60.366 55.5357 60.2346 55.7964C60.1053 56.0571 59.9195 56.2582 59.6773 56.3999C59.4372 56.5395 59.1488 56.6092 58.8121 56.6092ZM58.8121 55.9873C58.9887 55.9873 59.1385 55.9432 59.2617 55.8549C59.3869 55.7646 59.4823 55.6363 59.548 55.47C59.6137 55.3017 59.6465 55.0995 59.6465 54.8635V54.8573C59.6465 54.6192 59.6137 54.417 59.548 54.2507C59.4823 54.0824 59.3869 53.9541 59.2617 53.8659C59.1385 53.7756 58.9887 53.7304 58.8121 53.7304C58.6356 53.7304 58.4847 53.7756 58.3595 53.8659C58.2343 53.9541 58.1389 54.0824 58.0732 54.2507C58.0075 54.417 57.9746 54.6192 57.9746 54.8573V54.8635C57.9746 55.0995 58.0075 55.3017 58.0732 55.47C58.1389 55.6383 58.2333 55.7666 58.3564 55.8549C58.4816 55.9432 58.6335 55.9873 58.8121 55.9873ZM61.4709 57.419H60.7689V55.9411H61.0337C61.1568 55.8693 61.2482 55.742 61.3077 55.5593C61.3672 55.3746 61.4042 55.1693 61.4185 54.9435L61.5355 53.1762H64.0665V55.9411H64.5837V57.419H63.8848V56.5415H61.4709V57.419ZM63.2998 55.9411V53.7766H62.1914L62.1021 54.9835C62.0898 55.1683 62.0631 55.3397 62.022 55.4977C61.981 55.6537 61.9245 55.7841 61.8527 55.8888V55.9411H63.2998ZM66.094 56.5969C65.8826 56.5969 65.6927 56.5559 65.5244 56.4738C65.3581 56.3917 65.2268 56.2757 65.1303 56.1258C65.0359 55.9739 64.9887 55.7954 64.9887 55.5901V55.5839C64.9887 55.3848 65.0379 55.2134 65.1365 55.0698C65.235 54.924 65.3797 54.8101 65.5706 54.728C65.7615 54.6459 65.9934 54.5976 66.2664 54.5833L67.5103 54.5063V55.0113L66.3742 55.0852C66.1587 55.0975 65.9996 55.1426 65.897 55.2206C65.7943 55.2986 65.743 55.4074 65.743 55.547V55.5532C65.743 55.6968 65.7974 55.8087 65.9062 55.8888C66.017 55.9688 66.1576 56.0088 66.328 56.0088C66.482 56.0088 66.6195 55.9781 66.7406 55.9165C66.8617 55.8549 66.9572 55.7718 67.0269 55.6671C67.0967 55.5603 67.1316 55.4403 67.1316 55.3068V54.2415C67.1316 54.0732 67.0783 53.9449 66.9715 53.8566C66.8648 53.7663 66.7067 53.7212 66.4974 53.7212C66.3229 53.7212 66.1802 53.752 66.0694 53.8135C65.9585 53.8731 65.8836 53.9582 65.8446 54.0691L65.8415 54.0814H65.118L65.1211 54.0537C65.1457 53.8649 65.2196 53.6996 65.3427 53.558C65.4659 53.4163 65.6291 53.3065 65.8323 53.2285C66.0355 53.1505 66.2695 53.1115 66.5343 53.1115C66.8258 53.1115 67.0721 53.1567 67.2733 53.247C67.4744 53.3353 67.6273 53.4646 67.732 53.635C67.8367 53.8033 67.8891 54.0055 67.8891 54.2415V56.5415H67.1316V56.0797H67.0793C67.0177 56.1864 66.9377 56.2788 66.8391 56.3568C66.7427 56.4348 66.6318 56.4943 66.5066 56.5353C66.3814 56.5764 66.2439 56.5969 66.094 56.5969ZM71.3761 53.1762V53.7704H70.3384V56.5415H69.5718V53.7704H68.5372V53.1762H71.3761ZM72.0366 56.5415V53.1762H72.8032V54.1922H73.4652C73.8593 54.1922 74.1723 54.299 74.4043 54.5125C74.6383 54.7239 74.7553 55.0082 74.7553 55.3653V55.3715C74.7553 55.7287 74.6383 56.0129 74.4043 56.2244C74.1723 56.4358 73.8593 56.5415 73.4652 56.5415H72.0366ZM73.3667 54.7834H72.8032V55.9503H73.3667C73.5555 55.9503 73.7054 55.897 73.8162 55.7902C73.927 55.6814 73.9825 55.5408 73.9825 55.3684V55.3623C73.9825 55.1878 73.927 55.0482 73.8162 54.9435C73.7054 54.8368 73.5555 54.7834 73.3667 54.7834Z" fill="#EBD09B"/>
<rect x="9.87915" y="23.8408" width="103.185" height="17.2357" fill="#EBD09B" stroke="black" stroke-opacity="0.6" stroke-width="1.68153"/>
<rect x="9.87915" y="23.8408" width="103.185" height="17.2357" stroke="url(#paint3_linear_95_23884)" stroke-width="0.840764"/>
<path d="M51.8447 34.4585H51.0503V30.0155H51.8447V31.9307H52.0017L53.649 30.0155H54.5573L52.6114 32.2416V32.1L54.702 34.4585H53.7229L52.0048 32.5434H51.8447V34.4585ZM55.4117 35.6408C55.3645 35.6408 55.3153 35.6398 55.2639 35.6377C55.2147 35.6357 55.1664 35.6326 55.1192 35.6285V35.0404C55.15 35.0445 55.1859 35.0466 55.227 35.0466C55.2681 35.0486 55.3081 35.0497 55.3471 35.0497C55.5051 35.0497 55.6314 35.0148 55.7258 34.945C55.8223 34.8772 55.891 34.7674 55.9321 34.6155L55.9721 34.4616L54.7682 31.0932H55.6057L56.4925 34.0736L56.2831 33.7226H56.5479L56.3447 34.0736L57.2314 31.0932H58.0381L56.8311 34.5324C56.7347 34.8116 56.6238 35.0322 56.4986 35.1944C56.3734 35.3565 56.2225 35.4715 56.046 35.5392C55.8715 35.607 55.6601 35.6408 55.4117 35.6408ZM58.6863 34.4585V31.0932H61.6082V34.4585H60.8416V31.6874H59.4529V34.4585H58.6863ZM62.5397 34.4585V31.0932H63.2971V33.347H63.6943L63.1709 33.6426L64.7781 31.0932H65.5324V34.4585H64.7781V32.1924H64.3809L64.8982 31.8937L63.2971 34.4585H62.5397ZM69.0318 31.0932V31.6874H67.9941V34.4585H67.2275V31.6874H66.1929V31.0932H69.0318ZM69.6923 34.4585V31.0932H70.4589V32.1092H71.1209C71.515 32.1092 71.828 32.216 72.06 32.4295C72.294 32.6409 72.411 32.9252 72.411 33.2823V33.2885C72.411 33.6456 72.294 33.9299 72.06 34.1414C71.828 34.3528 71.515 34.4585 71.1209 34.4585H69.6923ZM71.0224 32.7004H70.4589V33.8673H71.0224C71.2112 33.8673 71.3611 33.814 71.4719 33.7072C71.5827 33.5984 71.6382 33.4578 71.6382 33.2854V33.2793C71.6382 33.1048 71.5827 32.9652 71.4719 32.8605C71.3611 32.7538 71.2112 32.7004 71.0224 32.7004Z" fill="#0E0923"/>
<g clip-path="url(#clip0_95_23884)">
<path d="M98.1985 40.023L94.1772 32.5344C93.989 32.1839 93.9477 31.773 94.0624 31.3921C94.1772 31.0112 94.4386 30.6915 94.789 30.5032C95.1395 30.315 95.5504 30.2738 95.9314 30.3885C96.3123 30.5033 96.632 30.7646 96.8202 31.1151L100.605 38.1632M100.605 38.1632L99.1857 35.5202C98.9975 35.1697 98.9562 34.7588 99.0709 34.3779C99.1857 33.997 99.4471 33.6772 99.7976 33.489C100.148 33.3008 100.559 33.2595 100.94 33.3743C101.321 33.489 101.641 33.7504 101.829 34.1009L103.011 36.3034M103.011 36.3034C102.823 35.9529 102.072 34.2205 102.187 33.8396C102.302 33.4587 102.563 33.139 102.914 32.9508C103.264 32.7625 103.675 32.7213 104.056 32.836C104.437 32.9508 104.757 33.2121 104.945 33.5626L105.654 34.8841" fill="white"/>
<path d="M105.418 34.4436C105.23 34.0931 105.188 33.6822 105.303 33.3013C105.418 32.9203 105.679 32.6006 106.03 32.4124C106.38 32.2242 106.791 32.1829 107.172 32.2977C107.553 32.4124 107.873 32.6738 108.061 33.0243L110.19 36.9888C110.943 38.3908 111.108 40.0344 110.649 41.558C110.19 43.0817 109.144 44.3606 107.742 45.1135L105.98 46.0597L106.164 45.9612C105.288 46.4315 104.31 46.677 103.316 46.6757C102.322 46.6743 101.345 46.4262 100.471 45.9537L100.156 45.7821C99.6547 45.508 97.7864 44.344 94.5511 42.2902C94.2213 42.0809 93.9861 41.7511 93.8957 41.3711C93.8052 40.9911 93.8666 40.5907 94.0667 40.2553C94.2802 39.8981 94.6067 39.6224 94.9945 39.4717C95.3823 39.3211 95.8093 39.304 96.2079 39.4233L98.1985 40.0229M90.8245 32.6321L89.4704 32.2242L90.8245 32.6321ZM91.8358 36.6292L90.9548 37.1023L91.8358 36.6292ZM98.7536 28.3742L99.1615 27.0201L98.7536 28.3742ZM101.054 30.5442L101.935 30.0711L101.054 30.5442Z" fill="white"/>
<path d="M97.3994 27.9665L98.6883 26.1393" stroke="white" stroke-linecap="round" stroke-linejoin="round"/>
<path d="M91.7055 32.1593L89.4704 32.2245" stroke="white" stroke-linecap="round" stroke-linejoin="round"/>
<path d="M101.054 30.5441L98.8188 30.6093" stroke="white" stroke-linecap="round" stroke-linejoin="round"/>
<path d="M93.1248 34.8022L91.3953 36.866" stroke="white" stroke-linecap="round" stroke-linejoin="round"/>
</g>
<defs>
<linearGradient id="paint0_linear_95_23884" x1="9.01386" y1="18.8509" x2="9.01386" y2="4.13858" gradientUnits="userSpaceOnUse">
<stop stop-color="#8D744B"/>
<stop offset="0.424" stop-color="#D4B787"/>
<stop offset="1" stop-color="#FFEFD5"/>
</linearGradient>
<linearGradient id="paint1_linear_95_23884" x1="40.6125" y1="18.8509" x2="40.6125" y2="4.13858" gradientUnits="userSpaceOnUse">
<stop stop-color="#957B52"/>
<stop offset="0.424" stop-color="#E7D7BD"/>
<stop offset="1" stop-color="#FDEDD1"/>
</linearGradient>
<linearGradient id="paint2_linear_95_23884" x1="61.4332" y1="45.9238" x2="61.4332" y2="63.1595" gradientUnits="userSpaceOnUse">
<stop stop-color="#EBD09B"/>
<stop offset="1" stop-color="#776547"/>
</linearGradient>
<linearGradient id="paint3_linear_95_23884" x1="61.4715" y1="23.8408" x2="61.4715" y2="41.0765" gradientUnits="userSpaceOnUse">
<stop stop-color="#EBD09B"/>
<stop offset="1" stop-color="#776547"/>
</linearGradient>
<clipPath id="clip0_95_23884">
<rect width="24" height="24" fill="white" transform="translate(85 32.3545) rotate(-28.2354)"/>
</clipPath>
</defs>
</svg>
