<svg width="64" height="53" viewBox="0 0 64 53" fill="none" xmlns="http://www.w3.org/2000/svg">
<g clip-path="url(#clip0_95_23924)">
<rect x="8.5" y="3" width="47" height="46.1449" rx="3.4058" fill="#2B174B"/>
<path d="M31.9433 23.7752C32.9151 23.7752 33.7029 22.9874 33.7029 22.0155C33.7029 21.0437 32.9151 20.2559 31.9433 20.2559C30.9714 20.2559 30.1836 21.0437 30.1836 22.0155C30.1836 22.9874 30.9714 23.7752 31.9433 23.7752Z" stroke="#EBD09B" stroke-width="1.02174"/>
<path d="M31.9432 20.2559C36.3424 20.2559 35.9905 30.8139 29.3037 30.8139" stroke="#EBD09B" stroke-width="2.04348" stroke-linecap="round"/>
<path d="M32.2176 23.7753C27.8184 23.7753 28.1703 13.2173 34.8571 13.2173" stroke="#EBD09B" stroke-width="2.04348" stroke-linecap="round"/>
<path d="M30.1833 22.2901C30.1833 17.8909 40.7414 18.2429 40.7414 24.9296" stroke="#EBD09B" stroke-width="2.04348" stroke-linecap="round"/>
<path d="M33.7028 22.0155C33.7028 26.4147 23.1448 26.0627 23.1448 19.376" stroke="#EBD09B" stroke-width="2.04348" stroke-linecap="round"/>
<path d="M19.1307 41.8089C18.6717 41.8089 18.2781 41.7069 17.95 41.5029C17.6218 41.2967 17.369 41.0051 17.1917 40.6282C17.0165 40.2512 16.9289 39.8078 16.9289 39.2978V39.2911C16.9289 38.7767 17.0176 38.3321 17.195 37.9574C17.3746 37.5827 17.6285 37.2933 17.9566 37.0893C18.287 36.8853 18.6784 36.7833 19.1307 36.7833C19.5853 36.7833 19.9766 36.8853 20.3048 37.0893C20.6352 37.2933 20.889 37.5838 21.0664 37.9607C21.2438 38.3355 21.3325 38.7789 21.3325 39.2911V39.2978C21.3325 39.8078 21.2438 40.2512 21.0664 40.6282C20.8913 41.0029 20.6385 41.2934 20.3081 41.4996C19.9799 41.7058 19.5875 41.8089 19.1307 41.8089ZM19.1307 41.2568C19.4589 41.2568 19.7416 41.1758 19.9788 41.014C20.2161 40.8521 20.399 40.6248 20.5276 40.3322C20.6562 40.0372 20.7205 39.6925 20.7205 39.2978V39.2911C20.7205 38.892 20.6562 38.5461 20.5276 38.2534C20.399 37.9607 20.2161 37.7346 19.9788 37.5749C19.7416 37.4153 19.4589 37.3354 19.1307 37.3354C18.8048 37.3354 18.5232 37.4153 18.2859 37.5749C18.0487 37.7346 17.8646 37.9607 17.7338 38.2534C17.6052 38.5461 17.5409 38.892 17.5409 39.2911V39.2978C17.5409 39.6925 17.6041 40.0372 17.7305 40.3322C17.8569 40.6248 18.0387 40.8521 18.2759 41.014C18.5132 41.1758 18.7981 41.2568 19.1307 41.2568ZM25.0261 41.6958H24.4473V40.2024H24.3941C24.2988 40.2712 24.1802 40.3244 24.0382 40.3621C23.8986 40.3998 23.7323 40.4186 23.5394 40.4186C23.107 40.4186 22.7799 40.3 22.5582 40.0627C22.3365 39.8255 22.2256 39.5162 22.2256 39.1348V38.1104H22.8043V39.1348C22.8043 39.3698 22.8653 39.5572 22.9872 39.6969C23.1114 39.8366 23.2954 39.9064 23.5394 39.9064C23.6901 39.9064 23.8243 39.8942 23.9418 39.8698C24.0593 39.8455 24.1602 39.8122 24.2445 39.7701C24.3309 39.7279 24.3986 39.6792 24.4473 39.6237V38.1104H25.0261V41.6958ZM26.0954 41.6958V38.1104H26.6741V40.7845H26.9801L26.5877 40.9973L28.5001 38.1104H29.0788V41.6958H28.5001V39.0217H28.1941L28.5866 38.8089L26.6741 41.6958H26.0954ZM31.6216 41.759C31.2868 41.759 30.9963 41.6825 30.7502 41.5295C30.5041 41.3765 30.3134 41.1603 30.1781 40.8809C30.0429 40.6016 29.9752 40.2723 29.9752 39.8931V39.8865C29.9752 39.514 30.0418 39.1902 30.1748 38.9153C30.3101 38.6403 30.5007 38.4275 30.7469 38.2767C30.993 38.1237 31.2835 38.0472 31.6183 38.0472C31.9087 38.0472 32.1593 38.0982 32.3699 38.2002C32.5806 38.3022 32.7491 38.4397 32.8755 38.6126C33.0019 38.7834 33.0828 38.9752 33.1183 39.188L33.1216 39.208H32.5462L32.5429 39.198C32.4985 39.0206 32.3977 38.8698 32.2402 38.7457C32.0828 38.6215 31.8755 38.5594 31.6183 38.5594C31.4032 38.5594 31.2169 38.6137 31.0595 38.7224C30.9021 38.831 30.7801 38.9851 30.6937 39.1847C30.6094 39.382 30.5673 39.616 30.5673 39.8865V39.8931C30.5673 40.1681 30.6105 40.4075 30.697 40.6115C30.7835 40.8133 30.9054 40.9696 31.0628 41.0805C31.2203 41.1914 31.4054 41.2468 31.6183 41.2468C31.86 41.2468 32.0573 41.1947 32.2103 41.0905C32.3633 40.9863 32.4731 40.8344 32.5396 40.6348L32.5462 40.6149L33.1183 40.6115L33.1116 40.6481C33.0629 40.8632 32.9764 41.055 32.8522 41.2235C32.728 41.3898 32.564 41.5206 32.36 41.616C32.156 41.7113 31.9099 41.759 31.6216 41.759ZM36.3928 38.1104V38.5893H35.232V41.6958H34.6533V38.5893H33.4925V38.1104H36.3928ZM37.1595 41.6958V38.1104H37.7382V40.7845H38.0442L37.6517 40.9973L39.5642 38.1104H40.1429V41.6958H39.5642V39.0217H39.2582L39.6506 38.8089L37.7382 41.6958H37.1595ZM43.8132 38.1104V38.5893H42.6524V41.6958H42.0737V38.5893H40.9129V38.1104H43.8132ZM44.5799 41.6958V38.1104H45.1586V39.2612H45.8604C46.2706 39.2612 46.5976 39.3709 46.8415 39.5905C47.0854 39.81 47.2074 40.1049 47.2074 40.4752V40.4818C47.2074 40.8521 47.0854 41.147 46.8415 41.3665C46.5976 41.586 46.2706 41.6958 45.8604 41.6958H44.5799ZM45.8604 39.7401H45.1586V41.2169H45.8604C46.0976 41.2169 46.285 41.1503 46.4225 41.0173C46.5599 40.882 46.6287 40.7036 46.6287 40.4818V40.4752C46.6287 40.2512 46.5588 40.0727 46.4191 39.9397C46.2817 39.8066 46.0954 39.7401 45.8604 39.7401Z" fill="#EBD09B"/>
<g clip-path="url(#clip1_95_23924)">
<path d="M44.7032 31.3535L42.2687 23.2096C42.1548 22.8285 42.1969 22.4177 42.3859 22.0676C42.5748 21.7175 42.8951 21.4568 43.2763 21.3428C43.6574 21.2289 44.0682 21.2711 44.4183 21.46C44.7684 21.649 45.0291 21.9692 45.143 22.3504L47.4343 30.0153M47.4343 30.0153L46.5751 27.1409C46.4611 26.7598 46.5033 26.349 46.6922 25.9989C46.8812 25.6488 47.2015 25.3881 47.5826 25.2742C47.9638 25.1602 48.3746 25.2024 48.7247 25.3913C49.0748 25.5803 49.3355 25.9006 49.4494 26.2817L50.1654 28.677M50.1654 28.677C50.0515 28.2958 49.664 26.4479 49.853 26.0978C50.0419 25.7477 50.3622 25.487 50.7434 25.3731C51.1245 25.2591 51.5353 25.3013 51.8854 25.4902C52.2355 25.6792 52.4962 25.9994 52.6101 26.3806L53.0397 27.8178" fill="white"/>
<path d="M52.8966 27.3384C52.7826 26.9573 52.8248 26.5464 53.0137 26.1964C53.2027 25.8463 53.523 25.5856 53.9041 25.4716C54.2853 25.3577 54.6961 25.3998 55.0462 25.5888C55.3963 25.7778 55.657 26.098 55.7709 26.4792L57.0597 30.7907C57.5155 32.3153 57.3469 33.9586 56.5911 35.3589C55.8353 36.7593 54.5542 37.802 53.0295 38.2578L51.1133 38.8306L51.3126 38.771C50.3606 39.0558 49.3528 39.0996 48.3797 38.8987C47.4066 38.6977 46.4986 38.2582 45.7373 37.6196L45.4636 37.3883C45.0275 37.019 43.4312 35.5034 40.6747 32.8414C40.3936 32.57 40.2295 32.1998 40.2173 31.8093C40.2051 31.4188 40.3456 31.039 40.6091 30.7506C40.89 30.4437 41.2652 30.2392 41.6754 30.1695C42.0856 30.0998 42.5073 30.1689 42.8738 30.3658L44.7032 31.3532M38.9648 22.6314L37.7203 21.9597L38.9648 22.6314ZM39.1524 26.7502L38.1942 27.0366L39.1524 26.7502ZM47.5878 20.0537L48.2595 18.8092L47.5878 20.0537ZM49.4051 22.6416L50.3632 22.3552L49.4051 22.6416Z" fill="white"/>
<path d="M46.3433 19.3819L47.9731 17.851" stroke="white" stroke-linecap="round" stroke-linejoin="round"/>
<path d="M39.9229 22.3453L37.7203 21.96" stroke="white" stroke-linecap="round" stroke-linejoin="round"/>
<path d="M49.4051 22.6417L47.2024 22.2564" stroke="white" stroke-linecap="round" stroke-linejoin="round"/>
<path d="M40.7822 25.2192L38.6734 26.8934" stroke="white" stroke-linecap="round" stroke-linejoin="round"/>
</g>
</g>
<defs>
<clipPath id="clip0_95_23924">
<rect width="63" height="53" fill="white" transform="translate(0.5)"/>
</clipPath>
<clipPath id="clip1_95_23924">
<rect width="24" height="24" fill="white" transform="translate(33.3152 21.189) rotate(-16.643)"/>
</clipPath>
</defs>
</svg>
