<svg width="11" height="13" viewBox="0 0 11 13" fill="none" xmlns="http://www.w3.org/2000/svg">
<path d="M10.3959 9.99433C10.2806 9.99793 10.1687 9.94977 10.0849 9.86041C10.001 9.77104 9.95204 9.64779 9.9487 9.51773L9.76853 2.37351L1.72072 11.9808C1.64142 12.0754 1.53204 12.1307 1.41663 12.1344C1.30122 12.1381 1.18924 12.0899 1.10532 12.0004C1.0214 11.911 0.972412 11.7876 0.969138 11.6575C0.965865 11.5273 1.00857 11.401 1.08786 11.3063L9.13568 1.69908L2.80169 1.90113C2.68889 1.90025 2.58081 1.85002 2.5002 1.76103C2.41959 1.67203 2.37275 1.55122 2.36955 1.42405C2.36635 1.29687 2.40704 1.17326 2.48305 1.07926C2.55906 0.985257 2.66445 0.9282 2.77702 0.920109L10.1618 0.683863C10.2771 0.680255 10.389 0.728422 10.4728 0.817785C10.5567 0.907148 10.6057 1.0304 10.609 1.16046L10.8185 9.4899C10.8217 9.61997 10.779 9.74616 10.6997 9.84074C10.6205 9.93531 10.5112 9.99056 10.3959 9.99433Z" fill="white"/>
</svg>
