<svg width="35" height="36" viewBox="0 0 35 36" fill="none" xmlns="http://www.w3.org/2000/svg">
<path d="M35 18.0001C35 27.6377 27.2222 35.5 17.4999 35.5C7.86227 35.5 0 27.6377 0 18.0001C0 11.5749 3.46614 5.91067 8.62314 2.86719C11.2439 1.34545 14.2874 0.5 17.4999 0.5C27.2222 0.5 35 8.36238 35 18.0001Z" fill="url(#paint0_linear_0_2393)"/>
<path d="M31.8719 18.0001C31.8719 25.8625 25.4468 32.2875 17.5 32.2875C9.63766 32.2875 3.21252 25.8625 3.21252 18.0001C3.21252 10.0533 9.63766 3.62817 17.5 3.62817C25.4468 3.62817 31.8719 10.0533 31.8719 18.0001Z" fill="#FF008C"/>
<path d="M31.8719 18.0001C31.8719 25.8625 25.4468 32.2875 17.5 32.2875C9.63766 32.2875 3.21252 25.8625 3.21252 18.0001C3.21252 10.0533 9.63766 3.62817 17.5 3.62817C25.4468 3.62817 31.8719 10.0533 31.8719 18.0001Z" fill="#CEB183"/>
<path d="M4.50003 19.5002C4.50003 11.5534 10.5532 5.50024 18.5 5.50024C22.4735 5.50024 27.4758 8.44695 30.0966 11.0677C27.6449 6.67159 22.9106 3.62817 17.5 3.62817C9.63766 3.62817 3.21252 10.0533 3.21252 18.0001C3.21252 21.889 4.81882 25.5242 7.35505 28.0604C6.25602 26.0315 4.50003 21.9519 4.50003 19.5002Z" fill="#AE8C55"/>
<path fill-rule="evenodd" clip-rule="evenodd" d="M32.3792 17.6619C32.3792 25.8624 25.6159 32.4566 17.1618 32.4566C8.79225 32.4566 2.02905 25.8624 2.02905 17.6619C2.02905 9.46143 8.79225 2.78271 17.1618 2.78271C25.6159 2.78271 32.3792 9.46143 32.3792 17.6619ZM31.872 18.0001C31.872 10.0532 25.4469 3.62813 17.5 3.62813C9.63768 3.62813 3.21254 10.0532 3.21254 18.0001C3.21254 25.8624 9.63768 32.2874 17.5 32.2874C25.4469 32.2874 31.872 25.8624 31.872 18.0001Z" fill="white"/>
<path fill-rule="evenodd" clip-rule="evenodd" d="M14.7196 18.6387L13.0649 17.8671L10.8429 16.831C9.23386 16.0807 8.57966 14.2831 9.32996 12.674L10.0445 11.1416C10.4018 10.3754 11.0298 9.82877 11.8163 9.54253C12.6027 9.25628 13.4352 9.27137 14.2014 9.62866L16.4234 10.6648L23.6257 14.0233L25.8477 15.0594C26.6139 15.4167 27.1606 16.0447 27.4468 16.8312C27.47 16.8949 27.4912 16.9589 27.5104 17.0232C27.855 17.8054 27.7402 19.7562 27.4568 20.5348C27.1706 21.3213 26.5882 21.8727 25.822 22.23L23.6 23.2661L16.3977 26.6246L14.1757 27.6607C12.5666 28.411 10.7691 27.7567 10.0188 26.1477L9.30419 24.6153C8.94691 23.8491 8.93182 23.0166 9.21806 22.2301C9.5043 21.4437 10.051 20.8157 10.8172 20.4584L13.0392 19.4223L14.7196 18.6387Z" fill="#AE8C55"/>
<path fill-rule="evenodd" clip-rule="evenodd" d="M16.1158 12.3283L20.4832 14.3649L22.4736 15.293C23.7851 15.8524 25.3018 16.5751 25.5 17.0001L25.5527 17.1055C25.8468 17.6937 26 18.3424 26 19C26 20 24.8884 21.0238 24.1222 21.3811L20.521 23.0603L18.682 23.9176C17.9158 24.2749 16.7665 24.8108 16.1536 25.0969L12.4759 26.8118C11.7097 27.1691 10.7752 26.7654 10.4179 25.9992L9.7033 24.4668C9.34602 23.7006 9.67321 22.8018 10.4394 22.4445L14.1171 20.7295L18.4237 18.7214L16.6079 17.8744L16.6021 17.8717C15.8359 17.5144 14.6908 16.9805 14.0793 16.6956L10.4016 14.9807C9.63538 14.6234 9.34395 13.6479 9.70124 12.8817L10.4158 11.3493C10.7731 10.5831 11.6719 10.2561 12.4381 10.6133L16.1158 12.3283Z" fill="#EAD0A5"/>
<g style="mix-blend-mode:screen" opacity="0.5">
<path d="M12.1332 26.7287L11.373 25.2184C10.993 24.4632 11.255 23.4795 12.0101 23.0995L14.8043 21.6932C15.2574 21.4652 15.4074 21.0111 15.1794 20.558C15.1794 20.558 15.3315 20.8602 15.0654 20.3315L14.0837 20.8256L10.4589 22.6499C9.70378 23.0299 9.40363 23.9381 9.78369 24.6932L10.5438 26.2035C10.8859 26.8832 11.6051 27.1838 12.2852 27.0308C12.2345 26.9301 12.1838 26.8294 12.1332 26.7287Z" fill="white"/>
</g>
<g style="mix-blend-mode:screen" opacity="0.5">
<path d="M10.2209 14.5694L10.9355 13.037C11.2928 12.2708 12.2273 11.867 12.9935 12.2243L15.8285 13.5462C16.2882 13.7606 16.7376 13.5971 16.952 13.1373C16.952 13.1373 16.8089 13.444 17.0591 12.9075L16.063 12.443L12.3853 10.7281C11.6191 10.3708 10.7203 10.6979 10.363 11.4641L9.64844 12.9965C9.32689 13.6861 9.53651 14.4368 10.078 14.8759C10.1257 14.7737 10.1733 14.6715 10.2209 14.5694Z" fill="white"/>
</g>
<defs>
<linearGradient id="paint0_linear_0_2393" x1="0.0329715" y1="35.4856" x2="0.0329715" y2="0.488164" gradientUnits="userSpaceOnUse">
<stop stop-color="#957B52"/>
<stop offset="0.424" stop-color="#E7D7BD"/>
<stop offset="1" stop-color="#FDEDD1"/>
</linearGradient>
</defs>
</svg>
