<svg width="35" height="36" viewBox="0 0 35 36" fill="none" xmlns="http://www.w3.org/2000/svg">
<path d="M35 18.0001C35 27.6377 27.2222 35.5 17.4999 35.5C7.86227 35.5 0 27.6377 0 18.0001C0 11.5749 3.46614 5.91067 8.62314 2.86719C11.2439 1.34545 14.2874 0.5 17.4999 0.5C27.2222 0.5 35 8.36238 35 18.0001Z" fill="url(#paint0_linear_0_2435)"/>
<path d="M31.8719 18.0001C31.8719 25.8625 25.4468 32.2875 17.5 32.2875C9.63766 32.2875 3.21252 25.8625 3.21252 18.0001C3.21252 10.0533 9.63766 3.62817 17.5 3.62817C25.4468 3.62817 31.8719 10.0533 31.8719 18.0001Z" fill="#FF008C"/>
<path d="M31.8719 18.0001C31.8719 25.8625 25.4468 32.2875 17.5 32.2875C9.63766 32.2875 3.21252 25.8625 3.21252 18.0001C3.21252 10.0533 9.63766 3.62817 17.5 3.62817C25.4468 3.62817 31.8719 10.0533 31.8719 18.0001Z" fill="#B0D2A5"/>
<path d="M4.50003 19.5002C4.50003 11.5534 10.5532 5.50024 18.5 5.50024C22.4735 5.50024 27.4758 8.44695 30.0966 11.0677C27.6449 6.67159 22.9106 3.62817 17.5 3.62817C9.63766 3.62817 3.21252 10.0533 3.21252 18.0001C3.21252 21.889 4.81882 25.5242 7.35505 28.0604C6.25602 26.0315 4.50003 21.9519 4.50003 19.5002Z" fill="#61A54B"/>
<path fill-rule="evenodd" clip-rule="evenodd" d="M32.3792 17.6619C32.3792 25.8624 25.6159 32.4566 17.1618 32.4566C8.79225 32.4566 2.02905 25.8624 2.02905 17.6619C2.02905 9.46143 8.79225 2.78271 17.1618 2.78271C25.6159 2.78271 32.3792 9.46143 32.3792 17.6619ZM31.872 18.0001C31.872 10.0532 25.4469 3.62813 17.5 3.62813C9.63768 3.62813 3.21254 10.0532 3.21254 18.0001C3.21254 25.8624 9.63768 32.2874 17.5 32.2874C25.4469 32.2874 31.872 25.8624 31.872 18.0001Z" fill="white"/>
<path d="M13.5656 24.8676C13.2807 24.0807 13.3737 23.2841 13.7323 22.5185L14.7723 20.2983L18.1431 13.1017L19.1831 10.8815C19.9361 9.27374 21.7349 8.62262 23.3426 9.37568L24.8738 10.0929C25.6394 10.4515 26.185 11.0804 26.4698 11.8674C26.7547 12.6543 26.7382 13.4867 26.3796 14.2523L25.3397 16.4725L21.9688 23.6691L20.9289 25.8893C20.5703 26.6549 19.9413 27.2005 19.1544 27.4854C18.3675 27.7703 17.535 27.7538 16.7695 27.3952L15.2383 26.678C14.4727 26.3194 13.8505 25.6545 13.5656 24.8676Z" fill="#2E631E"/>
<path d="M15.4508 27.4889C14.6648 27.2013 14.1144 26.618 13.7585 25.8511L12.7261 23.6274L9.37999 16.4193L8.34766 14.1955C7.60012 12.5852 8.25754 10.7888 9.86785 10.0412L11.4015 9.32929C12.1683 8.97331 13.0008 8.95965 13.7867 9.24724C14.5727 9.53483 15.1998 10.0826 15.5557 10.8494L16.5881 13.0732L19.9342 20.2812L20.9665 22.505C21.3225 23.2718 21.3362 24.1043 21.0486 24.8903C20.761 25.6762 20.2132 26.3033 19.4464 26.6592L18.9855 27.5381C18.2186 27.894 16.2367 27.7765 15.4508 27.4889Z" fill="#2E631E"/>
<path fill-rule="evenodd" clip-rule="evenodd" d="M23.6767 16.1622L21.6326 20.5261L20.7011 22.5148C20.1395 23.8254 19.4141 25.3409 18.9888 25.5383L18.8833 25.5908C18.2946 25.884 17.6457 26.036 16.988 26.0349C15.988 26.0332 14.9661 24.9198 14.6102 24.153L12.9371 20.549L12.083 18.7085C11.727 17.9417 11.1931 16.7915 10.908 16.1781L9.19941 12.4975C8.84344 11.7307 9.24879 10.7968 10.0156 10.4408L11.5492 9.72886C12.316 9.37289 13.2142 9.70163 13.5702 10.4684L15.2789 14.1491L17.2796 18.459L18.1297 16.6448L18.1324 16.6389C18.491 15.8734 19.0269 14.7292 19.3129 14.1182L21.0341 10.4434C21.3927 9.67782 22.3687 9.38806 23.1343 9.74666L24.6654 10.4639C25.431 10.8225 25.7565 11.7218 25.3979 12.4874L23.6767 16.1622Z" fill="#61A54B"/>
<g style="mix-blend-mode:screen" opacity="0.5">
<path d="M9.28308 12.1547L10.7947 11.3971C11.5505 11.0184 12.5338 11.2821 12.9125 12.0379L14.314 14.8345C14.5412 15.2879 14.9951 15.4388 15.4486 15.2115C15.4486 15.2115 15.146 15.3631 15.6753 15.0979L15.1828 14.1153L13.3648 10.4875C12.986 9.73164 12.0784 9.42994 11.3226 9.80871L9.81095 10.5662C9.13072 10.9071 8.82888 11.6258 8.98073 12.3062C9.08151 12.2557 9.1823 12.2052 9.28308 12.1547Z" fill="white"/>
</g>
<g style="mix-blend-mode:screen" opacity="0.5">
<path d="M21.4458 10.2633L22.9769 10.9805C23.7425 11.3391 24.1447 12.2743 23.7861 13.0398L22.4593 15.8726C22.2441 16.3319 22.4069 16.7816 22.8663 16.9968C22.8663 16.9968 22.5598 16.8532 23.0959 17.1043L23.5621 16.109L25.2833 12.4342C25.6419 11.6687 25.3164 10.7693 24.5508 10.4107L23.0197 9.6935C22.3306 9.37076 21.5795 9.5791 21.1395 10.1198C21.2416 10.1677 21.3437 10.2155 21.4458 10.2633Z" fill="white"/>
</g>
<defs>
<linearGradient id="paint0_linear_0_2435" x1="0.0329715" y1="35.4856" x2="0.0329715" y2="0.488164" gradientUnits="userSpaceOnUse">
<stop stop-color="#3B7429"/>
<stop offset="0.424" stop-color="#61A54B"/>
<stop offset="1" stop-color="#B0D2A5"/>
</linearGradient>
</defs>
</svg>
