<svg width="28" height="28" viewBox="0 0 28 28" fill="none" xmlns="http://www.w3.org/2000/svg">
<path d="M4.5489 4.5489C4.9005 4.19773 5.37712 4.00048 5.87405 4.00048C6.37099 4.00048 6.8476 4.19773 7.19921 4.5489L14 11.3472L20.8008 4.5489C20.9748 4.37488 21.1814 4.23683 21.4088 4.14265C21.6362 4.04847 21.8798 4 22.1259 4C22.3721 4 22.6157 4.04847 22.8431 4.14265C23.0705 4.23683 23.2771 4.37488 23.4511 4.5489C23.6251 4.72292 23.7632 4.92951 23.8573 5.15688C23.9515 5.38425 24 5.62795 24 5.87405C24 6.12016 23.9515 6.36385 23.8573 6.59122C23.7632 6.81859 23.6251 7.02518 23.4511 7.19921L16.6528 14L23.4511 20.8008C23.8026 21.1522 24 21.6289 24 22.1259C24 22.623 23.8026 23.0996 23.4511 23.4511C23.0996 23.8026 22.623 24 22.1259 24C21.6289 24 21.1522 23.8026 20.8008 23.4511L14 16.6528L7.19921 23.4511C6.84775 23.8026 6.37108 24 5.87405 24C5.37702 24 4.90035 23.8026 4.5489 23.4511C4.19744 23.0996 4 22.623 4 22.1259C4 21.6289 4.19744 21.1522 4.5489 20.8008L11.3472 14L4.5489 7.19921C4.19773 6.8476 4.00048 6.37099 4.00048 5.87405C4.00048 5.37712 4.19773 4.9005 4.5489 4.5489Z" fill="#EAD0A5"/>
</svg>
