<svg width="51" height="56" viewBox="0 0 51 56" fill="none" xmlns="http://www.w3.org/2000/svg">
<mask id="mask0_94_119429" style="mask-type:luminance" maskUnits="userSpaceOnUse" x="11" y="23" width="4" height="16">
<path d="M11.9636 28.3122L14.0753 23.5024C12.7824 26.5203 12.7393 30.1983 14.2908 33.9706L12.1791 38.7803C10.6276 34.9609 10.6707 31.2829 11.9636 28.3122Z" fill="white"/>
</mask>
<g mask="url(#mask0_94_119429)">
<path d="M14.2908 33.9706L12.1791 38.7803C10.6276 35.008 10.6707 31.33 11.9636 28.3122L14.0753 23.5024C12.7824 26.4731 12.7393 30.1512 14.2908 33.9706Z" fill="#D8D145"/>
</g>
<mask id="mask1_94_119429" style="mask-type:luminance" maskUnits="userSpaceOnUse" x="12" y="33" width="34" height="19">
<path d="M45.1053 39.6761L42.9935 44.4858C41.442 48.0224 38.1667 50.5687 33.5984 51.276C25.1515 52.5963 15.584 46.9378 12.1793 38.733L14.2911 33.9233C17.6526 42.1753 27.2632 47.7866 35.7102 46.4663C40.2784 45.8061 43.5538 43.2127 45.1053 39.6761Z" fill="white"/>
</mask>
<g mask="url(#mask1_94_119429)">
<path d="M41.2266 44.3916C39.6751 45.429 37.8219 46.1835 35.7102 46.5136C34.1587 46.7493 32.521 46.7493 30.9264 46.5607L28.8147 51.3704C30.4093 51.559 32.0039 51.559 33.5984 51.3233C35.7533 50.9932 37.6064 50.2387 39.1148 49.2013C40.8387 48.0225 42.1747 46.4193 42.9935 44.5331L45.1053 39.7234C44.2864 41.5624 42.9504 43.1656 41.2266 44.3916Z" fill="#CD8D21"/>
<path d="M22.9966 43.7314C19.161 41.468 15.9718 38.0257 14.2911 33.9233L12.1793 38.733C13.8601 42.7883 17.0493 46.2305 20.8849 48.5411C23.3414 50.0028 26.0996 50.9931 28.8147 51.3232L30.9264 46.5135C28.1682 46.1834 25.4531 45.1931 22.9966 43.7314Z" fill="#D4A21F"/>
</g>
<path d="M44.8896 29.2552C41.528 21.0033 31.9174 15.392 23.4705 16.7123C15.0235 18.0326 10.8862 25.7187 14.2908 33.9706C17.6524 42.2226 27.263 47.8339 35.7099 46.5136C44.1569 45.1933 48.2511 37.46 44.8896 29.2552ZM34.5894 43.8258C27.6508 44.9104 19.7641 40.2893 17.0059 33.4991C14.2477 26.7561 17.6524 20.4374 24.5479 19.3529C31.4865 18.2684 39.3732 22.8894 42.1314 29.6796C44.9327 36.4226 41.528 42.7884 34.5894 43.8258Z" fill="#E1DB4A"/>
<path d="M23.4709 16.7124L24.5483 19.353C17.6528 20.4376 14.2481 26.7562 17.0063 33.5464L14.2912 33.9708C10.9297 25.7188 15.0239 17.9856 23.4709 16.7124Z" fill="white"/>
<path d="M24.5482 19.3529C31.4867 18.2683 39.3734 22.8894 42.1316 29.6796C44.8898 36.4226 41.5283 42.7884 34.5897 43.8729C27.6511 44.9575 19.7644 40.3364 17.0062 33.5462C14.248 26.756 17.6527 20.4374 24.5482 19.3529Z" fill="#E7C825"/>
<path d="M23.8153 20.5789C30.7538 19.4943 38.6406 24.1154 41.3988 30.9056C42.7348 34.2064 42.6486 37.4128 41.3557 39.9592C43.295 37.2714 43.726 33.5462 42.1314 29.6796C39.3732 22.8894 31.4865 18.2683 24.5479 19.3529C21.014 19.9187 18.3851 21.8049 17.0491 24.4926C18.5144 22.465 20.8416 21.0033 23.8153 20.5789Z" fill="#CD8D21"/>
<path fill-rule="evenodd" clip-rule="evenodd" d="M27.3312 24.0412C27.5563 23.9047 27.8068 23.8633 28.0829 23.9169C28.3591 23.9705 28.5749 24.1476 28.7443 24.3607C28.9137 24.5738 28.9904 24.859 28.9487 25.1212C28.907 25.3834 28.7933 25.5866 28.5683 25.7231L27.9791 26.1043L30.2837 29.2549C31.7802 29.0499 33.3186 29.3486 34.6691 30.0614C36.0196 30.7741 37.0639 31.8779 37.5932 33.1521C38.1225 34.4262 38.1507 35.7833 37.6986 37.0921C37.214 38.3496 36.3024 39.4791 35.0775 40.2775C33.8921 41.0835 32.4468 41.4787 31.0709 41.4368C29.695 41.3949 28.3956 40.8723 27.3629 39.9509C26.3302 39.0295 25.6431 37.7248 25.4247 36.2857C25.1668 34.839 25.4495 33.3171 26.1383 32.0542L23.8336 28.9036L23.2838 29.2924C23.0982 29.4366 22.8476 29.478 22.5715 29.4244C22.3348 29.3784 22.0726 29.2374 21.9102 28.9806C21.7407 28.7675 21.6641 28.4823 21.7058 28.2201C21.7475 27.9579 21.8681 27.711 22.0537 27.5668L27.3312 24.0412Z" fill="#ECB72B"/>
<path d="M7.92792 14.811C8.31278 16.5796 9.62131 17.9271 11.1608 18.3482C11.6996 18.5167 11.6996 19.3588 11.1608 19.4431C9.54434 19.8642 8.31278 21.2959 7.92792 22.9802C7.77398 23.5698 7.00425 23.5698 6.92728 22.9802C6.54242 21.2117 5.23389 19.8642 3.69445 19.4431C3.15564 19.2746 3.15564 18.4324 3.69445 18.3482C5.31087 17.9271 6.54242 16.4954 6.92728 14.811C7.00425 14.2215 7.77398 14.2215 7.92792 14.811Z" fill="white"/>
<path d="M17.3955 4.7048C17.6264 5.71543 18.3962 6.55761 19.3198 6.81027C19.6277 6.89448 19.6277 7.3998 19.3198 7.48401C18.3962 7.73667 17.6264 8.57885 17.3955 9.58948C17.3185 9.92635 16.8567 9.92635 16.7797 9.58948C16.5488 8.57885 15.7791 7.73667 14.8554 7.48401C14.5475 7.3998 14.5475 6.89448 14.8554 6.81027C15.7791 6.55761 16.5488 5.71543 16.7797 4.7048C16.8567 4.36793 17.3185 4.36793 17.3955 4.7048Z" fill="white"/>
</svg>
