<svg width="12" height="12" viewBox="0 0 12 12" fill="none" xmlns="http://www.w3.org/2000/svg">
<path d="M0.329344 0.329344C0.540311 0.11864 0.826286 0.000289718 1.12445 0.000289718C1.42262 0.000289718 1.70859 0.11864 1.91956 0.329344L6.00011 4.4084L10.0807 0.329344C10.1851 0.224929 10.309 0.142103 10.4455 0.0855937C10.5819 0.0290847 10.7281 2.91083e-09 10.8758 0C11.0234 -2.91083e-09 11.1697 0.0290847 11.3061 0.0855937C11.4425 0.142103 11.5665 0.224929 11.6709 0.329344C11.7753 0.433759 11.8581 0.557718 11.9146 0.694143C11.9711 0.830567 12.0002 0.976787 12.0002 1.12445C12.0002 1.27212 11.9711 1.41834 11.9146 1.55476C11.8581 1.69119 11.7753 1.81514 11.6709 1.91956L7.59183 6.00011L11.6709 10.0807C11.8818 10.2915 12.0002 10.5775 12.0002 10.8758C12.0002 11.174 11.8818 11.46 11.6709 11.6709C11.46 11.8818 11.174 12.0002 10.8758 12.0002C10.5775 12.0002 10.2915 11.8818 10.0807 11.6709L6.00011 7.59183L1.91956 11.6709C1.70868 11.8818 1.42268 12.0002 1.12445 12.0002C0.826229 12.0002 0.54022 11.8818 0.329344 11.6709C0.118469 11.46 0 11.174 0 10.8758C0 10.5775 0.118469 10.2915 0.329344 10.0807L4.4084 6.00011L0.329344 1.91956C0.11864 1.70859 0.000289718 1.42262 0.000289718 1.12445C0.000289718 0.826286 0.11864 0.540311 0.329344 0.329344Z" fill="#968E8C"/>
</svg>
