<svg width="77" height="77" viewBox="0 0 77 77" fill="none" xmlns="http://www.w3.org/2000/svg">
<rect x="0.867676" width="75.8676" height="77" rx="10.1912" fill="url(#paint0_linear_94_119456)" fill-opacity="0.5"/>
<rect x="0.867676" width="75.8676" height="77" rx="10.1912" fill="#241C32"/>
<path d="M38.4456 25.488C40.7256 25.488 42.8256 25.872 44.7456 26.64C46.6896 27.408 48.2256 28.476 49.3536 29.844C50.4816 31.212 51.0456 32.784 51.0456 34.56C51.0456 36 50.6976 37.236 50.0016 38.268C49.3056 39.3 48.4176 40.14 47.3376 40.788L45.4296 41.868C44.3976 42.444 43.7136 42.84 43.3776 43.056C42.8256 43.392 42.4416 43.764 42.2256 44.172C42.0096 44.58 41.9016 45.06 41.9016 45.612H33.6576C33.6576 43.788 34.0896 42.264 34.9536 41.04C35.8176 39.792 37.2696 38.712 39.3096 37.8C40.2216 37.392 40.8816 36.948 41.2896 36.468C41.7216 35.964 41.9376 35.4 41.9376 34.776C41.9376 34.08 41.6016 33.48 40.9296 32.976C40.2816 32.472 39.4536 32.22 38.4456 32.22C37.0776 32.22 36.0096 32.556 35.2416 33.228C34.4976 33.9 34.1256 34.848 34.1256 36.072C34.1256 36.552 34.1976 37.104 34.3416 37.728C32.4216 37.176 29.5536 36.9 25.7376 36.9C25.7136 36.684 25.7016 36.384 25.7016 36C25.7016 33.984 26.2296 32.184 27.2856 30.6C28.3656 28.992 29.8656 27.744 31.7856 26.856C33.7296 25.944 35.9496 25.488 38.4456 25.488ZM41.9376 54.72H33.5856V48.312H41.9376V54.72Z" fill="white" fill-opacity="0.47"/>
<defs>
<linearGradient id="paint0_linear_94_119456" x1="39.3677" y1="36.2353" x2="39.3677" y2="63.4118" gradientUnits="userSpaceOnUse">
<stop stop-opacity="0"/>
<stop offset="0.945"/>
</linearGradient>
</defs>
</svg>
