<svg width="176" height="150" viewBox="0 0 176 150" fill="none" xmlns="http://www.w3.org/2000/svg">
<path fill-rule="evenodd" clip-rule="evenodd" d="M70.5115 15.9053L75.76 6.8177L88.36 1L100.6 6.8177L105.52 15.9053H165.081C165.709 20.8241 169.911 24.6261 175 24.6261V138C169.477 138 165 142.477 165 148C165 148.338 165.017 148.671 165.049 149H10.9866C10.9955 148.827 11 148.653 11 148.479C11 142.956 6.52285 138.479 1 138.479V24.3838C6.00556 24.3838 10.1521 20.706 10.885 15.9053H70.5115Z" fill="#0E0923"/>
<path d="M75.76 6.8177L75.5504 6.36375L75.4064 6.43025L75.327 6.56763L75.76 6.8177ZM70.5115 15.9053V16.4053H70.8001L70.9445 16.1554L70.5115 15.9053ZM88.36 1L88.5746 0.548414L88.3631 0.447857L88.1504 0.546052L88.36 1ZM100.6 6.8177L101.04 6.57963L100.962 6.43615L100.815 6.36611L100.6 6.8177ZM105.52 15.9053L105.081 16.1434L105.223 16.4053H105.52V15.9053ZM165.081 15.9053L165.577 15.842L165.521 15.4053H165.081V15.9053ZM175 24.6261H175.5V24.1261H175V24.6261ZM175 138V138.5H175.5V138H175ZM165.049 149V149.5H165.601L165.547 148.951L165.049 149ZM10.9866 149L10.4873 148.974L10.4603 149.5H10.9866V149ZM1 138.479H0.5V138.979H1V138.479ZM1 24.3838V23.8838H0.5V24.3838H1ZM10.885 15.9053V15.4053H10.4555L10.3907 15.8299L10.885 15.9053ZM75.327 6.56763L70.0785 15.6552L70.9445 16.1554L76.193 7.06776L75.327 6.56763ZM88.1504 0.546052L75.5504 6.36375L75.9696 7.27165L88.5696 1.45395L88.1504 0.546052ZM100.815 6.36611L88.5746 0.548414L88.1454 1.45159L100.385 7.26928L100.815 6.36611ZM105.96 15.6672L101.04 6.57963L100.16 7.05577L105.081 16.1434L105.96 15.6672ZM165.081 15.4053H105.52V16.4053H165.081V15.4053ZM175 24.1261C170.165 24.1261 166.174 20.5143 165.577 15.842L164.585 15.9686C165.245 21.1338 169.656 25.1261 175 25.1261V24.1261ZM175.5 138V24.6261H174.5V138H175.5ZM165.5 148C165.5 142.753 169.753 138.5 175 138.5V137.5C169.201 137.5 164.5 142.201 164.5 148H165.5ZM165.547 148.951C165.516 148.638 165.5 148.321 165.5 148H164.5C164.5 148.354 164.518 148.704 164.552 149.049L165.547 148.951ZM10.9866 149.5H165.049V148.5H10.9866V149.5ZM10.5 148.479C10.5 148.645 10.4957 148.81 10.4873 148.974L11.486 149.026C11.4953 148.844 11.5 148.662 11.5 148.479H10.5ZM1 138.979C6.24671 138.979 10.5 143.232 10.5 148.479H11.5C11.5 142.68 6.79899 137.979 1 137.979V138.979ZM0.5 24.3838V138.479H1.5V24.3838H0.5ZM10.3907 15.8299C9.69458 20.3901 5.75483 23.8838 1 23.8838V24.8838C6.2563 24.8838 10.6097 21.022 11.3793 15.9808L10.3907 15.8299ZM70.5115 15.4053H10.885V16.4053H70.5115V15.4053Z" fill="#B7A07B"/>
</svg>
