<svg width="17" height="19" viewBox="0 0 17 19" fill="none" xmlns="http://www.w3.org/2000/svg">
<rect x="1.64507" y="2.64549" width="14.8065" height="14.8065" rx="7.40323" stroke="#8D8D8D" stroke-width="1.09677"/>
<path d="M9.06491 6.83788C9.55114 6.83788 9.99899 6.91977 10.4085 7.08356C10.823 7.24734 11.1506 7.47511 11.3912 7.76685C11.6317 8.05859 11.752 8.39384 11.752 8.77259C11.752 9.07969 11.6778 9.34328 11.5294 9.56336C11.3809 9.78345 11.1916 9.96259 10.9612 10.1008L10.5543 10.3311C10.3342 10.4539 10.1884 10.5384 10.1167 10.5845C9.99899 10.6561 9.9171 10.7354 9.87104 10.8225C9.82497 10.9095 9.80194 11.0118 9.80194 11.1296H8.04381C8.04381 10.7406 8.13594 10.4156 8.3202 10.1545C8.50446 9.88837 8.81411 9.65805 9.24917 9.46356C9.44366 9.37655 9.58441 9.28186 9.67142 9.17949C9.76355 9.07201 9.80962 8.95173 9.80962 8.81865C9.80962 8.67022 9.73796 8.54227 9.59465 8.43478C9.45646 8.3273 9.27988 8.27356 9.06491 8.27356C8.77317 8.27356 8.5454 8.34521 8.38162 8.48852C8.22295 8.63184 8.14362 8.83401 8.14362 9.09504C8.14362 9.19741 8.15897 9.31513 8.18968 9.4482C7.78022 9.33048 7.16858 9.27162 6.35478 9.27162C6.34966 9.22556 6.3471 9.16158 6.3471 9.07969C6.3471 8.64975 6.4597 8.26588 6.68491 7.92807C6.91523 7.58515 7.23512 7.319 7.64459 7.12962C8.05917 6.93513 8.53261 6.83788 9.06491 6.83788ZM9.80962 13.0719H8.02846V11.7054H9.80962V13.0719Z" fill="#8D8D8D"/>
</svg>
