<svg width="23" height="22" viewBox="0 0 23 22" fill="none" xmlns="http://www.w3.org/2000/svg">
<path d="M11.2074 1.83331C6.14744 1.83331 2.04077 5.93998 2.04077 11C2.04077 16.06 6.14744 20.1666 11.2074 20.1666C16.2674 20.1666 20.3741 16.06 20.3741 11C20.3741 5.93998 16.2674 1.83331 11.2074 1.83331ZM11.2074 15.5833C10.7033 15.5833 10.2908 15.1708 10.2908 14.6666V11C10.2908 10.4958 10.7033 10.0833 11.2074 10.0833C11.7116 10.0833 12.1241 10.4958 12.1241 11V14.6666C12.1241 15.1708 11.7116 15.5833 11.2074 15.5833ZM12.1241 8.24998H10.2908V6.41665H12.1241V8.24998Z" fill="white" fill-opacity="0.67"/>
</svg>
