<svg width="26" height="24" viewBox="0 0 26 24" fill="none" xmlns="http://www.w3.org/2000/svg">
<mask id="mask0_91_31610" style="mask-type:luminance" maskUnits="userSpaceOnUse" x="6" y="9" width="2" height="8">
<path d="M6.6573 12.1002L7.69247 9.98358C7.05869 11.3117 7.03756 12.9303 7.7981 14.5904L6.76293 16.7071C6.0024 15.0262 6.02352 13.4076 6.6573 12.1002Z" fill="white"/>
</mask>
<g mask="url(#mask0_91_31610)">
<path d="M7.7981 14.5904L6.76293 16.7071C6.0024 15.0469 6.02352 13.4283 6.6573 12.1002L7.69247 9.98358C7.05869 11.2909 7.03756 12.9095 7.7981 14.5904Z" fill="#D8D145"/>
</g>
<mask id="mask1_91_31610" style="mask-type:luminance" maskUnits="userSpaceOnUse" x="6" y="14" width="17" height="9">
<path d="M22.9032 17.1013L21.8681 19.218C21.1075 20.7743 19.502 21.8949 17.2626 22.2062C13.122 22.7872 8.43201 20.2971 6.76306 16.6863L7.79823 14.5696C9.44605 18.2012 14.1571 20.6706 18.2978 20.0895C20.5371 19.799 22.1427 18.6577 22.9032 17.1013Z" fill="white"/>
</mask>
<g mask="url(#mask1_91_31610)">
<path d="M21.0019 19.1765C20.2414 19.633 19.333 19.965 18.2978 20.1103C17.5373 20.214 16.7345 20.214 15.9528 20.131L14.9177 22.2477C15.6993 22.3307 16.481 22.3307 17.2626 22.2269C18.3189 22.0817 19.2273 21.7497 19.9667 21.2931C20.8118 20.7743 21.4667 20.0688 21.8681 19.2387L22.9032 17.1221C22.5019 17.9314 21.8469 18.6369 21.0019 19.1765Z" fill="#CD8D21"/>
<path d="M12.0657 18.886C10.1855 17.8899 8.62214 16.375 7.79823 14.5696L6.76306 16.6863C7.58697 18.4709 9.15029 19.9858 11.0305 21.0026C12.2347 21.6459 13.5867 22.0817 14.9177 22.2269L15.9528 20.1103C14.6008 19.965 13.2698 19.5292 12.0657 18.886Z" fill="#D4A21F"/>
</g>
<path d="M22.7974 12.5153C21.1496 8.8838 16.4385 6.41438 12.2979 6.99542C8.1572 7.57646 6.12912 10.959 7.79806 14.5905C9.44588 18.222 14.157 20.6914 18.2976 20.1104C22.4383 19.5293 24.4453 16.1261 22.7974 12.5153ZM17.7483 18.9275C14.3471 19.4048 10.481 17.3712 9.12899 14.3829C7.77694 11.4155 9.44588 8.63479 12.826 8.1575C16.2273 7.68022 20.0933 9.71386 21.4454 12.7021C22.8186 15.6695 21.1496 18.471 17.7483 18.9275Z" fill="#E1DB4A"/>
<path d="M12.2981 6.99548L12.8262 8.15757C9.4461 8.63485 7.77716 11.4155 9.12921 14.4038L7.79828 14.5905C6.15046 10.959 8.15742 7.55577 12.2981 6.99548Z" fill="white"/>
<path d="M12.8262 8.15752C16.2275 7.68023 20.0935 9.71388 21.4456 12.7021C22.7976 15.6696 21.1498 18.471 17.7485 18.9483C14.3473 19.4256 10.4812 17.3919 9.12918 14.4037C7.77713 11.4155 9.44607 8.6348 12.8262 8.15752Z" fill="#E7C825"/>
<path d="M12.4669 8.69699C15.8682 8.21971 19.7342 10.2534 21.0863 13.2416C21.7412 14.6942 21.6989 16.1053 21.0651 17.2259C22.0158 16.043 22.2271 14.4037 21.4454 12.702C20.0933 9.71381 16.2273 7.68017 12.826 8.15745C11.0937 8.40647 9.80505 9.23653 9.15015 10.4194C9.86843 9.52705 11.0092 8.88376 12.4669 8.69699Z" fill="#CD8D21"/>
<path fill-rule="evenodd" clip-rule="evenodd" d="M14.1905 10.2207C14.3008 10.1606 14.4236 10.1424 14.559 10.166C14.6943 10.1896 14.8001 10.2675 14.8832 10.3613C14.9662 10.4551 15.0038 10.5806 14.9833 10.696C14.9629 10.8114 14.9072 10.9008 14.7969 10.9609L14.508 11.1286L15.6378 12.5151C16.3713 12.4249 17.1254 12.5564 17.7875 12.87C18.4495 13.1837 18.9614 13.6695 19.2209 14.2302C19.4803 14.7909 19.4941 15.3881 19.2725 15.9641C19.035 16.5175 18.5881 17.0146 17.9877 17.3659C17.4066 17.7207 16.6981 17.8946 16.0236 17.8761C15.3492 17.8577 14.7122 17.6277 14.206 17.2222C13.6998 16.8168 13.363 16.2426 13.2559 15.6093C13.1295 14.9726 13.268 14.3028 13.6057 13.7471L12.4759 12.3605L12.2064 12.5316C12.1155 12.5951 11.9926 12.6133 11.8573 12.5897C11.7413 12.5695 11.6127 12.5074 11.5331 12.3944C11.45 12.3006 11.4125 12.1751 11.4329 12.0597C11.4534 11.9443 11.5125 11.8357 11.6034 11.7722L14.1905 10.2207Z" fill="#ECB72B"/>
<path d="M4.67902 6.15869C4.86768 6.93701 5.50911 7.53002 6.26374 7.71533C6.52786 7.78945 6.52786 8.16008 6.26374 8.19715C5.47138 8.38246 4.86768 9.01253 4.67902 9.75378C4.60356 10.0132 4.22624 10.0132 4.18851 9.75378C3.99986 8.97546 3.35842 8.38246 2.60379 8.19715C2.33967 8.12302 2.33967 7.75239 2.60379 7.71533C3.39615 7.53002 3.99986 6.89995 4.18851 6.15869C4.22624 5.89925 4.60356 5.89925 4.67902 6.15869Z" fill="white"/>
<path d="M9.32 1.71116C9.4332 2.15592 9.81051 2.52655 10.2633 2.63773C10.4142 2.6748 10.4142 2.89717 10.2633 2.93424C9.81051 3.04542 9.4332 3.41605 9.32 3.86081C9.28227 4.00906 9.05588 4.00906 9.01815 3.86081C8.90496 3.41605 8.52764 3.04542 8.07486 2.93424C7.92394 2.89717 7.92394 2.6748 8.07486 2.63773C8.52764 2.52655 8.90496 2.15592 9.01815 1.71116C9.05588 1.56291 9.28227 1.56291 9.32 1.71116Z" fill="white"/>
</svg>
