<svg width="37" height="19" viewBox="0 0 37 19" fill="none" xmlns="http://www.w3.org/2000/svg">
<path d="M9 1.39753L10.5 0.46582H27L28.5 1.39753L29.5 0.46582H35.5L32.5 2.32925L33.5 3.26096L32.5 4.19268L33 14.4415L33.5 15.3732L32.5 16.7708L35 18.6342H30L28 17.7025L26 18.6342H10.5L8.5 17.7025L6.5 18.6342H2L4.5 16.7708L3.5 15.3732L4 14.9074V4.19268L3.5 3.26096L4.5 2.32925L1.5 0.46582H7L9 1.39753Z" fill="#EAD0A5"/>
<g filter="url(#filter0_ii_94_123367)">
<path d="M0 0H7.22647L8.68309 0.945283L10.1397 0L26.6992 0.000357001L28.1559 0.94564L29.6125 0.000357001H36.839L32.8957 2.55934L32.0995 3.07662L30.9724 3.80747L29.0492 2.55934L30.9724 1.31121L31.77 1.82877L30.9733 2.34576L30.6425 2.55934L30.6404 2.56181L30.9716 2.77674L32.9633 1.48426L32.9612 1.4829L34.119 0.731495H30.0792L28.1559 1.97962L26.2326 0.731495L10.6064 0.731138L8.68309 1.97927L6.75981 0.731138H2.71994L3.87781 1.48255L3.87572 1.4839L5.86735 2.77638L6.19854 2.56145L6.19562 2.55955L5.86651 2.34484L5.06898 1.82841L5.86651 1.31085L7.78979 2.55898L5.86651 3.80711L4.73987 3.07597L3.94277 2.55927L0 0Z" fill="url(#paint0_linear_94_123367)"/>
<path d="M3.61158 2.77421L2.53493 3.4729L3.47241 4.08129V14.9184L2.53493 15.5267L3.61158 16.2254L4.40823 15.7084L4.12823 15.5267L5.1382 14.8713L4.59904 14.5214V4.47822L5.1382 4.12833L4.12823 3.4729L4.40823 3.2912L3.61158 2.77421Z" fill="url(#paint1_linear_94_123367)"/>
<path d="M0 18.9996H7.22647L8.68309 18.0544L10.1397 18.9996L26.6992 19L28.1559 18.0547L29.6125 19H36.839L32.8957 16.441L32.0995 15.9237L30.9724 15.1929L29.0492 16.441L30.9724 17.6891L31.77 17.1716L30.9733 16.6546L30.6425 16.441L30.6404 16.4385L30.9716 16.2236L32.9633 17.5161L32.9612 17.5175L34.119 18.2689H30.0792L28.1559 17.0207L26.2326 18.2689L10.6064 18.2685L8.68309 17.0204L6.75981 18.2685H2.71994L3.87781 17.5171L3.87572 17.5157L5.86735 16.2233L6.19854 16.4382L6.19562 16.4401L5.86651 16.6548L5.06898 17.1712L5.86651 17.6888L7.78979 16.4407L5.86651 15.1925L4.73987 15.9237L3.94277 16.4404L0 18.9996Z" fill="url(#paint2_linear_94_123367)"/>
<path d="M33.2274 2.77456L34.304 3.47326L33.3666 4.08165V14.9187L34.304 15.5271L33.2274 16.2258L32.4307 15.7088L32.7107 15.5271L31.7008 14.8717L32.2399 14.5218V4.47858L31.7008 4.12869L32.7107 3.47326L32.4307 3.29156L33.2274 2.77456Z" fill="url(#paint3_linear_94_123367)"/>
</g>
<path d="M14.2039 6.8582C14.1665 7.75954 14.1479 8.72487 14.1479 9.7542C14.1479 10.7889 14.1665 11.7569 14.2039 12.6582H11.3399L9.40388 8.2902L9.54788 12.6582H7.49188C7.53454 11.6235 7.55588 10.6555 7.55588 9.7542C7.55588 8.8582 7.53454 7.89287 7.49188 6.8582H10.4359L12.3799 11.3462L12.2439 6.8582H14.2039ZM16.7314 11.1942C18.7581 11.1835 20.2274 11.1542 21.1394 11.1062C21.1021 11.3249 21.0781 11.5515 21.0674 11.7862C21.0621 12.0155 21.0594 12.3062 21.0594 12.6582H14.8434C14.8861 11.6235 14.9074 10.6555 14.9074 9.7542C14.9074 8.85287 14.8861 7.88487 14.8434 6.8502H21.0594V8.2982H16.7314V9.0662C16.9874 9.07154 17.3661 9.0742 17.8674 9.0742C18.7154 9.0742 19.5928 9.0582 20.4994 9.0262V10.4022C19.5928 10.3702 18.7154 10.3542 17.8674 10.3542C17.3661 10.3542 16.9874 10.3569 16.7314 10.3622V11.1942ZM27.1425 10.4742L27.5585 6.8502H29.5105L28.4385 12.6582H25.9825L25.4385 9.4182L24.8065 12.6582H22.4545L21.3825 6.8502H23.3345L23.7425 10.4262L24.3825 6.8502H26.5185L27.1425 10.4742Z" fill="black"/>
<defs>
<filter id="filter0_ii_94_123367" x="0" y="-0.5" width="36.8389" height="19.9" filterUnits="userSpaceOnUse" color-interpolation-filters="sRGB">
<feFlood flood-opacity="0" result="BackgroundImageFix"/>
<feBlend mode="normal" in="SourceGraphic" in2="BackgroundImageFix" result="shape"/>
<feColorMatrix in="SourceAlpha" type="matrix" values="0 0 0 0 0 0 0 0 0 0 0 0 0 0 0 0 0 0 127 0" result="hardAlpha"/>
<feOffset dy="-0.5"/>
<feGaussianBlur stdDeviation="0.5"/>
<feComposite in2="hardAlpha" operator="arithmetic" k2="-1" k3="1"/>
<feColorMatrix type="matrix" values="0 0 0 0 0 0 0 0 0 0 0 0 0 0 0 0 0 0 0.3 0"/>
<feBlend mode="normal" in2="shape" result="effect1_innerShadow_94_123367"/>
<feColorMatrix in="SourceAlpha" type="matrix" values="0 0 0 0 0 0 0 0 0 0 0 0 0 0 0 0 0 0 127 0" result="hardAlpha"/>
<feOffset dy="0.4"/>
<feGaussianBlur stdDeviation="0.25"/>
<feComposite in2="hardAlpha" operator="arithmetic" k2="-1" k3="1"/>
<feColorMatrix type="matrix" values="0 0 0 0 1 0 0 0 0 0.942623 0 0 0 0 0.854167 0 0 0 1 0"/>
<feBlend mode="normal" in2="effect1_innerShadow_94_123367" result="effect2_innerShadow_94_123367"/>
</filter>
<linearGradient id="paint0_linear_94_123367" x1="76.4462" y1="0.000357346" x2="76.4462" y2="23.7623" gradientUnits="userSpaceOnUse">
<stop stop-color="#D5BA8F"/>
<stop offset="0.492201" stop-color="#E0C495"/>
<stop offset="0.505209" stop-color="#756346"/>
<stop offset="1" stop-color="#C4AB82"/>
</linearGradient>
<linearGradient id="paint1_linear_94_123367" x1="76.4462" y1="0.000357346" x2="76.4462" y2="23.7623" gradientUnits="userSpaceOnUse">
<stop stop-color="#D5BA8F"/>
<stop offset="0.492201" stop-color="#E0C495"/>
<stop offset="0.505209" stop-color="#756346"/>
<stop offset="1" stop-color="#C4AB82"/>
</linearGradient>
<linearGradient id="paint2_linear_94_123367" x1="76.4462" y1="0.000357346" x2="76.4462" y2="23.7623" gradientUnits="userSpaceOnUse">
<stop stop-color="#D5BA8F"/>
<stop offset="0.492201" stop-color="#E0C495"/>
<stop offset="0.505209" stop-color="#756346"/>
<stop offset="1" stop-color="#C4AB82"/>
</linearGradient>
<linearGradient id="paint3_linear_94_123367" x1="76.4462" y1="0.000357346" x2="76.4462" y2="23.7623" gradientUnits="userSpaceOnUse">
<stop stop-color="#D5BA8F"/>
<stop offset="0.492201" stop-color="#E0C495"/>
<stop offset="0.505209" stop-color="#756346"/>
<stop offset="1" stop-color="#C4AB82"/>
</linearGradient>
</defs>
</svg>
