<svg width="18" height="19" viewBox="0 0 18 19" fill="none" xmlns="http://www.w3.org/2000/svg">
<mask id="mask0_2175_5895" style="mask-type:luminance" maskUnits="userSpaceOnUse" x="3" y="8" width="3" height="6">
<path d="M4.22245 9.99874L4.96777 8.41125C4.51145 9.40733 4.49624 10.6213 5.04382 11.8664L4.2985 13.4539C3.75092 12.1932 3.76613 10.9793 4.22245 9.99874Z" fill="white"/>
</mask>
<g mask="url(#mask0_2175_5895)">
<path d="M5.04382 11.8664L4.2985 13.4539C3.75092 12.2088 3.76613 10.9948 4.22245 9.99874L4.96777 8.41125C4.51145 9.39176 4.49624 10.6057 5.04382 11.8664Z" fill="#D8D145"/>
</g>
<mask id="mask1_2175_5895" style="mask-type:luminance" maskUnits="userSpaceOnUse" x="4" y="11" width="12" height="7">
<path d="M15.9195 13.7496L15.1742 15.3371C14.6266 16.5044 13.4706 17.3448 11.8583 17.5782C8.87698 18.014 5.50022 16.1464 4.29858 13.4383L5.0439 11.8508C6.23033 14.5745 9.6223 16.4265 12.6036 15.9908C14.2159 15.7729 15.3719 14.9169 15.9195 13.7496Z" fill="white"/>
</mask>
<g mask="url(#mask1_2175_5895)">
<path d="M14.5506 15.3059C14.003 15.6483 13.3489 15.8974 12.6036 16.0063C12.056 16.0841 11.478 16.0841 10.9152 16.0219L10.1699 17.6093C10.7327 17.6716 11.2955 17.6716 11.8583 17.5938C12.6188 17.4848 13.2729 17.2358 13.8053 16.8934C14.4137 16.5043 14.8852 15.9752 15.1742 15.3526L15.9195 13.7651C15.6305 14.3721 15.159 14.9013 14.5506 15.3059Z" fill="#CD8D21"/>
<path d="M8.11645 15.0881C6.76271 14.341 5.63712 13.2049 5.0439 11.8508L4.29858 13.4383C4.8918 14.7768 6.01739 15.9129 7.37113 16.6756C8.23814 17.158 9.21162 17.4849 10.1699 17.5938L10.9152 16.0063C9.94173 15.8974 8.98346 15.5705 8.11645 15.0881Z" fill="#D4A21F"/>
</g>
<path d="M15.8434 10.31C14.6569 7.58639 11.265 5.73432 8.28368 6.1701C5.3024 6.60588 3.84218 9.14275 5.04382 11.8664C6.23025 14.59 9.62222 16.4421 12.6035 16.0063C15.5848 15.5705 17.0298 13.0181 15.8434 10.31ZM12.208 15.1192C9.75911 15.4771 6.97557 13.9519 6.00209 11.7108C5.02861 9.48515 6.23025 7.39963 8.66395 7.04166C11.1129 6.6837 13.8964 8.20894 14.8699 10.4501C15.8586 12.6757 14.6569 14.7768 12.208 15.1192Z" fill="#E1DB4A"/>
<path d="M8.28385 6.17017L8.66412 7.04173C6.23042 7.39969 5.02878 9.48522 6.00226 11.7264L5.04399 11.8664C3.85756 9.14282 5.30257 6.59038 8.28385 6.17017Z" fill="white"/>
<path d="M8.66411 7.04171C11.113 6.68374 13.8966 8.20898 14.87 10.4501C15.8435 12.6757 14.6571 14.7768 12.2082 15.1348C9.75927 15.4927 6.97573 13.9675 6.00225 11.7264C5.02877 9.48519 6.23041 7.39967 8.66411 7.04171Z" fill="#E7C825"/>
<path d="M8.4054 7.44624C10.8543 7.08827 13.6379 8.61351 14.6113 10.8547C15.0829 11.9441 15.0524 13.0024 14.5961 13.8429C15.2806 12.9558 15.4327 11.7262 14.8699 10.45C13.8964 8.20885 11.1129 6.68362 8.66398 7.04158C7.41671 7.22835 6.48886 7.85089 6.01733 8.73802C6.5345 8.06878 7.35587 7.58631 8.4054 7.44624Z" fill="#CD8D21"/>
<path fill-rule="evenodd" clip-rule="evenodd" d="M9.64631 8.58906C9.72573 8.544 9.81417 8.53032 9.91162 8.54801C10.0091 8.56571 10.0852 8.62415 10.145 8.69449C10.2048 8.76483 10.2319 8.85896 10.2172 8.9455C10.2024 9.03205 10.1623 9.09912 10.0829 9.14418L9.87495 9.26998L10.6884 10.3099C11.2165 10.2422 11.7595 10.3408 12.2361 10.5761C12.7128 10.8113 13.0814 11.1756 13.2682 11.5962C13.455 12.0167 13.4649 12.4646 13.3054 12.8966C13.1343 13.3117 12.8126 13.6845 12.3803 13.948C11.9619 14.214 11.4518 14.3444 10.9662 14.3306C10.4806 14.3168 10.022 14.1443 9.65748 13.8402C9.293 13.5361 9.0505 13.1054 8.9734 12.6305C8.88238 12.153 8.98216 11.6506 9.22526 11.2338L8.41184 10.1939L8.2178 10.3222C8.1523 10.3698 8.06386 10.3835 7.96641 10.3658C7.88288 10.3507 7.79034 10.3041 7.73299 10.2193C7.6732 10.149 7.64615 10.0549 7.66087 9.96833C7.67558 9.88178 7.71814 9.80029 7.78364 9.7527L9.64631 8.58906Z" fill="#ECB72B"/>
<path d="M2.79805 5.54254C2.93388 6.12628 3.39571 6.57103 3.93905 6.71002C4.12921 6.76561 4.12921 7.04359 3.93905 7.07138C3.36855 7.21037 2.93388 7.68292 2.79805 8.23886C2.74371 8.43344 2.47205 8.43344 2.44488 8.23886C2.30905 7.65512 1.84721 7.21037 1.30388 7.07138C1.11371 7.01579 1.11371 6.73782 1.30388 6.71002C1.87438 6.57103 2.30905 6.09848 2.44488 5.54254C2.47205 5.34796 2.74371 5.34796 2.79805 5.54254Z" fill="white"/>
<path d="M6.1395 2.20693C6.221 2.54049 6.49267 2.81846 6.81867 2.90185C6.92733 2.92965 6.92733 3.09643 6.81867 3.12423C6.49267 3.20762 6.221 3.48559 6.1395 3.81916C6.11233 3.93035 5.94933 3.93035 5.92217 3.81916C5.84067 3.48559 5.569 3.20762 5.243 3.12423C5.13433 3.09643 5.13433 2.92965 5.243 2.90185C5.569 2.81846 5.84067 2.54049 5.92217 2.20693C5.94933 2.09574 6.11233 2.09574 6.1395 2.20693Z" fill="white"/>
</svg>
