<svg width="50" height="48" viewBox="0 0 50 48" fill="none" xmlns="http://www.w3.org/2000/svg">
<mask id="mask0_91_31582" style="mask-type:luminance" maskUnits="userSpaceOnUse" x="10" y="19" width="5" height="15">
<path d="M11.729 24.2005L13.7994 19.9672C12.5318 22.6234 12.4896 25.8606 14.0106 29.1808L11.9403 33.4141C10.4192 30.0524 10.4615 26.8152 11.729 24.2005Z" fill="white"/>
</mask>
<g mask="url(#mask0_91_31582)">
<path d="M14.0106 29.1808L11.9403 33.4141C10.4192 30.0939 10.4615 26.8567 11.729 24.2005L13.7994 19.9672C12.5318 22.5819 12.4896 25.8191 14.0106 29.1808Z" fill="#D8D145"/>
</g>
<mask id="mask1_91_31582" style="mask-type:luminance" maskUnits="userSpaceOnUse" x="11" y="29" width="34" height="16">
<path d="M44.2209 34.2026L42.1506 38.4359C40.6295 41.5486 37.4184 43.7898 32.9397 44.4123C24.6583 45.5744 15.2784 40.594 11.9406 33.3725L14.0109 29.1392C17.3065 36.4022 26.7287 41.3411 35.01 40.179C39.4887 39.598 42.6998 37.3153 44.2209 34.2026Z" fill="white"/>
</mask>
<g mask="url(#mask1_91_31582)">
<path d="M40.4182 38.3529C38.8971 39.2659 37.0803 39.93 35.01 40.2205C33.4889 40.428 31.8833 40.428 30.32 40.262L28.2497 44.4953C29.813 44.6613 31.3763 44.6613 32.9396 44.4538C35.0522 44.1633 36.869 43.4992 38.3479 42.5862C40.0379 41.5486 41.3477 40.1375 42.1505 38.4774L44.2209 34.2441C43.4181 35.8627 42.1083 37.2738 40.4182 38.3529Z" fill="#CD8D21"/>
<path d="M22.5457 37.7718C18.7853 35.7797 15.6587 32.75 14.0109 29.1392L11.9406 33.3725C13.5884 36.9418 16.715 39.9715 20.4754 42.0051C22.8838 43.2917 25.5879 44.1633 28.2497 44.4538L30.3201 40.2205C27.616 39.93 24.9541 39.0584 22.5457 37.7718Z" fill="#D4A21F"/>
</g>
<path d="M44.0094 25.0306C40.7137 17.7675 31.2916 12.8287 23.0102 13.9908C14.7289 15.1529 10.6727 21.9178 14.0106 29.1809C17.3062 36.4439 26.7284 41.3827 35.0097 40.2207C43.2911 39.0586 47.305 32.2521 44.0094 25.0306ZM33.9112 37.855C27.1087 38.8096 19.3766 34.7423 16.6725 28.7658C13.9684 22.8309 17.3062 17.2695 24.0665 16.3149C30.8691 15.3604 38.6011 19.4277 41.3052 25.4041C44.0516 31.339 40.7137 36.9419 33.9112 37.855Z" fill="#E1DB4A"/>
<path d="M23.0106 13.9909L24.0669 16.3151C17.3066 17.2696 13.9687 22.831 16.6729 28.8075L14.011 29.181C10.7154 21.918 14.7293 15.1115 23.0106 13.9909Z" fill="white"/>
<path d="M24.0669 16.315C30.8694 15.3604 38.6015 19.4277 41.3056 25.4041C44.0097 31.339 40.714 36.9419 33.9115 37.8965C27.109 38.8511 19.3769 34.7838 16.6728 28.8074C13.9687 22.8309 17.3066 17.2695 24.0669 16.315Z" fill="#E7C825"/>
<path d="M23.3483 17.3939C30.1508 16.4394 37.8829 20.5066 40.587 26.4831C41.8968 29.3883 41.8123 32.2105 40.5448 34.4516C42.4461 32.086 42.8686 28.8072 41.3053 25.404C38.6012 19.4276 30.8691 15.3603 24.0666 16.3148C20.6019 16.8129 18.0246 18.473 16.7148 20.8387C18.1513 19.054 20.4329 17.7675 23.3483 17.3939Z" fill="#CD8D21"/>
<path fill-rule="evenodd" clip-rule="evenodd" d="M26.7954 20.4414C27.016 20.3212 27.2616 20.2847 27.5323 20.3319C27.803 20.3791 28.0146 20.5349 28.1807 20.7225C28.3468 20.9101 28.422 21.1611 28.3811 21.3919C28.3402 21.6227 28.2288 21.8015 28.0082 21.9217L27.4305 22.2572L29.69 25.0302C31.1571 24.8498 32.6653 25.1127 33.9893 25.74C35.3134 26.3674 36.3372 27.3389 36.8562 28.4604C37.3751 29.5818 37.4027 30.7762 36.9594 31.9282C36.4843 33.035 35.5906 34.0291 34.3898 34.7318C33.2276 35.4413 31.8106 35.7891 30.4617 35.7522C29.1128 35.7153 27.8389 35.2553 26.8264 34.4444C25.814 33.6335 25.1403 32.485 24.9262 31.2185C24.6734 29.9451 24.9505 28.6056 25.6258 27.494L23.3663 24.721L22.8273 25.0632C22.6453 25.1901 22.3997 25.2266 22.129 25.1794C21.897 25.139 21.6399 25.0148 21.4806 24.7888C21.3145 24.6012 21.2394 24.3502 21.2802 24.1194C21.3211 23.8886 21.4394 23.6713 21.6213 23.5444L26.7954 20.4414Z" fill="#ECB72B"/>
<path d="M7.77247 12.3174C8.14979 13.874 9.43266 15.06 10.9419 15.4307C11.4702 15.5789 11.4702 16.3202 10.9419 16.3943C9.35719 16.7649 8.14979 18.0251 7.77247 19.5076C7.62155 20.0264 6.86692 20.0264 6.79145 19.5076C6.41414 17.9509 5.13127 16.7649 3.62201 16.3943C3.09377 16.246 3.09377 15.5048 3.62201 15.4307C5.20673 15.06 6.41414 13.7999 6.79145 12.3174C6.86692 11.7985 7.62155 11.7985 7.77247 12.3174Z" fill="white"/>
<path d="M17.0544 3.42227C17.2808 4.31177 18.0354 5.05303 18.941 5.27541C19.2428 5.34953 19.2428 5.79429 18.941 5.86841C18.0354 6.09079 17.2808 6.83204 17.0544 7.72155C16.9789 8.01805 16.5261 8.01805 16.4507 7.72155C16.2243 6.83204 15.4697 6.09079 14.5641 5.86841C14.2622 5.79429 14.2622 5.34953 14.5641 5.27541C15.4697 5.05303 16.2243 4.31177 16.4507 3.42227C16.5261 3.12576 16.9789 3.12576 17.0544 3.42227Z" fill="white"/>
</svg>
