<svg width="24" height="24" viewBox="0 0 24 24" fill="none" xmlns="http://www.w3.org/2000/svg">
<path fill-rule="evenodd" clip-rule="evenodd" d="M20.4099 9.86001C20.3516 9.8572 20.2933 9.8562 20.2349 9.85701H17.7999C15.8079 9.85701 14.1019 11.438 14.1019 13.5C14.1019 15.562 15.8079 17.143 17.8009 17.143H20.2339C20.2949 17.143 20.3539 17.143 20.4089 17.139C20.8201 17.1128 21.2077 16.9379 21.4995 16.647C21.7913 16.3561 21.9674 15.9691 21.9949 15.558C21.9989 15.499 21.9989 15.436 21.9989 15.378V11.622C21.9989 11.564 21.9989 11.501 21.9949 11.442C21.9674 11.0311 21.7915 10.6442 21.4999 10.3533C21.2083 10.0625 20.8209 9.88749 20.4099 9.86101M17.5869 14.472C18.0999 14.472 18.5169 14.038 18.5169 13.501C18.5169 12.964 18.0999 12.53 17.5869 12.53C17.0739 12.53 16.6579 12.964 16.6579 13.501C16.6579 14.038 17.0729 14.472 17.5869 14.472Z" fill="#EAD0A5"/>
<path fill-rule="evenodd" clip-rule="evenodd" d="M20.234 18.6C20.2675 18.5988 20.3008 18.6056 20.3312 18.6196C20.3617 18.6337 20.3884 18.6547 20.4092 18.681C20.43 18.7072 20.4444 18.738 20.4511 18.7709C20.4579 18.8037 20.4568 18.8377 20.448 18.87C20.254 19.562 19.947 20.152 19.454 20.648C18.733 21.375 17.818 21.698 16.688 21.851C15.59 22 14.188 22 12.416 22H10.379C8.608 22 7.205 22 6.107 21.851C4.977 21.698 4.062 21.375 3.341 20.648C2.62 19.923 2.3 19 2.148 17.862C2 16.754 2 15.34 2 13.555V13.445C2 11.66 2 10.245 2.148 9.13902C2.3 8.00002 2.62 7.08002 3.34 6.35102C4.061 5.62502 4.976 5.30102 6.106 5.14902C7.205 5.00002 8.608 5.00002 10.379 5.00002H12.416C14.187 5.00002 15.59 5.00002 16.688 5.14902C17.818 5.30202 18.733 5.62502 19.454 6.35102C19.947 6.84802 20.254 7.43801 20.448 8.13101C20.4566 8.1633 20.4575 8.19715 20.4507 8.22986C20.4439 8.26256 20.4295 8.29322 20.4087 8.31937C20.3879 8.34551 20.3613 8.36643 20.3309 8.38043C20.3006 8.39444 20.2674 8.40114 20.234 8.40001H17.801C15.067 8.40001 12.658 10.577 12.658 13.5C12.658 16.423 15.068 18.6 17.802 18.6H20.234ZM5.614 8.88601C5.51879 8.88641 5.42459 8.90555 5.33678 8.94235C5.24897 8.97915 5.16927 9.03288 5.10222 9.10048C5.03518 9.16808 4.98211 9.24823 4.94604 9.33634C4.90997 9.42445 4.89161 9.51881 4.892 9.61402C4.892 10.017 5.215 10.343 5.614 10.343H9.47C9.87 10.343 10.193 10.017 10.193 9.61402C10.1935 9.42164 10.1177 9.23692 9.98213 9.10042C9.84657 8.96392 9.66237 8.88681 9.47 8.88601H5.614Z" fill="#EAD0A5"/>
<path d="M7.77698 4.02401L9.73498 2.58101C10.2459 2.20327 10.8646 1.99942 11.5 1.99942C12.1354 1.99942 12.754 2.20327 13.265 2.58101L15.234 4.03201C14.41 4.00001 13.49 4.00001 12.483 4.00001H10.313C9.39098 4.00001 8.54398 4.00001 7.77698 4.02401Z" fill="#EAD0A5"/>
</svg>
