<svg width="67" height="65" viewBox="0 0 67 65" fill="none" xmlns="http://www.w3.org/2000/svg">
<mask id="mask0_88_28303" style="mask-type:luminance" maskUnits="userSpaceOnUse" x="14" y="27" width="5" height="19">
<path d="M15.7168 32.7715L18.4911 27.0389C16.7926 30.6358 16.7359 35.0195 18.7742 39.5157L15.9999 45.2483C13.9617 40.6959 14.0183 36.3122 15.7168 32.7715Z" fill="white"/>
</mask>
<g mask="url(#mask0_88_28303)">
<path d="M18.7742 39.5157L15.9999 45.2483C13.9617 40.7521 14.0183 36.3684 15.7168 32.7715L18.4911 27.0389C16.7926 30.5796 16.7359 34.9633 18.7742 39.5157Z" fill="#D8D145"/>
</g>
<mask id="mask1_88_28303" style="mask-type:luminance" maskUnits="userSpaceOnUse" x="16" y="39" width="44" height="22">
<path d="M59.2559 46.316L56.4816 52.0486C54.4434 56.2637 50.1405 59.2987 44.1391 60.1417C33.0421 61.7153 20.473 54.9711 16.0002 45.192L18.7745 39.4594C23.1906 49.2947 35.8163 55.9827 46.9133 54.4091C52.9148 53.6223 57.2177 50.5311 59.2559 46.316Z" fill="white"/>
</mask>
<g mask="url(#mask1_88_28303)">
<path d="M54.1603 51.9362C52.1221 53.1727 49.6875 54.0719 46.9133 54.4653C44.875 54.7463 42.7236 54.7463 40.6287 54.5215L37.8545 60.2541C39.9493 60.4789 42.0442 60.4789 44.139 60.1979C46.9699 59.8045 49.4044 58.9053 51.386 57.6688C53.6507 56.2638 55.4059 54.3529 56.4816 52.1048L59.2558 46.3722C58.1801 48.5641 56.425 50.475 54.1603 51.9362Z" fill="#CD8D21"/>
<path d="M30.2112 51.1494C25.1723 48.4517 20.9826 44.3489 18.7745 39.4594L16.0002 45.192C18.2083 50.0253 22.398 54.1281 27.4369 56.882C30.6641 58.6242 34.2876 59.8045 37.8545 60.1979L40.6288 54.4653C37.0053 54.0719 33.4384 52.8916 30.2112 51.1494Z" fill="#D4A21F"/>
</g>
<path d="M58.9725 33.8956C54.5563 24.0602 41.9306 17.3722 30.8336 18.9459C19.7366 20.5195 14.3014 29.6804 18.7741 39.5158C23.1903 49.3511 35.816 56.0391 46.913 54.4655C58.01 52.8918 63.3886 43.6747 58.9725 33.8956ZM45.4409 51.262C36.3255 52.5546 25.9645 47.0468 22.341 38.9538C18.7175 30.9169 23.1903 23.3858 32.2491 22.0932C41.3645 20.8005 51.7254 26.3083 55.3489 34.4014C59.0291 42.4383 54.5563 50.0255 45.4409 51.262Z" fill="#E1DB4A"/>
<path d="M30.8341 18.9461L32.2495 22.0934C23.1908 23.386 18.718 30.9171 22.3415 39.0102L18.7746 39.516C14.3585 29.6806 19.7371 20.4635 30.8341 18.9461Z" fill="white"/>
<path d="M32.2495 22.0933C41.3649 20.8006 51.7258 26.3084 55.3493 34.4015C58.9729 42.4384 54.5567 50.0256 45.4413 51.3183C36.3259 52.6109 25.9649 47.1031 22.3414 39.01C18.7179 30.917 23.1907 23.3859 32.2495 22.0933Z" fill="#E7C825"/>
<path d="M31.2866 23.5543C40.402 22.2617 50.763 27.7695 54.3865 35.8626C56.1416 39.7967 56.0284 43.6184 54.3299 46.6533C56.8777 43.4498 57.4438 39.0099 55.349 34.4013C51.7255 26.3082 41.3645 20.8004 32.2491 22.0931C27.6065 22.7675 24.1528 25.0156 22.3977 28.2191C24.3227 25.8024 27.38 24.0602 31.2866 23.5543Z" fill="#CD8D21"/>
<path fill-rule="evenodd" clip-rule="evenodd" d="M35.9056 27.6811C36.2013 27.5184 36.5304 27.469 36.8932 27.5329C37.2559 27.5968 37.5394 27.8078 37.762 28.0618C37.9846 28.3158 38.0853 28.6557 38.0305 28.9683C37.9757 29.2808 37.8264 29.523 37.5308 29.6857L36.7567 30.14L39.7844 33.8952C41.7504 33.6508 43.7713 34.0069 45.5455 34.8564C47.3197 35.7059 48.6917 37.0215 49.3871 38.5401C50.0825 40.0588 50.1195 41.6762 49.5255 43.2362C48.8888 44.7349 47.6913 46.0812 46.0822 47.0328C44.5249 47.9935 42.626 48.4644 40.8185 48.4145C39.011 48.3646 37.3039 47.7417 35.9472 46.6435C34.5905 45.5454 33.6879 43.9902 33.4009 42.2751C33.0621 40.5508 33.4335 38.7368 34.3384 37.2316L31.3107 33.4764L30.5884 33.9398C30.3446 34.1117 30.0154 34.1611 29.6527 34.0972C29.3418 34.0424 28.9973 33.8743 28.7838 33.5682C28.5613 33.3142 28.4606 32.9743 28.5154 32.6618C28.5702 32.3493 28.7286 32.055 28.9724 31.8831L35.9056 27.6811Z" fill="#ECB72B"/>
<path d="M10.4151 16.6798C10.9207 18.7877 12.6398 20.3938 14.6622 20.8957C15.37 21.0964 15.37 22.1002 14.6622 22.2006C12.5387 22.7025 10.9207 24.4089 10.4151 26.4165C10.2129 27.1191 9.20169 27.1191 9.10057 26.4165C8.59497 24.3086 6.87592 22.7025 4.85351 22.2006C4.14567 21.9998 4.14567 20.9961 4.85351 20.8957C6.97704 20.3938 8.59497 18.6874 9.10057 16.6798C9.20169 15.9771 10.2129 15.9771 10.4151 16.6798Z" fill="white"/>
<path d="M22.8529 4.63434C23.1562 5.83888 24.1674 6.84267 25.3809 7.1438C25.7854 7.24418 25.7854 7.84645 25.3809 7.94683C24.1674 8.24796 23.1562 9.25175 22.8529 10.4563C22.7517 10.8578 22.145 10.8578 22.0439 10.4563C21.7405 9.25175 20.7293 8.24796 19.5159 7.94683C19.1114 7.84645 19.1114 7.24418 19.5159 7.1438C20.7293 6.84267 21.7405 5.83888 22.0439 4.63434C22.145 4.23283 22.7517 4.23283 22.8529 4.63434Z" fill="white"/>
</svg>
