<svg width="15" height="14" viewBox="0 0 15 14" fill="none" xmlns="http://www.w3.org/2000/svg">
<mask id="mask0_2128_10026" style="mask-type:luminance" maskUnits="userSpaceOnUse" x="3" y="5" width="2" height="5">
<path d="M3.9459 6.9368L4.52559 5.79028C4.17068 6.50967 4.15885 7.38642 4.58475 8.28565L4.00505 9.43217C3.57916 8.5217 3.59099 7.64495 3.9459 6.9368Z" fill="white"/>
</mask>
<g mask="url(#mask0_2128_10026)">
<path d="M4.58475 8.28565L4.00505 9.43217C3.57916 8.53294 3.59099 7.65619 3.9459 6.9368L4.52559 5.79028C4.17068 6.49843 4.15885 7.37518 4.58475 8.28565Z" fill="#D8D145"/>
</g>
<mask id="mask1_2128_10026" style="mask-type:luminance" maskUnits="userSpaceOnUse" x="4" y="8" width="10" height="5">
<path d="M13.0436 9.64574L12.4639 10.7923C12.038 11.6353 11.1389 12.2423 9.88488 12.4109C7.5661 12.7256 4.93974 11.3768 4.00513 9.42093L4.58482 8.27441C5.5076 10.2415 8.1458 11.5791 10.4646 11.2644C11.7186 11.107 12.6177 10.4888 13.0436 9.64574Z" fill="white"/>
</mask>
<g mask="url(#mask1_2128_10026)">
<path d="M11.9789 10.7698C11.553 11.0171 11.0443 11.1969 10.4646 11.2756C10.0387 11.3318 9.58911 11.3318 9.15138 11.2868L8.57169 12.4334C9.00941 12.4783 9.44714 12.4783 9.88487 12.4221C10.4764 12.3434 10.9851 12.1636 11.3992 11.9163C11.8724 11.6353 12.2391 11.2531 12.4639 10.8035L13.0436 9.65698C12.8188 10.0954 12.4521 10.4775 11.9789 10.7698Z" fill="#CD8D21"/>
<path d="M6.97458 10.6124C5.92167 10.0729 5.04621 9.25233 4.58482 8.27441L4.00513 9.42093C4.46652 10.3876 5.34197 11.2082 6.39489 11.7589C7.06922 12.1074 7.82638 12.3434 8.5717 12.4221L9.15139 11.2756C8.39424 11.1969 7.64892 10.9609 6.97458 10.6124Z" fill="#D4A21F"/>
</g>
<path d="M12.9844 7.16156C12.0616 5.19449 9.42342 3.85689 7.10465 4.17162C4.78587 4.48635 3.65014 6.31853 4.58475 8.2856C5.50753 10.2527 8.14573 11.5903 10.4645 11.2755C12.7833 10.9608 13.9072 9.11739 12.9844 7.16156ZM10.1569 10.6348C8.2522 10.8934 6.08722 9.79181 5.33007 8.1732C4.57292 6.56582 5.50753 5.05961 7.40041 4.80108C9.30512 4.54255 11.4701 5.64411 12.2272 7.26273C12.9962 8.8701 12.0616 10.3876 10.1569 10.6348Z" fill="#E1DB4A"/>
<path d="M7.10475 4.17163L7.40051 4.80109C5.50763 5.05962 4.57302 6.56583 5.33018 8.18445L4.58485 8.28561C3.66208 6.31855 4.78597 4.47512 7.10475 4.17163Z" fill="white"/>
<path d="M7.40051 4.80104C9.30521 4.54251 11.4702 5.64407 12.2273 7.26269C12.9845 8.87006 12.0617 10.3875 10.157 10.646C8.2523 10.9046 6.08732 9.80301 5.33017 8.1844C4.57302 6.56578 5.50763 5.05957 7.40051 4.80104Z" fill="#E7C825"/>
<path d="M7.19931 5.09329C9.10401 4.83476 11.269 5.93632 12.0261 7.55494C12.3929 8.34176 12.3692 9.10611 12.0143 9.71309C12.5467 9.07239 12.665 8.1844 12.2273 7.26269C11.4701 5.64407 9.30513 4.54251 7.40042 4.80104C6.43032 4.93593 5.70866 5.38554 5.34192 6.02624C5.74416 5.54291 6.383 5.19446 7.19931 5.09329Z" fill="#CD8D21"/>
<path fill-rule="evenodd" clip-rule="evenodd" d="M8.16447 5.91868C8.22624 5.88613 8.29502 5.87625 8.37082 5.88903C8.44661 5.90181 8.50586 5.94402 8.55237 5.99482C8.59887 6.04562 8.61991 6.1136 8.60846 6.17611C8.59702 6.23862 8.56582 6.28705 8.50405 6.3196L8.3423 6.41046L8.97496 7.1615C9.38575 7.11263 9.80805 7.18383 10.1788 7.35373C10.5495 7.52364 10.8362 7.78676 10.9815 8.09049C11.1268 8.39421 11.1345 8.7177 11.0104 9.02969C10.8774 9.32945 10.6271 9.5987 10.2909 9.78901C9.9655 9.98115 9.56873 10.0753 9.19104 10.0654C8.81334 10.0554 8.45664 9.93079 8.17315 9.71116C7.88967 9.49153 7.70106 9.18051 7.64109 8.83747C7.5703 8.49261 7.6479 8.12982 7.83698 7.82878L7.20432 7.07774L7.0534 7.17042C7.00246 7.20479 6.93367 7.21467 6.85788 7.20189C6.79291 7.19094 6.72093 7.15732 6.67633 7.09611C6.62982 7.04531 6.60878 6.97732 6.62023 6.91482C6.63168 6.85231 6.66478 6.79345 6.71572 6.75909L8.16447 5.91868Z" fill="#ECB72B"/>
<path d="M2.83806 3.71843C2.94371 4.14002 3.30291 4.46124 3.72551 4.56161C3.87341 4.60177 3.87341 4.80252 3.72551 4.8226C3.28178 4.92298 2.94371 5.26426 2.83806 5.66578C2.7958 5.80631 2.58451 5.80631 2.56338 5.66578C2.45773 5.24419 2.09853 4.92298 1.67593 4.8226C1.52803 4.78245 1.52803 4.58169 1.67593 4.56161C2.11966 4.46124 2.45773 4.11995 2.56338 3.71843C2.58451 3.5779 2.7958 3.5779 2.83806 3.71843Z" fill="white"/>
<path d="M5.437 1.30925C5.50039 1.55016 5.71168 1.75092 5.96524 1.81114C6.04976 1.83122 6.04976 1.95167 5.96524 1.97175C5.71168 2.03198 5.50039 2.23273 5.437 2.47364C5.41587 2.55394 5.28909 2.55394 5.26796 2.47364C5.20457 2.23273 4.99327 2.03198 4.73972 1.97175C4.6552 1.95167 4.6552 1.83122 4.73972 1.81114C4.99327 1.75092 5.20457 1.55016 5.26796 1.30925C5.28909 1.22895 5.41587 1.22895 5.437 1.30925Z" fill="white"/>
</svg>
