<svg width="28" height="13" viewBox="0 0 28 13" fill="none" xmlns="http://www.w3.org/2000/svg">
<path d="M6.74858 0.666667L7.83828 0H19.825L20.9148 0.666667L21.6412 0H26L23.8206 1.33333L24.5471 2L23.8206 2.66667L24.1839 10L24.5471 10.6667L23.8206 11.6667L25.6368 13H22.0045L20.5515 12.3333L19.0986 13H7.83828L6.38534 12.3333L4.9324 13H1.66328L3.47946 11.6667L2.75299 10.6667L3.11623 10.3333V2.66667L2.75299 2L3.47946 1.33333L1.30005 0H5.29564L6.74858 0.666667Z" fill="#EAD0A5"/>
<g filter="url(#filter0_ii_2124_2158)">
<path d="M0 0H5.35528L6.43472 0.646773L7.51417 0L19.7858 0.000244264L20.8653 0.647017L21.9447 0.000244264H27.3L24.3778 1.75113L23.7878 2.10506L22.9525 2.60511L21.5273 1.75113L22.9525 0.897143L23.5436 1.25126L22.9532 1.60499L22.708 1.75113L22.7065 1.75282L22.9519 1.89987L24.4279 1.01555L24.4263 1.01462L25.2844 0.500496H22.2906L20.8653 1.35448L19.44 0.500496L7.86 0.500252L6.43472 1.35424L5.00945 0.500252H2.01565L2.8737 1.01437L2.87215 1.0153L4.34808 1.89963L4.59351 1.75257L4.59134 1.75127L4.34745 1.60436L3.75644 1.25102L4.34745 0.896899L5.77273 1.75088L4.34745 2.60487L3.51254 2.10461L2.92184 1.75108L0 0Z" fill="url(#paint0_linear_2124_2158)"/>
<path d="M2.67641 1.89814L1.87854 2.3762L2.57327 2.79246V10.2073L1.87854 10.6236L2.67641 11.1016L3.26677 10.7479L3.05928 10.6236L3.80773 10.1751L3.40818 9.93571V3.06404L3.80773 2.82465L3.05928 2.3762L3.26677 2.25187L2.67641 1.89814Z" fill="url(#paint1_linear_2124_2158)"/>
<path d="M0 12.9998H5.35528L6.43472 12.353L7.51417 12.9998L19.7858 13L20.8653 12.3532L21.9447 13H27.3L24.3778 11.2491L23.7878 10.8952L22.9525 10.3951L21.5273 11.2491L22.9525 12.1031L23.5436 11.749L22.9532 11.3953L22.708 11.2491L22.7065 11.2474L22.9519 11.1004L24.4279 11.9847L24.4263 11.9856L25.2844 12.4997H22.2906L20.8653 11.6458L19.44 12.4997L7.86 12.4995L6.43472 11.6455L5.00945 12.4995H2.01565L2.8737 11.9854L2.87215 11.9845L4.34808 11.1001L4.59351 11.2472L4.59134 11.2485L4.34745 11.3954L3.75644 11.7487L4.34745 12.1029L5.77273 11.2489L4.34745 10.3949L3.51254 10.8951L2.92184 11.2487L0 12.9998Z" fill="url(#paint2_linear_2124_2158)"/>
<path d="M24.6236 1.89839L25.4215 2.37644L24.7267 2.7927V10.2075L25.4215 10.6238L24.6236 11.1019L24.0332 10.7481L24.2407 10.6238L23.4923 10.1754L23.8918 9.93596V3.06429L23.4923 2.82489L24.2407 2.37644L24.0332 2.25212L24.6236 1.89839Z" fill="url(#paint3_linear_2124_2158)"/>
</g>
<path d="M11.3264 4.65016C11.3055 5.15519 11.295 5.69608 11.295 6.27283C11.295 6.85258 11.3055 7.39496 11.3264 7.89999H9.72164L8.63687 5.45253L8.71756 7.89999H7.56555C7.58945 7.32025 7.60141 6.77787 7.60141 6.27283C7.60141 5.77079 7.58945 5.2299 7.56555 4.65016H9.21512L10.3044 7.16486L10.2282 4.65016H11.3264ZM12.7426 7.07969C13.8782 7.07371 14.7015 7.05728 15.2125 7.03038C15.1916 7.15291 15.1781 7.27991 15.1722 7.4114C15.1692 7.5399 15.1677 7.70276 15.1677 7.89999H11.6847C11.7087 7.32025 11.7206 6.77787 11.7206 6.27283C11.7206 5.7678 11.7087 5.22542 11.6847 4.64568H15.1677V5.45701H12.7426V5.88734C12.8861 5.89033 13.0982 5.89182 13.3791 5.89182C13.8543 5.89182 14.3459 5.88285 14.8539 5.86492V6.63592C14.3459 6.61799 13.8543 6.60902 13.3791 6.60902C13.0982 6.60902 12.8861 6.61052 12.7426 6.61351V7.07969ZM18.5761 6.67626L18.8092 4.64568H19.9029L19.3023 7.89999H17.9261L17.6213 6.08457L17.2672 7.89999H15.9494L15.3487 4.64568H16.4424L16.671 6.64937L17.0296 4.64568H18.2265L18.5761 6.67626Z" fill="black"/>
<defs>
<filter id="filter0_ii_2124_2158" x="0" y="-0.280158" width="27.3" height="13.5043" filterUnits="userSpaceOnUse" color-interpolation-filters="sRGB">
<feFlood flood-opacity="0" result="BackgroundImageFix"/>
<feBlend mode="normal" in="SourceGraphic" in2="BackgroundImageFix" result="shape"/>
<feColorMatrix in="SourceAlpha" type="matrix" values="0 0 0 0 0 0 0 0 0 0 0 0 0 0 0 0 0 0 127 0" result="hardAlpha"/>
<feOffset dy="-0.280158"/>
<feGaussianBlur stdDeviation="0.280158"/>
<feComposite in2="hardAlpha" operator="arithmetic" k2="-1" k3="1"/>
<feColorMatrix type="matrix" values="0 0 0 0 0 0 0 0 0 0 0 0 0 0 0 0 0 0 0.3 0"/>
<feBlend mode="normal" in2="shape" result="effect1_innerShadow_2124_2158"/>
<feColorMatrix in="SourceAlpha" type="matrix" values="0 0 0 0 0 0 0 0 0 0 0 0 0 0 0 0 0 0 127 0" result="hardAlpha"/>
<feOffset dy="0.224127"/>
<feGaussianBlur stdDeviation="0.140079"/>
<feComposite in2="hardAlpha" operator="arithmetic" k2="-1" k3="1"/>
<feColorMatrix type="matrix" values="0 0 0 0 1 0 0 0 0 0.942623 0 0 0 0 0.854167 0 0 0 1 0"/>
<feBlend mode="normal" in2="effect1_innerShadow_2124_2158" result="effect2_innerShadow_2124_2158"/>
</filter>
<linearGradient id="paint0_linear_2124_2158" x1="56.6514" y1="0.0002445" x2="56.6514" y2="16.2584" gradientUnits="userSpaceOnUse">
<stop stop-color="#D5BA8F"/>
<stop offset="0.492201" stop-color="#E0C495"/>
<stop offset="0.505209" stop-color="#756346"/>
<stop offset="1" stop-color="#C4AB82"/>
</linearGradient>
<linearGradient id="paint1_linear_2124_2158" x1="56.6514" y1="0.0002445" x2="56.6514" y2="16.2584" gradientUnits="userSpaceOnUse">
<stop stop-color="#D5BA8F"/>
<stop offset="0.492201" stop-color="#E0C495"/>
<stop offset="0.505209" stop-color="#756346"/>
<stop offset="1" stop-color="#C4AB82"/>
</linearGradient>
<linearGradient id="paint2_linear_2124_2158" x1="56.6514" y1="0.0002445" x2="56.6514" y2="16.2584" gradientUnits="userSpaceOnUse">
<stop stop-color="#D5BA8F"/>
<stop offset="0.492201" stop-color="#E0C495"/>
<stop offset="0.505209" stop-color="#756346"/>
<stop offset="1" stop-color="#C4AB82"/>
</linearGradient>
<linearGradient id="paint3_linear_2124_2158" x1="56.6514" y1="0.0002445" x2="56.6514" y2="16.2584" gradientUnits="userSpaceOnUse">
<stop stop-color="#D5BA8F"/>
<stop offset="0.492201" stop-color="#E0C495"/>
<stop offset="0.505209" stop-color="#756346"/>
<stop offset="1" stop-color="#C4AB82"/>
</linearGradient>
</defs>
</svg>
