<svg width="19" height="18" viewBox="0 0 19 18" fill="none" xmlns="http://www.w3.org/2000/svg">
<mask id="mask0_2124_1835" style="mask-type:luminance" maskUnits="userSpaceOnUse" x="4" y="7" width="2" height="6">
<path d="M4.45709 9.07516L5.24382 7.48767C4.76215 8.48374 4.74609 9.6977 5.3241 10.9428L4.53737 12.5303C3.95937 11.2696 3.97542 10.0557 4.45709 9.07516Z" fill="white"/>
</mask>
<g mask="url(#mask0_2124_1835)">
<path d="M5.3241 10.9428L4.53737 12.5303C3.95937 11.2852 3.97542 10.0712 4.45709 9.07516L5.24382 7.48767C4.76215 8.46818 4.74609 9.68214 5.3241 10.9428Z" fill="#D8D145"/>
</g>
<mask id="mask1_2124_1835" style="mask-type:luminance" maskUnits="userSpaceOnUse" x="4" y="10" width="13" height="7">
<path d="M16.804 12.8259L16.0173 14.4134C15.4393 15.5807 14.219 16.4211 12.5171 16.6546C9.37023 17.0904 5.80587 15.2227 4.53748 12.5147L5.3242 10.9272C6.57654 13.6508 10.157 15.5029 13.3039 15.0671C15.0058 14.8492 16.226 13.9932 16.804 12.8259Z" fill="white"/>
</mask>
<g mask="url(#mask1_2124_1835)">
<path d="M15.359 14.3823C14.781 14.7247 14.0906 14.9737 13.3039 15.0827C12.7259 15.1605 12.1158 15.1605 11.5217 15.0982L10.735 16.6857C11.329 16.748 11.9231 16.748 12.5172 16.6701C13.3199 16.5612 14.0103 16.3122 14.5723 15.9698C15.2145 15.5807 15.7122 15.0515 16.0173 14.429L16.804 12.8415C16.499 13.4485 16.0012 13.9776 15.359 14.3823Z" fill="#CD8D21"/>
<path d="M8.56745 14.1644C7.13849 13.4174 5.95037 12.2812 5.3242 10.9272L4.53748 12.5147C5.16365 13.8531 6.35177 14.9893 7.78072 15.7519C8.69589 16.2344 9.72346 16.5612 10.735 16.6702L11.5217 15.0827C10.4941 14.9737 9.48262 14.6469 8.56745 14.1644Z" fill="#D4A21F"/>
</g>
<path d="M16.7236 9.38644C15.4712 6.66281 11.8908 4.81074 8.7439 5.24652C5.59699 5.6823 4.05565 8.21917 5.32404 10.9428C6.57639 13.6664 10.1568 15.5185 13.3037 15.0827C16.4506 14.6469 17.9759 12.0945 16.7236 9.38644ZM12.8863 14.1956C10.3013 14.5536 7.36311 13.0283 6.33555 10.7872C5.30799 8.56157 6.57639 6.47604 9.14529 6.11808C11.7303 5.76012 14.6684 7.28535 15.696 9.52651C16.7396 11.7521 15.4712 13.8532 12.8863 14.1956Z" fill="#E1DB4A"/>
<path d="M8.74409 5.24658L9.14548 6.11814C6.57657 6.47611 5.30817 8.56163 6.33574 10.8028L5.32423 10.9429C4.07189 8.21923 5.59718 5.6668 8.74409 5.24658Z" fill="white"/>
<path d="M9.14547 6.11812C11.7304 5.76016 14.6686 7.28539 15.6962 9.52655C16.7237 11.7521 15.4714 13.8532 12.8864 14.2112C10.3015 14.5692 7.36329 13.0439 6.33573 10.8028C5.30817 8.56161 6.57657 6.47608 9.14547 6.11812Z" fill="#E7C825"/>
<path d="M8.87242 6.52271C11.4574 6.16475 14.3956 7.68999 15.4231 9.93115C15.9209 11.0206 15.8887 12.0789 15.4071 12.9194C16.1296 12.0322 16.2901 10.8027 15.6961 9.52649C14.6685 7.28533 11.7303 5.7601 9.14537 6.11806C7.82881 6.30482 6.84941 6.92737 6.35168 7.81449C6.89758 7.14526 7.76458 6.66279 8.87242 6.52271Z" fill="#CD8D21"/>
<path fill-rule="evenodd" clip-rule="evenodd" d="M10.1824 7.66547C10.2662 7.62042 10.3595 7.60673 10.4624 7.62443C10.5653 7.64212 10.6457 7.70057 10.7088 7.7709C10.7719 7.84124 10.8005 7.93537 10.7849 8.02192C10.7694 8.10847 10.727 8.17553 10.6432 8.22059L10.4237 8.3464L11.2823 9.3863C11.8398 9.31864 12.4129 9.41722 12.9161 9.65247C13.4192 9.88772 13.8083 10.2521 14.0054 10.6726C14.2026 11.0931 14.2131 11.541 14.0447 11.973C13.8642 12.3881 13.5246 12.7609 13.0682 13.0244C12.6266 13.2904 12.0881 13.4209 11.5756 13.407C11.063 13.3932 10.5789 13.2207 10.1941 12.9166C9.80941 12.6125 9.55344 12.1819 9.47206 11.7069C9.37598 11.2294 9.4813 10.7271 9.73791 10.3102L8.8793 9.27033L8.67448 9.39866C8.60534 9.44625 8.51199 9.45993 8.40912 9.44224C8.32095 9.42707 8.22327 9.38052 8.16274 9.29576C8.09962 9.22542 8.07107 9.13129 8.0866 9.04474C8.10214 8.9582 8.14706 8.87671 8.2162 8.82912L10.1824 7.66547Z" fill="#ECB72B"/>
<path d="M2.95355 4.61896C3.09693 5.2027 3.58442 5.64745 4.15794 5.78644C4.35867 5.84203 4.35867 6.12 4.15794 6.1478C3.55575 6.28678 3.09693 6.75934 2.95355 7.31528C2.8962 7.50986 2.60944 7.50986 2.58077 7.31528C2.43739 6.73154 1.9499 6.28678 1.37638 6.1478C1.17565 6.0922 1.17565 5.81423 1.37638 5.78644C1.97857 5.64745 2.43739 5.1749 2.58077 4.61896C2.60944 4.42438 2.8962 4.42438 2.95355 4.61896Z" fill="white"/>
<path d="M6.4807 1.28334C6.56673 1.61691 6.85349 1.89488 7.1976 1.97827C7.3123 2.00607 7.3123 2.17285 7.1976 2.20065C6.85349 2.28404 6.56673 2.56201 6.4807 2.89557C6.45202 3.00676 6.27997 3.00676 6.25129 2.89557C6.16526 2.56201 5.8785 2.28404 5.53439 2.20065C5.41969 2.17285 5.41969 2.00607 5.53439 1.97827C5.8785 1.89488 6.16526 1.61691 6.25129 1.28334C6.27997 1.17215 6.45202 1.17215 6.4807 1.28334Z" fill="white"/>
</svg>
