<svg width="14" height="15" viewBox="0 0 14 15" fill="none" xmlns="http://www.w3.org/2000/svg">
<mask id="mask0_104_24917" style="mask-type:luminance" maskUnits="userSpaceOnUse" x="3" y="6" width="1" height="5">
<path d="M3.28413 7.55847L3.86382 6.32376C3.50891 7.09848 3.49708 8.04268 3.92297 9.01108L3.34328 10.2458C2.91738 9.26528 2.92921 8.32109 3.28413 7.55847Z" fill="white"/>
</mask>
<g mask="url(#mask0_104_24917)">
<path d="M3.92297 9.01108L3.34328 10.2458C2.91738 9.27739 2.92921 8.3332 3.28413 7.55847L3.86382 6.32376C3.50891 7.08638 3.49708 8.03057 3.92297 9.01108Z" fill="#D8D145"/>
</g>
<mask id="mask1_104_24917" style="mask-type:luminance" maskUnits="userSpaceOnUse" x="3" y="8" width="10" height="6">
<path d="M12.3819 10.4757L11.8022 11.7105C11.3763 12.6183 10.4772 13.272 9.22314 13.4536C6.90436 13.7925 4.27799 12.3399 3.34338 10.2336L3.92308 8.99893C4.84586 11.1173 7.48406 12.5578 9.80283 12.2189C11.0569 12.0494 11.956 11.3836 12.3819 10.4757Z" fill="white"/>
</mask>
<g mask="url(#mask1_104_24917)">
<path d="M11.3171 11.6863C10.8912 11.9526 10.3825 12.1462 9.80279 12.231C9.37689 12.2915 8.92733 12.2915 8.48961 12.2431L7.90991 13.4778C8.34764 13.5262 8.78537 13.5262 9.2231 13.4657C9.81462 13.381 10.3233 13.1873 10.7374 12.921C11.2106 12.6183 11.5774 12.2068 11.8021 11.7226L12.3818 10.4879C12.1571 10.96 11.7903 11.3715 11.3171 11.6863Z" fill="#CD8D21"/>
<path d="M6.31284 11.5168C5.25992 10.9357 4.38447 10.0521 3.92308 8.99893L3.34338 10.2336C3.80477 11.2747 4.68023 12.1583 5.73314 12.7515C6.40748 13.1267 7.16463 13.381 7.90995 13.4657L8.48965 12.231C7.7325 12.1462 6.98718 11.892 6.31284 11.5168Z" fill="#D4A21F"/>
</g>
<path d="M12.3226 7.80061C11.3998 5.68222 8.76159 4.24173 6.44281 4.58067C4.12403 4.91961 2.98831 6.89273 3.92292 9.01111C4.84569 11.1295 7.48389 12.57 9.80267 12.231C12.1214 11.8921 13.2453 9.90688 12.3226 7.80061ZM9.49508 11.5411C7.59037 11.8195 5.42539 10.6332 4.66824 8.89006C3.91109 7.15904 4.84569 5.53696 6.73857 5.25855C8.64328 4.98013 10.8083 6.16643 11.5654 7.90955C12.3344 9.64057 11.3998 11.2747 9.49508 11.5411Z" fill="#E1DB4A"/>
<path d="M6.44291 4.58072L6.73868 5.2586C4.8458 5.53702 3.91119 7.15909 4.66834 8.90222L3.92302 9.01116C3.00024 6.89278 4.12414 4.90755 6.44291 4.58072Z" fill="white"/>
<path d="M6.73876 5.25856C8.64347 4.98014 10.8085 6.16643 11.5656 7.90956C12.3228 9.64058 11.4 11.2748 9.49527 11.5532C7.59056 11.8316 5.42558 10.6453 4.66843 8.90217C3.91128 7.15905 4.84588 5.53697 6.73876 5.25856Z" fill="#E7C825"/>
<path d="M6.53756 5.57326C8.44227 5.29484 10.6073 6.48113 11.3644 8.22426C11.7311 9.07161 11.7075 9.89475 11.3526 10.5484C11.8849 9.85844 12.0032 8.90214 11.5655 7.90953C10.8084 6.1664 8.64339 4.98011 6.73868 5.25853C5.76858 5.40379 5.04692 5.88799 4.68018 6.57797C5.08241 6.05746 5.72126 5.6822 6.53756 5.57326Z" fill="#CD8D21"/>
<path fill-rule="evenodd" clip-rule="evenodd" d="M7.50275 6.4621C7.56452 6.42706 7.63331 6.41642 7.7091 6.43018C7.7849 6.44394 7.84414 6.4894 7.89065 6.5441C7.93716 6.59881 7.9582 6.67202 7.94675 6.73934C7.9353 6.80665 7.90411 6.85882 7.84234 6.89386L7.68059 6.99171L8.31325 7.80052C8.72404 7.7479 9.14633 7.82458 9.51706 8.00755C9.88779 8.19052 10.1745 8.47389 10.3198 8.80098C10.4651 9.12806 10.4728 9.47643 10.3487 9.81243C10.2157 10.1352 9.96543 10.4252 9.62919 10.6302C9.30378 10.8371 8.90701 10.9385 8.52932 10.9278C8.15163 10.917 7.79493 10.7828 7.51144 10.5463C7.22796 10.3098 7.03934 9.97484 6.97938 9.60542C6.90859 9.23404 6.98619 8.84333 7.17527 8.51913L6.54261 7.71032L6.39169 7.81014C6.34075 7.84715 6.27196 7.85779 6.19617 7.84403C6.1312 7.83223 6.05922 7.79603 6.01462 7.7301C5.96811 7.6754 5.94707 7.60218 5.95852 7.53487C5.96997 7.46755 6.00307 7.40417 6.05401 7.36716L7.50275 6.4621Z" fill="#ECB72B"/>
<path d="M2.17626 4.09257C2.28191 4.54659 2.64111 4.89251 3.0637 5.00061C3.21161 5.04385 3.21161 5.26005 3.0637 5.28167C2.61998 5.38977 2.28191 5.75731 2.17626 6.18971C2.134 6.34105 1.9227 6.34105 1.90157 6.18971C1.79592 5.73569 1.43672 5.38977 1.01413 5.28167C0.866221 5.23843 0.866221 5.02223 1.01413 5.00061C1.45785 4.89251 1.79592 4.52497 1.90157 4.09257C1.9227 3.94123 2.134 3.94123 2.17626 4.09257Z" fill="white"/>
<path d="M4.77519 1.49818C4.83858 1.75762 5.04988 1.97382 5.30343 2.03868C5.38795 2.0603 5.38795 2.19002 5.30343 2.21164C5.04988 2.2765 4.83858 2.4927 4.77519 2.75214C4.75406 2.83862 4.62729 2.83862 4.60616 2.75214C4.54277 2.4927 4.33147 2.2765 4.07792 2.21164C3.9934 2.19002 3.9934 2.0603 4.07792 2.03868C4.33147 1.97382 4.54277 1.75762 4.60616 1.49818C4.62729 1.4117 4.75406 1.4117 4.77519 1.49818Z" fill="white"/>
</svg>
