<svg width="21" height="21" viewBox="0 0 21 21" fill="none" xmlns="http://www.w3.org/2000/svg">
<mask id="mask0_2218_3339" style="mask-type:luminance" maskUnits="userSpaceOnUse" x="4" y="8" width="2" height="7">
<path d="M4.92619 10.5878L5.79573 8.73572C5.26336 9.8978 5.24561 11.3141 5.88446 12.7667L5.01492 14.6188C4.37607 13.148 4.39382 11.7317 4.92619 10.5878Z" fill="white"/>
</mask>
<g mask="url(#mask0_2218_3339)">
<path d="M5.88446 12.7667L5.01492 14.6188C4.37607 13.1662 4.39382 11.7499 4.92619 10.5878L5.79573 8.73572C5.26336 9.87964 5.24561 11.2959 5.88446 12.7667Z" fill="#D8D145"/>
</g>
<mask id="mask1_2218_3339" style="mask-type:luminance" maskUnits="userSpaceOnUse" x="5" y="12" width="14" height="8">
<path d="M18.5728 14.9638L17.7032 16.8158C17.0644 18.1776 15.7157 19.1582 13.8346 19.4305C10.3565 19.9389 6.41693 17.76 5.01501 14.6006L5.88456 12.7485C7.26872 15.9261 11.226 18.0869 14.7042 17.5784C16.5852 17.3242 17.9339 16.3256 18.5728 14.9638Z" fill="white"/>
</mask>
<g mask="url(#mask1_2218_3339)">
<path d="M16.9756 16.7795C16.3368 17.179 15.5737 17.4695 14.7042 17.5966C14.0653 17.6874 13.391 17.6874 12.7344 17.6148L11.8649 19.4668C12.5215 19.5395 13.1781 19.5395 13.8346 19.4487C14.7219 19.3216 15.485 19.0311 16.1061 18.6316C16.8159 18.1777 17.366 17.5603 17.7032 16.834L18.5728 14.9819C18.2356 15.6901 17.6855 16.3074 16.9756 16.7795Z" fill="#CD8D21"/>
<path d="M9.46919 16.5253C7.88982 15.6537 6.57664 14.3282 5.88456 12.7485L5.01501 14.6006C5.7071 16.1622 7.02028 17.4877 8.59965 18.3774C9.61116 18.9403 10.7469 19.3216 11.8649 19.4487L12.7344 17.5966C11.5987 17.4695 10.4807 17.0882 9.46919 16.5253Z" fill="#D4A21F"/>
</g>
<path d="M18.4839 10.9509C17.0997 7.77334 13.1424 5.61259 9.66428 6.121C6.18611 6.62941 4.48252 9.58909 5.88443 12.7667C7.2686 15.9442 11.2259 18.105 14.7041 17.5966C18.1822 17.0882 19.8681 14.1103 18.4839 10.9509ZM14.2427 16.5616C11.3856 16.9792 8.13814 15.1998 7.00242 12.5851C5.86669 9.98856 7.2686 7.55545 10.1079 7.13782C12.965 6.7202 16.2125 8.49964 17.3482 11.1143C18.5017 13.7109 17.0997 16.1621 14.2427 16.5616Z" fill="#E1DB4A"/>
<path d="M9.66443 6.12109L10.1081 7.13792C7.26876 7.55554 5.86685 9.98865 7.00257 12.6033L5.88459 12.7668C4.50042 9.58919 6.18627 6.61135 9.66443 6.12109Z" fill="white"/>
<path d="M10.1081 7.13779C12.9651 6.72016 16.2126 8.4996 17.3483 11.1143C18.4841 13.7108 17.0999 16.1621 14.2428 16.5797C11.3858 16.9973 8.13831 15.2179 7.00258 12.6032C5.86685 9.98852 7.26877 7.55541 10.1081 7.13779Z" fill="#E7C825"/>
<path d="M9.80628 7.60988C12.6633 7.19226 15.9108 8.9717 17.0465 11.5864C17.5967 12.8574 17.5612 14.0921 17.0288 15.0726C17.8274 14.0377 18.0048 12.6032 17.3482 11.1143C16.2125 8.4996 12.965 6.72016 10.108 7.13779C8.65281 7.35568 7.57032 8.08198 7.0202 9.11696C7.62356 8.33619 8.58183 7.7733 9.80628 7.60988Z" fill="#CD8D21"/>
<path fill-rule="evenodd" clip-rule="evenodd" d="M11.2541 8.94309C11.3467 8.89052 11.4499 8.87456 11.5636 8.89521C11.6773 8.91585 11.7662 8.98403 11.8359 9.06609C11.9057 9.14816 11.9372 9.25797 11.9201 9.35895C11.9029 9.45992 11.8561 9.53816 11.7634 9.59073L11.5208 9.73751L12.4698 10.9507C13.086 10.8718 13.7194 10.9868 14.2755 11.2613C14.8316 11.5357 15.2616 11.9608 15.4796 12.4514C15.6975 12.942 15.7091 13.4646 15.523 13.9686C15.3234 14.4528 14.9481 14.8877 14.4437 15.1952C13.9556 15.5056 13.3605 15.6577 12.7939 15.6416C12.2274 15.6255 11.6923 15.4242 11.2671 15.0694C10.8419 14.7146 10.559 14.2122 10.469 13.6581C10.3628 13.101 10.4792 12.5149 10.7628 12.0286L9.81385 10.8154L9.58747 10.9651C9.51106 11.0207 9.40788 11.0366 9.29419 11.016C9.19673 10.9983 9.08877 10.944 9.02186 10.8451C8.9521 10.763 8.92055 10.6532 8.93772 10.5522C8.95489 10.4513 9.00454 10.3562 9.08096 10.3007L11.2541 8.94309Z" fill="#ECB72B"/>
<path d="M3.26445 5.38889C3.42292 6.06991 3.96173 6.58879 4.59561 6.75094C4.81748 6.8158 4.81748 7.1401 4.59561 7.17253C3.93003 7.33468 3.42292 7.88599 3.26445 8.53459C3.20106 8.7616 2.88411 8.7616 2.85242 8.53459C2.69395 7.85356 2.15514 7.33468 1.52125 7.17253C1.29939 7.10767 1.29939 6.78337 1.52125 6.75094C2.18684 6.58879 2.69395 6.03748 2.85242 5.38889C2.88411 5.16188 3.20106 5.16188 3.26445 5.38889Z" fill="white"/>
<path d="M7.16285 1.49731C7.25794 1.88647 7.57488 2.21077 7.95521 2.30806C8.08199 2.34049 8.08199 2.53507 7.95521 2.5675C7.57488 2.66479 7.25794 2.98909 7.16285 3.37825C7.13116 3.50797 6.94099 3.50797 6.9093 3.37825C6.81421 2.98909 6.49727 2.66479 6.11693 2.5675C5.99016 2.53507 5.99016 2.34049 6.11693 2.30806C6.49727 2.21077 6.81421 1.88647 6.9093 1.49731C6.94099 1.36759 7.13116 1.36759 7.16285 1.49731Z" fill="white"/>
</svg>
