<svg width="52" height="52" viewBox="0 0 52 52" fill="none" xmlns="http://www.w3.org/2000/svg">
<path d="M52 26C52 40.3594 40.3594 52 26 52C11.6406 52 0 40.3594 0 26C0 11.6406 11.6406 0 26 0C40.3594 0 52 11.6406 52 26ZM4.12949 26C4.12949 38.0787 13.9213 47.8705 26 47.8705C38.0787 47.8705 47.8705 38.0787 47.8705 26C47.8705 13.9213 38.0787 4.12949 26 4.12949C13.9213 4.12949 4.12949 13.9213 4.12949 26Z" fill="#CCCCCC"/>
<path d="M26 52C22.0131 52 18.0795 51.0831 14.5035 49.3202C10.9275 47.5573 7.80487 44.9956 5.37696 41.8332C2.94904 38.6708 1.28092 34.9924 0.501576 31.0824C-0.277771 27.1723 -0.147468 23.1355 0.88241 19.2838C1.91229 15.4322 3.81415 11.8691 6.44095 8.8698C9.06776 5.87055 12.3491 3.51557 16.0314 1.98695C19.7136 0.458327 23.6981 -0.202992 27.6767 0.0541214C31.6553 0.311235 35.5216 1.47989 38.9764 3.46974L36.9154 7.04815C34.0093 5.37434 30.7571 4.3913 27.4104 4.17502C24.0637 3.95874 20.7121 4.51503 17.6147 5.80086C14.5173 7.0867 11.757 9.06764 9.54745 11.5905C7.33786 14.1134 5.73806 17.1107 4.87175 20.3506C4.00545 23.5904 3.89584 26.9861 4.55141 30.2751C5.20697 33.5641 6.61015 36.6583 8.65244 39.3185C10.6947 41.9786 13.3215 44.1334 16.3295 45.6163C19.3375 47.0992 22.6463 47.8705 26 47.8705V52Z" fill="#DBAB4C"/>
</svg>
