<svg width="36" height="35" viewBox="0 0 36 35" fill="none" xmlns="http://www.w3.org/2000/svg">
<path d="M35.5 17.5001C35.5 27.1377 27.7222 35 17.9999 35C8.36227 35 0.5 27.1377 0.5 17.5001C0.5 11.0749 3.96614 5.41067 9.12314 2.36719C11.7439 0.845451 14.7874 0 17.9999 0C27.7222 0 35.5 7.86238 35.5 17.5001Z" fill="url(#paint0_linear_104_24956)"/>
<path d="M32.3719 17.5C32.3719 25.3623 25.9468 31.7874 18 31.7874C10.1377 31.7874 3.71252 25.3623 3.71252 17.5C3.71252 9.55317 10.1377 3.12805 18 3.12805C25.9468 3.12805 32.3719 9.55317 32.3719 17.5Z" fill="#FF008C"/>
<path d="M32.3719 17.5C32.3719 25.3623 25.9468 31.7874 18 31.7874C10.1377 31.7874 3.71252 25.3623 3.71252 17.5C3.71252 9.55317 10.1377 3.12805 18 3.12805C25.9468 3.12805 32.3719 9.55317 32.3719 17.5Z" fill="#CEB183"/>
<path d="M5.00003 19.0001C5.00003 11.0533 11.0532 5.00012 19 5.00012C22.9735 5.00012 27.9758 7.94683 30.5966 10.5676C28.1449 6.17147 23.4106 3.12805 18 3.12805C10.1377 3.12805 3.71252 9.55317 3.71252 17.5C3.71252 21.3889 5.31882 25.0241 7.85505 27.5603C6.75602 25.5313 5.00003 21.4518 5.00003 19.0001Z" fill="#AE8C55"/>
<path fill-rule="evenodd" clip-rule="evenodd" d="M32.8792 17.1619C32.8792 25.3623 26.1159 31.9565 17.6618 31.9565C9.29225 31.9565 2.52905 25.3623 2.52905 17.1619C2.52905 8.96137 9.29225 2.28265 17.6618 2.28265C26.1159 2.28265 32.8792 8.96137 32.8792 17.1619ZM32.372 17.5C32.372 9.55318 25.9469 3.12806 18 3.12806C10.1377 3.12806 3.71254 9.55318 3.71254 17.5C3.71254 25.3624 10.1377 31.7874 18 31.7874C25.9469 31.7874 32.372 25.3624 32.372 17.5Z" fill="white"/>
<path d="M27.2149 20.9662C26.6231 21.558 25.8623 21.8116 25.0168 21.8116H22.5651H14.6183H12.1666C10.3912 21.8116 9.03857 20.4589 9.03857 18.6835V16.9927C9.03857 16.1473 9.37672 15.3865 9.9685 14.7947C10.5603 14.2029 11.3211 13.8647 12.1666 13.8647H14.6183H22.5651H25.0168C25.8623 13.8647 26.6231 14.2029 27.2149 14.7947C27.8067 15.3865 28.1448 16.1473 28.1448 16.9927V18.6835C28.1448 19.529 27.8067 20.3744 27.2149 20.9662Z" fill="#AE8C55"/>
<path d="M19.8599 15.4711C19.0145 15.4711 15.041 15.4711 15.041 15.4711L10.9831 15.4711C10.1377 15.4711 9.4613 16.1474 9.4613 16.9928V18.6836C9.4613 19.529 10.1377 20.2899 10.9831 20.2899H15.041C15.7174 20.2897 16.9855 20.2897 17.8309 20.2897C17.8309 20.2897 18.6763 20.2897 19.8599 20.2899H23.8333C24.6787 20.2899 25.4396 19.529 25.4396 18.6836V16.9928C25.4396 16.1474 24.6787 15.4711 23.8333 15.4711H19.8599Z" fill="#EAD0A5"/>
<g style="mix-blend-mode:screen" opacity="0.5">
<path d="M10.6449 19.8668V18.176C10.6449 17.3306 11.3212 16.5697 12.1666 16.5697H15.2947C15.8019 16.5697 16.1401 16.2315 16.1401 15.7243C16.1401 15.7243 16.1401 16.0627 16.1401 15.4707H15.041H10.9831C10.1377 15.4707 9.4613 16.147 9.4613 16.9924V18.6832C9.4613 19.4441 9.96857 20.0359 10.6449 20.205C10.6449 20.0923 10.6449 19.9795 10.6449 19.8668Z" fill="white"/>
</g>
<defs>
<linearGradient id="paint0_linear_104_24956" x1="0.532971" y1="34.9856" x2="0.532971" y2="-0.011836" gradientUnits="userSpaceOnUse">
<stop stop-color="#957B52"/>
<stop offset="0.424" stop-color="#E7D7BD"/>
<stop offset="1" stop-color="#FDEDD1"/>
</linearGradient>
</defs>
</svg>
