<svg width="36" height="35" viewBox="0 0 36 35" fill="none" xmlns="http://www.w3.org/2000/svg">
<path d="M35.5 17.5001C35.5 27.1377 27.7222 35 17.9999 35C8.36227 35 0.5 27.1377 0.5 17.5001C0.5 11.0749 3.96614 5.41067 9.12314 2.36719C11.7439 0.845451 14.7874 0 17.9999 0C27.7222 0 35.5 7.86238 35.5 17.5001Z" fill="url(#paint0_linear_104_24944)"/>
<path d="M32.3719 17.5C32.3719 25.3623 25.9468 31.7874 18 31.7874C10.1377 31.7874 3.71252 25.3623 3.71252 17.5C3.71252 9.55317 10.1377 3.12805 18 3.12805C25.9468 3.12805 32.3719 9.55317 32.3719 17.5Z" fill="#EAD0A5"/>
<path d="M32.3719 17.5C32.3719 25.3623 25.9468 31.7874 18 31.7874C10.1377 31.7874 3.71252 25.3623 3.71252 17.5C3.71252 9.55317 10.1377 3.12805 18 3.12805C25.9468 3.12805 32.3719 9.55317 32.3719 17.5Z" fill="#CEB183"/>
<path d="M5.50003 19.0001C5.50003 11.0533 11.5532 5.50012 19.5 5.50012C23.4735 5.50012 27.9758 7.94683 30.5966 10.5676C28.1449 6.17147 23.4106 3.12805 18 3.12805C10.1377 3.12805 3.71252 9.55317 3.71252 17.5C3.71252 21.3889 5.31882 25.0241 7.85505 27.5603C6.75602 25.5313 5.50003 21.4518 5.50003 19.0001Z" fill="#AE8C55"/>
<path fill-rule="evenodd" clip-rule="evenodd" d="M32.8792 17.1619C32.8792 25.3623 26.1159 31.9565 17.6618 31.9565C9.29225 31.9565 2.52905 25.3623 2.52905 17.1619C2.52905 8.96137 9.29225 2.28265 17.6618 2.28265C26.1159 2.28265 32.8792 8.96137 32.8792 17.1619ZM32.372 17.5C32.372 9.55318 25.9469 3.12806 18 3.12806C10.1377 3.12806 3.71254 9.55318 3.71254 17.5C3.71254 25.3624 10.1377 31.7874 18 31.7874C25.9469 31.7874 32.372 25.3624 32.372 17.5Z" fill="white"/>
<path d="M27.2149 20.966C26.6231 21.5578 25.8623 21.8114 25.0168 21.8114H22.5651V24.2631C22.5651 25.1085 22.227 25.8694 21.6352 26.4612C21.0434 27.1375 20.2826 27.3911 19.4372 27.3911H17.7463C16.9009 27.3911 16.14 27.1375 15.5482 26.4612C14.8719 25.8694 14.6183 25.1085 14.6183 24.2631V21.8114H12.1666C10.3912 21.8114 9.03857 20.4587 9.03857 18.6833V16.9925C9.03857 16.1471 9.37672 15.3863 9.9685 14.7945C10.5603 14.2027 11.3211 13.8645 12.1666 13.8645H14.6183V11.4128C14.6183 10.652 14.8719 9.80657 15.5482 9.21478C16.14 8.62299 16.9009 8.28485 17.7463 8.28485H19.4372C21.128 8.28485 22.5651 9.72201 22.5651 11.4128V13.8645H25.0168C25.8623 13.8645 26.6231 14.2027 27.2149 14.7945C27.8067 15.3863 28.1448 16.1471 28.1448 16.9925V18.6833C28.1448 19.5287 27.8067 20.3742 27.2149 20.966Z" fill="#AE8C55"/>
<path d="M19.8599 15.471V11.413C19.8599 10.5676 19.099 9.89136 18.2536 9.89136H16.5628C15.7174 9.89136 15.041 10.5676 15.041 11.413V15.471H10.9831C10.1377 15.471 9.4613 16.1473 9.4613 16.9927V18.6835C9.4613 19.5289 10.1377 20.2898 10.9831 20.2898H15.041V24.2633C15.041 25.1087 15.7174 25.8695 16.5628 25.8695H18.2536C19.099 25.8695 19.8599 25.1087 19.8599 24.2633V20.2898H23.8333C24.6787 20.2898 25.4396 19.5289 25.4396 18.6835V16.9927C25.4396 16.1473 24.6787 15.471 23.8333 15.471H19.8599Z" fill="#EAD0A5"/>
<g style="mix-blend-mode:screen" opacity="0.5">
<path d="M10.6449 19.8667V18.1759C10.6449 17.3305 11.3212 16.5696 12.1666 16.5696H15.2947C15.8019 16.5696 16.1401 16.2314 16.1401 15.7242V12.5962C16.1401 11.7508 16.901 10.9899 17.7464 10.9899H19.4372C19.5499 11.0463 19.6625 11.0744 19.7753 11.0744C19.6062 10.3981 19.0145 9.89093 18.2536 9.89093H16.5628C15.7174 9.89093 15.041 10.5672 15.041 11.4126V15.4706H10.9831C10.1377 15.4706 9.4613 16.1469 9.4613 16.9923V18.6831C9.4613 19.444 9.96857 20.0358 10.6449 20.2049C10.6449 20.0922 10.6449 19.9794 10.6449 19.8667Z" fill="white"/>
</g>
<defs>
<linearGradient id="paint0_linear_104_24944" x1="0.532971" y1="34.9856" x2="0.532971" y2="-0.011836" gradientUnits="userSpaceOnUse">
<stop stop-color="#8D744B"/>
<stop offset="0.424" stop-color="#D4B787"/>
<stop offset="1" stop-color="#FFEFD5"/>
</linearGradient>
</defs>
</svg>
