<svg width="323" height="62" viewBox="0 0 323 62" fill="none" xmlns="http://www.w3.org/2000/svg">
<path d="M6.82888 44.904C3.56254 53.1787 0.659128 54.1223 0.00585938 54.1949H16.265C15.6117 54.1223 13.289 53.5416 13.289 50.4204C13.289 49.6946 13.5067 48.6784 14.0148 47.2267L15.5391 42.7264H34.0484C35.1372 45.775 36.6615 49.4042 36.6615 50.7834C36.6615 53.5416 34.5565 54.1223 33.9758 54.1949H53.5013C52.848 54.0497 49.6542 52.9609 46.6057 45.1217L30.6369 5.85303H22.0718L6.82888 44.904ZM17.9344 36.4115L24.6849 18.5555L31.5805 36.4115H17.9344Z" fill="url(#paint0_linear_51_20208)"/>
<path d="M7.18053 45.0428L7.18105 45.0414L22.3301 6.23108H30.3825L46.2533 45.2587C46.2537 45.2596 46.254 45.2605 46.2543 45.2614C48.297 50.5128 50.4255 52.8116 51.8646 53.8168H35.7417C35.754 53.8069 35.7662 53.7968 35.7784 53.7867C36.4645 53.215 37.0395 52.2734 37.0395 50.7834C37.0395 50.3845 36.932 49.8576 36.7708 49.2712C36.6073 48.6764 36.3793 47.9882 36.1196 47.2548C35.8597 46.5206 35.5659 45.7349 35.2701 44.9449L35.2432 44.8731C34.9557 44.1056 34.6673 43.3352 34.4044 42.5992L34.3148 42.3483H34.0484H15.5391H15.268L15.1811 42.6051L13.658 47.1018C13.6578 47.1024 13.6576 47.1029 13.6574 47.1035C13.1458 48.5655 12.9109 49.6298 12.9109 50.4204C12.9109 52.0888 13.5382 53.1234 14.292 53.7429C14.3228 53.7683 14.3538 53.7929 14.385 53.8168H1.67555C3.05745 52.7907 5.05646 50.4237 7.18053 45.0428ZM17.5808 36.2778L17.3874 36.7895H17.9344H31.5805H32.1317L31.9332 36.2753L25.0376 18.4193L24.6811 17.4963L24.3313 18.4218L17.5808 36.2778Z" stroke="url(#paint1_linear_51_20208)" stroke-opacity="0.75" stroke-width="0.756098" style="mix-blend-mode:screen"/>
<path d="M57.5524 45.1943C57.5524 53.3964 54.649 54.1223 54.2135 54.1949H87.2399L89.1997 41.6376C86.2962 46.8638 84.1913 47.517 77.4408 47.517H67.6418V14.0552C67.6418 6.65146 70.9081 5.92561 71.4162 5.85303H53.8506C54.5039 5.9982 57.5524 6.94181 57.5524 14.0552V45.1943Z" fill="url(#paint2_linear_51_20208)"/>
<path d="M67.2638 47.517V47.8951H67.6418H77.4408C80.808 47.8951 83.1042 47.7366 84.924 46.8791C86.3382 46.2127 87.4334 45.141 88.5285 43.4862L86.9162 53.8168H55.6548C55.888 53.5969 56.1297 53.3132 56.3645 52.9474C57.1993 51.6465 57.9305 49.3325 57.9305 45.1943V14.0552C57.9305 10.448 57.1578 8.34555 56.2507 7.11652C55.9753 6.74345 55.6904 6.45474 55.4162 6.23108H69.7645C69.5265 6.42447 69.2813 6.66691 69.0416 6.97083C68.0914 8.17583 67.2638 10.302 67.2638 14.0552V47.517Z" stroke="url(#paint3_linear_51_20208)" stroke-opacity="0.75" stroke-width="0.756098" style="mix-blend-mode:screen"/>
<path d="M128.667 40.1863C125.038 44.8318 119.304 47.6626 114.15 47.6626C105.004 47.6626 99.2701 39.8234 99.2701 29.6614C99.2701 19.6447 105.15 12.0232 113.932 12.0232C120.755 12.0232 125.473 15.8702 127.724 21.5319V7.59548C125.401 6.36153 121.046 4.76465 114.731 4.76465C97.2377 4.76465 88.3823 17.7574 88.3823 31.0406C88.3823 43.5252 96.2215 55.2841 112.844 55.2841C119.231 55.2841 125.256 52.4532 128.667 48.5336V40.1863Z" fill="url(#paint4_linear_51_20208)"/>
<path d="M114.15 48.0406C119.118 48.0406 124.583 45.4798 128.289 41.2369V48.3911C124.938 52.168 119.072 54.906 112.844 54.906C104.629 54.906 98.6197 52.0039 94.6611 47.5916C90.6964 43.1725 88.7604 37.207 88.7604 31.0406C88.7604 24.4799 90.9475 18.0044 95.2782 13.1738C99.6029 8.34969 106.086 5.1427 114.731 5.1427C120.801 5.1427 125.027 6.63351 127.346 7.82451V19.7839C124.828 14.8826 120.259 11.6451 113.932 11.6451C104.871 11.6451 98.8921 19.5127 98.8921 29.6614C98.8921 34.8102 100.345 39.3987 102.985 42.7085C105.631 46.0254 109.458 48.0406 114.15 48.0406Z" stroke="url(#paint5_linear_51_20208)" stroke-opacity="0.75" stroke-width="0.756098" style="mix-blend-mode:screen"/>
<path d="M131.881 46.0653C131.881 53.469 128.542 54.1223 128.034 54.1949H146.035C145.454 54.1223 142.333 53.3239 142.333 46.0653V33.0725H163.165V46.0653C163.165 53.469 159.826 54.1223 159.318 54.1949H177.319C176.738 54.1223 173.617 53.2513 173.617 46.0653V13.9826C173.617 6.65146 176.811 5.92561 177.319 5.85303H159.318C159.971 5.9982 163.165 6.86922 163.165 13.9826V26.4673H142.333V13.9826C142.333 6.72405 145.527 5.92561 146.035 5.85303H128.034C128.687 5.9982 131.881 6.94181 131.881 13.9826V46.0653Z" fill="url(#paint6_linear_51_20208)"/>
<path d="M142.333 32.6945H141.955V33.0725V46.0653C141.955 49.7442 142.745 51.8501 143.666 53.0544C143.906 53.3682 144.152 53.6181 144.392 53.8168H129.738C129.969 53.6327 130.207 53.4037 130.44 53.1187C131.412 51.9306 132.259 49.8198 132.259 46.0653V13.9826C132.259 10.4074 131.448 8.32049 130.501 7.10018C130.217 6.73499 129.925 6.45144 129.644 6.23108H144.424C144.184 6.42941 143.936 6.67875 143.694 6.99199C142.765 8.19569 141.955 10.3017 141.955 13.9826V26.4673V26.8453H142.333H163.165H163.543V26.4673V13.9826C163.543 10.3724 162.733 8.28418 161.784 7.0718C161.509 6.71946 161.224 6.4451 160.951 6.23108H175.686C175.453 6.42297 175.213 6.66309 174.979 6.96359C174.048 8.15935 173.239 10.2666 173.239 13.9826V46.0653C173.239 49.7091 174.03 51.8138 174.949 53.026C175.197 53.3525 175.452 53.6116 175.699 53.8168H161.022C161.253 53.6327 161.491 53.4037 161.725 53.1187C162.697 51.9306 163.543 49.8198 163.543 46.0653V33.0725V32.6945H163.165H142.333Z" stroke="url(#paint7_linear_51_20208)" stroke-opacity="0.75" stroke-width="0.756098" style="mix-blend-mode:screen"/>
<path d="M183.65 45.5572C183.65 53.3239 180.238 54.1223 179.73 54.1949H212.902L215.224 40.694C212.539 45.6298 210.143 47.517 203.901 47.517H194.029V33.0725H202.159C207.24 33.0725 207.748 35.2501 207.821 35.4679V23.9994C207.675 24.4349 206.877 26.4673 202.014 26.4673H194.029V12.4583H203.175C209.272 12.4583 211.014 15.5069 212.031 18.7732V5.85303H179.149C179.875 5.9982 183.65 6.94181 183.65 13.9826V45.5572Z" fill="url(#paint8_linear_51_20208)"/>
<path d="M193.651 47.517V47.8951H194.029H203.901C207.056 47.8951 209.298 47.4189 211.099 46.2756C212.429 45.4314 213.49 44.2404 214.501 42.6716L212.583 53.8168H181.376C181.639 53.6057 181.912 53.3364 182.179 52.9933C183.164 51.7255 184.028 49.4918 184.028 45.5572V13.9826C184.028 10.393 183.064 8.29752 181.951 7.07721C181.628 6.72303 181.296 6.44677 180.978 6.23108H211.653V16.7133C211.2 15.7544 210.604 14.8548 209.759 14.1076C208.347 12.8602 206.289 12.0802 203.175 12.0802H194.029H193.651V12.4583V26.4673V26.8453H194.029H202.014C204.496 26.8453 205.993 26.3268 206.899 25.7091C207.114 25.5631 207.293 25.4131 207.443 25.2654V34.1792C207.34 34.0811 207.225 33.9823 207.093 33.8848C206.236 33.2494 204.75 32.6945 202.159 32.6945H194.029H193.651V33.0725V47.517Z" stroke="url(#paint9_linear_51_20208)" stroke-opacity="0.75" stroke-width="0.756098" style="mix-blend-mode:screen"/>
<path d="M218.51 45.045C218.51 52.8116 214.663 53.6101 214.083 53.6827H230.632C229.834 53.6101 226.059 52.5939 226.059 45.045V17.9707L242.826 54.844L259.158 17.8981V45.4805C259.158 52.9568 256.182 53.6101 255.674 53.6827H272.949C272.296 53.6101 269.03 52.6665 269.03 45.4805V13.3252C269.03 6.13926 272.441 5.4134 272.949 5.34082H257.053L244.351 34.5927L231.503 5.34082H213.865C214.591 5.48599 218.51 6.28443 218.51 13.1075V45.045Z" fill="url(#paint10_linear_51_20208)"/>
<path d="M215.915 53.3046C216.205 53.0971 216.505 52.8333 216.798 52.4984C217.911 51.2298 218.888 48.9892 218.888 45.045V13.1075C218.888 9.61995 217.884 7.60965 216.727 6.45262C216.425 6.15066 216.116 5.91041 215.818 5.71887H231.256L244.004 34.7447L244.353 35.5373L244.697 34.7433L257.301 5.71887H271.237C270.997 5.90446 270.751 6.1352 270.51 6.42206C269.518 7.59989 268.652 9.67493 268.652 13.3252V45.4805C268.652 49.1278 269.481 51.2524 270.447 52.4827C270.715 52.8232 270.991 53.0924 271.259 53.3046H257.256C257.473 53.1149 257.695 52.8777 257.912 52.5808C258.784 51.3848 259.536 49.2622 259.536 45.4805V17.8981L258.812 17.7452L242.821 53.92L226.403 17.8142L225.681 17.9707V45.045C225.681 48.8815 226.641 51.1203 227.76 52.4147C228.082 52.7874 228.415 53.0783 228.736 53.3046H215.915Z" stroke="url(#paint11_linear_51_20208)" stroke-opacity="0.75" stroke-width="0.756098" style="mix-blend-mode:screen"/>
<path d="M292.706 46.0653C292.706 53.469 289.44 54.1223 288.931 54.1949H306.86C306.279 54.1223 303.231 53.2513 303.231 46.0653V33.871L314.844 14.3455C319.345 6.65146 322.03 5.92561 322.248 5.85303H306.497C306.933 5.92561 308.529 6.43371 308.529 8.61127C308.529 9.99039 307.731 11.9502 305.916 15.144L299.747 25.814L292.851 13.8374C291.472 11.4421 290.964 9.84522 290.964 8.68385C290.964 6.28854 292.778 5.92561 293.214 5.85303H273.688C274.197 5.9982 277.1 6.86922 281.31 14.2003L292.706 34.2339V46.0653Z" fill="url(#paint12_linear_51_20208)"/>
<path d="M275.307 6.23108H291.537C291.005 6.71687 290.586 7.48861 290.586 8.68385C290.586 9.9468 291.135 11.6148 292.523 14.026L299.419 26.0026L299.746 26.5704L300.074 26.0032L306.244 15.3332L306.245 15.3307C307.156 13.7279 307.819 12.4226 308.254 11.338C308.689 10.2561 308.908 9.36986 308.908 8.61127C308.908 7.47308 308.505 6.71629 308.004 6.23108H320.783C320.523 6.42156 320.227 6.66099 319.897 6.96212C318.6 8.14722 316.781 10.2852 314.519 14.1537C314.518 14.154 314.518 14.1543 314.518 14.1546L302.906 33.6777L302.853 33.767V33.871V46.0653C302.853 49.7074 303.625 51.8109 304.524 53.0229C304.767 53.3508 305.018 53.6109 305.262 53.8168H290.612C290.84 53.632 291.075 53.4021 291.304 53.1157C292.256 51.9278 293.084 49.8181 293.084 46.0653V34.2339V34.1339L293.034 34.047L281.639 14.0134L281.638 14.0121C278.905 9.2533 276.699 7.16374 275.307 6.23108Z" stroke="url(#paint13_linear_51_20208)" stroke-opacity="0.75" stroke-width="0.756098" style="mix-blend-mode:screen"/>
<defs>
<linearGradient id="paint0_linear_51_20208" x1="26.7561" y1="-18.3905" x2="26.7561" y2="73.8534" gradientUnits="userSpaceOnUse">
<stop stop-color="#CAB37D"/>
<stop offset="1" stop-color="#6B5830"/>
</linearGradient>
<linearGradient id="paint1_linear_51_20208" x1="26.7561" y1="-18.3905" x2="26.7561" y2="73.8534" gradientUnits="userSpaceOnUse">
<stop stop-color="#CAB37D"/>
<stop offset="1" stop-color="#6B5830" stop-opacity="0"/>
</linearGradient>
<linearGradient id="paint2_linear_51_20208" x1="71.3417" y1="-18.3905" x2="71.3417" y2="73.8534" gradientUnits="userSpaceOnUse">
<stop stop-color="#CAB37D"/>
<stop offset="1" stop-color="#6B5830"/>
</linearGradient>
<linearGradient id="paint3_linear_51_20208" x1="71.3417" y1="-18.3905" x2="71.3417" y2="73.8534" gradientUnits="userSpaceOnUse">
<stop stop-color="#CAB37D"/>
<stop offset="1" stop-color="#6B5830" stop-opacity="0"/>
</linearGradient>
<linearGradient id="paint4_linear_51_20208" x1="108.585" y1="-18.3901" x2="108.585" y2="73.8538" gradientUnits="userSpaceOnUse">
<stop stop-color="#CAB37D"/>
<stop offset="1" stop-color="#6B5830"/>
</linearGradient>
<linearGradient id="paint5_linear_51_20208" x1="108.585" y1="-18.3901" x2="108.585" y2="73.8538" gradientUnits="userSpaceOnUse">
<stop stop-color="#CAB37D"/>
<stop offset="1" stop-color="#6B5830" stop-opacity="0"/>
</linearGradient>
<linearGradient id="paint6_linear_51_20208" x1="152.757" y1="-18.3905" x2="152.757" y2="73.8534" gradientUnits="userSpaceOnUse">
<stop stop-color="#CAB37D"/>
<stop offset="1" stop-color="#6B5830"/>
</linearGradient>
<linearGradient id="paint7_linear_51_20208" x1="152.757" y1="-18.3905" x2="152.757" y2="73.8534" gradientUnits="userSpaceOnUse">
<stop stop-color="#CAB37D"/>
<stop offset="1" stop-color="#6B5830" stop-opacity="0"/>
</linearGradient>
<linearGradient id="paint8_linear_51_20208" x1="197" y1="-18.3905" x2="197" y2="73.8534" gradientUnits="userSpaceOnUse">
<stop stop-color="#CAB37D"/>
<stop offset="1" stop-color="#6B5830"/>
</linearGradient>
<linearGradient id="paint9_linear_51_20208" x1="197" y1="-18.3905" x2="197" y2="73.8534" gradientUnits="userSpaceOnUse">
<stop stop-color="#CAB37D"/>
<stop offset="1" stop-color="#6B5830" stop-opacity="0"/>
</linearGradient>
<linearGradient id="paint10_linear_51_20208" x1="243.513" y1="-18.9027" x2="243.513" y2="73.3412" gradientUnits="userSpaceOnUse">
<stop stop-color="#CAB37D"/>
<stop offset="1" stop-color="#6B5830"/>
</linearGradient>
<linearGradient id="paint11_linear_51_20208" x1="243.513" y1="-18.9027" x2="243.513" y2="73.3412" gradientUnits="userSpaceOnUse">
<stop stop-color="#CAB37D"/>
<stop offset="1" stop-color="#6B5830" stop-opacity="0"/>
</linearGradient>
<linearGradient id="paint12_linear_51_20208" x1="298" y1="-18.3905" x2="298" y2="73.8534" gradientUnits="userSpaceOnUse">
<stop stop-color="#CAB37D"/>
<stop offset="1" stop-color="#6B5830"/>
</linearGradient>
<linearGradient id="paint13_linear_51_20208" x1="298" y1="-18.3905" x2="298" y2="73.8534" gradientUnits="userSpaceOnUse">
<stop stop-color="#CAB37D"/>
<stop offset="1" stop-color="#6B5830" stop-opacity="0"/>
</linearGradient>
</defs>
</svg>
