<svg width="352" height="213" viewBox="0 0 352 213" fill="none" xmlns="http://www.w3.org/2000/svg">
<path fill-rule="evenodd" clip-rule="evenodd" d="M9 1H343C343 5.41828 346.582 9 351 9V204C346.582 204 343 207.582 343 212H9C9 207.582 5.41828 204 1 204V9C5.41828 9 9 5.41828 9 1Z" fill="#0E0923"/>
<path d="M343 1H343.5V0.5H343V1ZM9 1V0.5H8.5V1H9ZM351 9H351.5V8.5H351V9ZM351 204V204.5H351.5V204H351ZM343 212V212.5H343.5V212H343ZM9 212H8.5V212.5H9V212ZM1 204H0.5V204.5H1V204ZM1 9V8.5H0.5V9H1ZM343 0.5H9V1.5H343V0.5ZM351 8.5C346.858 8.5 343.5 5.14214 343.5 1H342.5C342.5 5.69442 346.306 9.5 351 9.5V8.5ZM351.5 204V9H350.5V204H351.5ZM343.5 212C343.5 207.858 346.858 204.5 351 204.5V203.5C346.306 203.5 342.5 207.306 342.5 212H343.5ZM9 212.5H343V211.5H9V212.5ZM1 204.5C5.14214 204.5 8.5 207.858 8.5 212H9.5C9.5 207.306 5.69442 203.5 1 203.5V204.5ZM0.5 9V204H1.5V9H0.5ZM8.5 1C8.5 5.14214 5.14214 8.5 1 8.5V9.5C5.69442 9.5 9.5 5.69442 9.5 1H8.5Z" fill="#EBD09B"/>
</svg>
