<svg width="28" height="28" viewBox="0 0 28 28" fill="none" xmlns="http://www.w3.org/2000/svg">
<path d="M2.75002 20.1875H5.5625C6.80513 20.1875 7.81252 21.1948 7.81252 22.4375V25.25C7.81252 26.4927 6.80513 27.5 5.5625 27.5H2.75002C1.50738 27.5 0.5 26.4927 0.5 25.25V22.4375C0.5 21.1949 1.50738 20.1875 2.75002 20.1875Z" fill="white"/>
<path d="M26.5078 20.5723C26.1366 20.3208 25.6983 20.1868 25.25 20.1875H22.4375C21.1949 20.1875 20.1875 21.1948 20.1875 22.4375V25.25C20.1875 26.4927 21.1949 27.5 22.4375 27.5H25.25C26.4927 27.5 27.5 26.4927 27.5 25.25V22.4375C27.4999 21.6895 27.128 20.9904 26.5078 20.5723Z" fill="white"/>
<path d="M2.75002 10.3438H5.5625C6.80513 10.3438 7.81252 11.3511 7.81252 12.5938V15.4062C7.81252 16.6489 6.80513 17.6563 5.5625 17.6563H2.75002C1.50738 17.6562 0.5 16.6489 0.5 15.4062V12.5938C0.5 11.3511 1.50738 10.3438 2.75002 10.3438Z" fill="white"/>
<path d="M26.5078 10.7285C26.1366 10.4771 25.6983 10.343 25.25 10.3438H22.4375C21.1949 10.3438 20.1875 11.3511 20.1875 12.5938V15.4063C20.1875 16.6489 21.1949 17.6563 22.4375 17.6563H25.25C26.4926 17.6563 27.5 16.6489 27.5 15.4063V12.5938C27.4999 11.8457 27.128 11.1466 26.5078 10.7285Z" fill="white"/>
<path d="M2.75002 0.5H5.5625C6.80513 0.5 7.81252 1.50738 7.81252 2.75002V5.5625C7.81252 6.80513 6.80513 7.81252 5.5625 7.81252H2.75002C1.50738 7.81252 0.5 6.80513 0.5 5.5625V2.75002C0.5 1.50738 1.50738 0.5 2.75002 0.5Z" fill="white"/>
<path d="M16.664 20.5723C16.2928 20.3208 15.8546 20.1868 15.4062 20.1875H12.5937C11.3511 20.1875 10.3437 21.1948 10.3437 22.4375V25.25C10.3437 26.4926 11.3511 27.5 12.5937 27.5H15.4062C16.6489 27.5 17.6562 26.4927 17.6562 25.25V22.4375C17.6561 21.6895 17.2842 20.9904 16.664 20.5723Z" fill="white"/>
<path d="M16.664 10.7285C16.2928 10.4771 15.8546 10.343 15.4062 10.3438H12.5937C11.3511 10.3438 10.3437 11.3511 10.3437 12.5938V15.4063C10.3437 16.6489 11.3511 17.6563 12.5937 17.6563H15.4062C16.6489 17.6563 17.6562 16.6489 17.6562 15.4063V12.5938C17.6561 11.8457 17.2842 11.1466 16.664 10.7285Z" fill="white"/>
<path d="M16.664 0.884753C16.2928 0.633316 15.8546 0.499265 15.4062 0.500003H12.5937C11.3511 0.500003 10.3437 1.50739 10.3437 2.75002V5.5625C10.3437 6.80514 11.3511 7.81252 12.5937 7.81252H15.4062C16.6489 7.81252 17.6562 6.80514 17.6562 5.5625V2.75002C17.6561 2.00198 17.2842 1.30288 16.664 0.884753Z" fill="white"/>
<path d="M27.1153 1.49225C26.6971 0.871988 25.998 0.500105 25.25 0.5H22.4375C21.1949 0.5 20.1875 1.50738 20.1875 2.75002V5.5625C20.1875 6.80513 21.1949 7.81252 22.4375 7.81252H25.25C26.4927 7.81252 27.5 6.80513 27.5 5.5625V2.75002C27.5007 2.30167 27.3667 1.86345 27.1153 1.49225Z" fill="white"/>
</svg>
