<svg width="28" height="28" viewBox="0 0 28 28" fill="none" xmlns="http://www.w3.org/2000/svg">
<g clip-path="url(#clip0_2067_4067)">
<path d="M14 17.3669C12.067 17.3669 10.5 18.878 10.5 20.7419V27.4919H17.5V20.7419C17.5 18.878 15.933 17.3669 14 17.3669Z" fill="white"/>
<path d="M19.8334 20.742V27.492H24.5C26.433 27.492 28 25.9809 28 24.117V13.8559C28.0003 13.2714 27.7647 12.7098 27.3431 12.2899L17.4289 1.95446C15.6795 0.129323 12.727 0.0172624 10.8343 1.70413C10.7444 1.78429 10.6578 1.86776 10.5747 1.95446L0.677852 12.2865C0.243524 12.7082 -0.00016398 13.2784 8.27875e-08 13.8727V24.117C8.27875e-08 25.9809 1.56702 27.492 3.5 27.492H8.16665V20.742C8.18847 17.6743 10.757 15.1692 13.8581 15.0971C17.063 15.0225 19.8089 17.5703 19.8334 20.742Z" fill="white"/>
<path d="M14 17.3669C12.067 17.3669 10.5 18.878 10.5 20.7419V27.4919H17.5V20.7419C17.5 18.878 15.933 17.3669 14 17.3669Z" fill="white"/>
</g>
<defs>
<clipPath id="clip0_2067_4067">
<rect width="28" height="27" fill="white" transform="translate(0 0.5)"/>
</clipPath>
</defs>
</svg>
