<svg width="13" height="13" viewBox="0 0 13 13" fill="none" xmlns="http://www.w3.org/2000/svg">
<path d="M10.5892 5.9566C10.3427 5.40189 9.98441 4.90401 9.53672 4.4941L9.16728 4.15514C9.15474 4.14394 9.13964 4.136 9.12331 4.132C9.10699 4.12801 9.08992 4.12808 9.07363 4.13222C9.05734 4.13635 9.04231 4.14443 9.02986 4.15573C9.01741 4.16703 9.00793 4.18121 9.00225 4.19703L8.83721 4.67057C8.73437 4.96764 8.54521 5.27105 8.27734 5.56939C8.25957 5.58844 8.23926 5.59352 8.22529 5.59479C8.21133 5.59606 8.18975 5.59352 8.1707 5.57574C8.15293 5.56051 8.14404 5.53766 8.14531 5.5148C8.19229 4.75055 7.96377 3.88853 7.46357 2.95035C7.04971 2.17086 6.47461 1.56275 5.75605 1.13873L5.23174 0.830234C5.16318 0.789609 5.07559 0.842929 5.07939 0.92291L5.10732 1.53228C5.12637 1.94869 5.07812 2.31686 4.96387 2.62281C4.82422 2.99732 4.62363 3.34518 4.36719 3.65748C4.18872 3.87453 3.98645 4.07084 3.76416 4.24273C3.22881 4.65427 2.79349 5.1816 2.49082 5.78521C2.18889 6.3941 2.03162 7.06447 2.03125 7.7441C2.03125 8.34332 2.14932 8.9235 2.38291 9.47066C2.60846 9.99748 2.93396 10.4756 3.34141 10.8786C3.75273 11.2848 4.23008 11.6047 4.76201 11.8269C5.31299 12.058 5.89697 12.1748 6.5 12.1748C7.10303 12.1748 7.68701 12.058 8.23799 11.8282C8.76861 11.6073 9.25113 11.2852 9.65859 10.8798C10.0699 10.4736 10.3924 9.99879 10.6171 9.47193C10.8503 8.92626 10.97 8.3388 10.9688 7.74537C10.9688 7.12584 10.8418 6.52408 10.5892 5.9566Z" fill="#8F1919"/>
</svg>
