<svg width="13" height="13" viewBox="0 0 13 13" fill="none" xmlns="http://www.w3.org/2000/svg">
<path d="M6.22921 10.8333C5.77782 10.8333 5.39414 10.6753 5.07817 10.3594C4.76219 10.0434 4.60421 9.65972 4.60421 9.20833H5.68754C5.68754 9.36181 5.73954 9.49054 5.84354 9.59454C5.94754 9.69854 6.0761 9.75036 6.22921 9.75C6.38232 9.74964 6.51105 9.69764 6.61542 9.594C6.71978 9.49036 6.7716 9.36181 6.77087 9.20833C6.77015 9.05486 6.71815 8.92631 6.61487 8.82267C6.5116 8.71903 6.38304 8.66703 6.22921 8.66667H1.08337V7.58333H6.22921C6.6806 7.58333 7.06428 7.74132 7.38025 8.05729C7.69622 8.37326 7.85421 8.75694 7.85421 9.20833C7.85421 9.65972 7.69622 10.0434 7.38025 10.3594C7.06428 10.6753 6.6806 10.8333 6.22921 10.8333ZM1.08337 5.41667V4.33333H8.39587C8.6306 4.33333 8.82469 4.2566 8.97817 4.10313C9.13164 3.94965 9.20837 3.75556 9.20837 3.52083C9.20837 3.28611 9.13164 3.09201 8.97817 2.93854C8.82469 2.78507 8.6306 2.70833 8.39587 2.70833C8.16115 2.70833 7.96705 2.78507 7.81358 2.93854C7.66011 3.09201 7.58337 3.28611 7.58337 3.52083H6.50004C6.50004 2.98819 6.68294 2.53897 7.04875 2.17317C7.41455 1.80736 7.8636 1.62464 8.39587 1.625C8.92815 1.62536 9.37737 1.80826 9.74354 2.17371C10.1097 2.53915 10.2924 2.98819 10.2917 3.52083C10.291 4.05347 10.1083 4.50269 9.74354 4.8685C9.37882 5.23431 8.9296 5.41703 8.39587 5.41667H1.08337ZM10.0209 9.75V8.66667C10.2556 8.66667 10.4497 8.58993 10.6032 8.43646C10.7566 8.28299 10.8334 8.08889 10.8334 7.85417C10.8334 7.61944 10.7566 7.42535 10.6032 7.27188C10.4497 7.1184 10.2556 7.04167 10.0209 7.04167H1.08337V5.95833H10.0209C10.5535 5.95833 11.0027 6.14124 11.3685 6.50704C11.7343 6.87285 11.9171 7.32189 11.9167 7.85417C11.9163 8.38644 11.7336 8.83567 11.3685 9.20183C11.0035 9.568 10.5542 9.75072 10.0209 9.75Z" fill="#4EA2A3"/>
</svg>
