<svg width="13" height="13" viewBox="0 0 13 13" fill="none" xmlns="http://www.w3.org/2000/svg">
<path d="M4.23588 0.495606C3.50215 0.49619 2.66883 0.911149 2.05224 1.89615C3.84921 1.27713 3.82717 2.38053 5.35353 2.83434C5.67815 3.29746 5.89976 3.87754 6.0505 4.66789C6.07731 4.89997 6.08668 5.14867 6.08846 5.4062C6.09252 6.00364 6.04428 6.64339 6.01046 7.17644V7.17664C6.00018 7.35392 6.08602 7.63316 6.24614 7.92221C6.31583 8.04805 6.3997 8.17556 6.48948 8.30053C6.56426 6.79522 6.51599 5.42814 6.77563 4.20167C6.95641 3.70879 7.20024 3.29497 7.50772 2.95357C9.22413 2.57769 9.00932 1.46807 11.0869 2.1122C10.259 1.12197 9.25409 0.713381 8.43725 0.728006C7.32224 0.747963 6.55798 1.55645 7.07268 2.75047C6.78327 3.09649 6.54613 3.49955 6.36504 3.95907C6.22608 3.47266 6.04575 3.05739 5.81787 2.69707C6.18274 1.39487 5.31768 0.494794 4.23586 0.495606H4.23588ZM5.1305 4.80993L3.21381 4.8548L1.45129 7.26665L3.28259 8.97341L5.56755 8.75309L3.30676 9.67396L1.84985 8.28019L2.80713 10.4169L5.61051 11.1486L3.08714 11.042L3.22846 11.3575L7.46913 12.5645L10.7148 10.7648V10.7646L9.91054 9.61907L7.5031 10.6948L10.0202 8.86372L10.7336 9.92878L10.7788 7.9181L9.0893 5.93133L7.67647 5.61121L7.05678 6.53657L7.23325 7.20063L6.99577 7.57642C6.98244 7.97581 6.96489 8.38879 6.93534 8.81467L7.5244 9.64047L6.6078 10.6995L7.00174 11.5085L6.05934 10.608L6.92135 9.61213L6.63967 9.21731L6.51576 9.08355C6.26145 8.80898 6.01513 8.48449 5.83102 8.15217C5.70661 7.92765 5.60733 7.70027 5.56188 7.47384L5.10186 6.54617L5.4912 5.53006L5.50526 5.52884L5.1305 4.80993Z" fill="#97711B"/>
</svg>
