<svg width="329" height="219" viewBox="0 0 329 219" fill="none" xmlns="http://www.w3.org/2000/svg">
<path d="M213.912 36.1666L170.5 112.667L258 36.1666H213.912Z" fill="url(#paint0_linear_94_82811)"/>
<path d="M127.047 38.1666L171 112.167L86.0001 38.1666H127.047Z" fill="url(#paint1_linear_94_82811)"/>
<path d="M305.044 71.759L171 112.167L308.602 104.953L305.044 71.759Z" fill="url(#paint2_linear_94_82811)"/>
<path d="M321.5 152.806L171 112.166L297.5 193.167L321.5 152.806Z" fill="url(#paint3_linear_94_82811)"/>
<path d="M8.49181 70.7521L172 112.167L20.6176 28.4067L8.49181 70.7521Z" fill="url(#paint4_linear_94_82811)"/>
<path d="M26.0409 134.245L172 112.167L18.3498 105.28L26.0409 134.245Z" fill="url(#paint5_linear_94_82811)"/>
<path d="M53.6251 189.742L171 112.167L35.5621 162.549L53.6251 189.742Z" fill="url(#paint6_linear_94_82811)"/>
<defs>
<linearGradient id="paint0_linear_94_82811" x1="219.791" y1="41.4539" x2="170.153" y2="87.2173" gradientUnits="userSpaceOnUse">
<stop stop-color="#FAFF63" stop-opacity="0"/>
<stop offset="1" stop-color="#FFD12E"/>
</linearGradient>
<linearGradient id="paint1_linear_94_82811" x1="116.5" y1="45.1666" x2="158.766" y2="95.5104" gradientUnits="userSpaceOnUse">
<stop stop-color="#FAFF63" stop-opacity="0"/>
<stop offset="1" stop-color="#FFD12E"/>
</linearGradient>
<linearGradient id="paint2_linear_94_82811" x1="284.399" y1="95.0799" x2="183.186" y2="89.8518" gradientUnits="userSpaceOnUse">
<stop stop-color="#FFF4A0" stop-opacity="0"/>
<stop offset="1" stop-color="#FFD12E"/>
</linearGradient>
<linearGradient id="paint3_linear_94_82811" x1="303.5" y1="169.307" x2="205.374" y2="103.025" gradientUnits="userSpaceOnUse">
<stop stop-color="#FFF4A0" stop-opacity="0"/>
<stop offset="1" stop-color="#FFD12E"/>
</linearGradient>
<linearGradient id="paint4_linear_94_82811" x1="41.8837" y1="55.9801" x2="156.932" y2="108.556" gradientUnits="userSpaceOnUse">
<stop stop-color="#FFF4A0" stop-opacity="0"/>
<stop offset="1" stop-color="#FFD12E"/>
</linearGradient>
<linearGradient id="paint5_linear_94_82811" x1="45.8672" y1="109.822" x2="158.668" y2="100.978" gradientUnits="userSpaceOnUse">
<stop stop-color="#FFF4A0" stop-opacity="0"/>
<stop offset="1" stop-color="#FFD12E"/>
</linearGradient>
<linearGradient id="paint6_linear_94_82811" x1="49.4308" y1="165.241" x2="163.009" y2="149.392" gradientUnits="userSpaceOnUse">
<stop stop-color="#FAFF63" stop-opacity="0"/>
<stop offset="1" stop-color="#FFD12E"/>
</linearGradient>
</defs>
</svg>
