<svg width="52" height="41" viewBox="0 0 52 41" fill="none" xmlns="http://www.w3.org/2000/svg">
<g filter="url(#filter0_ii_29_10894)">
<path d="M0 3.22472H10.2005L12.2566 4.72745L14.3127 3.22472L26.5376 0L37.6873 3.22529L39.7434 4.72802L41.7995 3.22529H52L46.4339 7.29333L45.3101 8.11567L43.7191 9.2775L41.0043 7.29333L43.7191 5.30916L44.8449 6.13194L43.7204 6.95381L43.7191 6.9529L43.2534 7.29333L43.2546 7.29424L43.2505 7.29726L43.718 7.63894L46.5293 5.58426L46.5263 5.58211L48.1607 4.38759H42.4582L39.7434 6.37175L37.0286 4.38759L26.5376 1.38202L14.9714 4.38702L12.2566 6.37119L9.5418 4.38702H3.83932L5.47372 5.58154L5.47077 5.5837L8.28205 7.63837L8.74955 7.29669L8.74542 7.29367L8.74665 7.29277L8.28086 6.95234L8.27963 6.95324L7.15512 6.13137L8.28086 5.3086L10.9957 7.29277L8.28086 9.27693L6.69056 8.11463L5.56542 7.29323L0 3.22472Z" fill="url(#paint0_linear_29_10894)"/>
<path d="M5.09792 7.63491L3.57818 8.74564L4.90147 9.7128L2.41251 22.1121L4.90147 34.5114L3.57818 35.4785L5.09792 36.5892L6.22243 35.7674L5.8272 35.4785L7.25282 34.4366L6.49177 33.8804L4.34252 22.1121L6.49177 10.3438L7.25282 9.78758L5.8272 8.74564L6.22243 8.45678L5.09792 7.63491Z" fill="url(#paint1_linear_29_10894)"/>
<path d="M0 40.9994H10.2005L12.2566 39.4967L14.3127 40.9994L37.6873 41L39.7434 39.4973L41.7995 41H52L46.4339 36.932L45.3101 36.1096L43.7191 34.9478L41.0043 36.932L43.7191 38.9161L44.8449 38.0934L43.7204 37.2715L43.7191 37.2724L43.2534 36.932L43.2546 36.9311L43.2505 36.928L43.718 36.5864L46.5293 38.641L46.5263 38.6432L48.1607 39.8377H42.4582L39.7434 37.8535L37.0286 39.8377L14.9714 39.8371L12.2566 37.853L9.5418 39.8371H3.83932L5.47372 38.6426L5.47077 38.6405L8.28205 36.5858L8.74955 36.9275L8.74542 36.9305L8.74665 36.9314L8.28086 37.2718L8.27963 37.2709L7.15512 38.0928L8.28086 38.9156L10.9957 36.9314L8.28086 34.9472L6.69056 36.1095L5.56542 36.9309L0 40.9994Z" fill="url(#paint2_linear_29_10894)"/>
<path d="M46.9021 7.63548L48.4218 8.74621L47.0985 9.71336L49.6978 22.1121L47.0985 34.5119L48.4218 35.4791L46.9021 36.5898L45.7776 35.7679L46.1728 35.4791L44.7472 34.4371L45.5082 33.8809L47.7678 22.1121L45.5082 10.3444L44.7472 9.78815L46.1728 8.74621L45.7776 8.45735L46.9021 7.63548Z" fill="url(#paint3_linear_29_10894)"/>
</g>
<defs>
<filter id="filter0_ii_29_10894" x="0" y="-0.5" width="52" height="41.9" filterUnits="userSpaceOnUse" color-interpolation-filters="sRGB">
<feFlood flood-opacity="0" result="BackgroundImageFix"/>
<feBlend mode="normal" in="SourceGraphic" in2="BackgroundImageFix" result="shape"/>
<feColorMatrix in="SourceAlpha" type="matrix" values="0 0 0 0 0 0 0 0 0 0 0 0 0 0 0 0 0 0 127 0" result="hardAlpha"/>
<feOffset dy="-0.5"/>
<feGaussianBlur stdDeviation="0.5"/>
<feComposite in2="hardAlpha" operator="arithmetic" k2="-1" k3="1"/>
<feColorMatrix type="matrix" values="0 0 0 0 0 0 0 0 0 0 0 0 0 0 0 0 0 0 0.3 0"/>
<feBlend mode="normal" in2="shape" result="effect1_innerShadow_29_10894"/>
<feColorMatrix in="SourceAlpha" type="matrix" values="0 0 0 0 0 0 0 0 0 0 0 0 0 0 0 0 0 0 127 0" result="hardAlpha"/>
<feOffset dy="0.4"/>
<feGaussianBlur stdDeviation="0.25"/>
<feComposite in2="hardAlpha" operator="arithmetic" k2="-1" k3="1"/>
<feColorMatrix type="matrix" values="0 0 0 0 1 0 0 0 0 0.942623 0 0 0 0 0.854167 0 0 0 1 0"/>
<feBlend mode="normal" in2="effect1_innerShadow_29_10894" result="effect2_innerShadow_29_10894"/>
</filter>
<linearGradient id="paint0_linear_29_10894" x1="107.908" y1="3.22529" x2="107.908" y2="41" gradientUnits="userSpaceOnUse">
<stop stop-color="#D5BA8F"/>
<stop offset="0.492201" stop-color="#E0C495"/>
<stop offset="0.505209" stop-color="#756346"/>
<stop offset="1" stop-color="#C4AB82"/>
</linearGradient>
<linearGradient id="paint1_linear_29_10894" x1="107.908" y1="3.22529" x2="107.908" y2="41" gradientUnits="userSpaceOnUse">
<stop stop-color="#D5BA8F"/>
<stop offset="0.492201" stop-color="#E0C495"/>
<stop offset="0.505209" stop-color="#756346"/>
<stop offset="1" stop-color="#C4AB82"/>
</linearGradient>
<linearGradient id="paint2_linear_29_10894" x1="107.908" y1="3.22529" x2="107.908" y2="41" gradientUnits="userSpaceOnUse">
<stop stop-color="#D5BA8F"/>
<stop offset="0.492201" stop-color="#E0C495"/>
<stop offset="0.505209" stop-color="#756346"/>
<stop offset="1" stop-color="#C4AB82"/>
</linearGradient>
<linearGradient id="paint3_linear_29_10894" x1="107.908" y1="3.22529" x2="107.908" y2="41" gradientUnits="userSpaceOnUse">
<stop stop-color="#D5BA8F"/>
<stop offset="0.492201" stop-color="#E0C495"/>
<stop offset="0.505209" stop-color="#756346"/>
<stop offset="1" stop-color="#C4AB82"/>
</linearGradient>
</defs>
</svg>
