<svg width="370" height="213" viewBox="0 0 370 213" fill="none" xmlns="http://www.w3.org/2000/svg">
<path opacity="0.6" fill-rule="evenodd" clip-rule="evenodd" d="M9 1H361C361 5.41828 364.582 9 369 9V204C364.582 204 361 207.582 361 212H9C9 207.582 5.41828 204 1 204V9C5.41828 9 9 5.41828 9 1Z" fill="#0E0923"/>
<path d="M361 1H361.5V0.5H361V1ZM9 1V0.5H8.5V1H9ZM369 9H369.5V8.5H369V9ZM369 204V204.5H369.5V204H369ZM361 212V212.5H361.5V212H361ZM9 212H8.5V212.5H9V212ZM1 204H0.5V204.5H1V204ZM1 9V8.5H0.5V9H1ZM361 0.5H9V1.5H361V0.5ZM369 8.5C364.858 8.5 361.5 5.14214 361.5 1H360.5C360.5 5.69442 364.306 9.5 369 9.5V8.5ZM369.5 204V9H368.5V204H369.5ZM361.5 212C361.5 207.858 364.858 204.5 369 204.5V203.5C364.306 203.5 360.5 207.306 360.5 212H361.5ZM9 212.5H361V211.5H9V212.5ZM1 204.5C5.14214 204.5 8.5 207.858 8.5 212H9.5C9.5 207.306 5.69442 203.5 1 203.5V204.5ZM0.5 9V204H1.5V9H0.5ZM8.5 1C8.5 5.14214 5.14214 8.5 1 8.5V9.5C5.69442 9.5 9.5 5.69442 9.5 1H8.5Z" fill="#EBD09B"/>
</svg>
