<svg width="370" height="73" viewBox="0 0 370 73" fill="none" xmlns="http://www.w3.org/2000/svg">
<path fill-rule="evenodd" clip-rule="evenodd" d="M9 1H361C361 5.41828 364.582 9 369 9V64C364.582 64 361 67.5817 361 72H9C9 67.5817 5.41828 64 1 64V9C5.41828 9 9 5.41828 9 1Z" fill="#0E0923"/>
<path d="M361 1H361.5V0.5H361V1ZM9 1V0.5H8.5V1H9ZM369 9H369.5V8.5H369V9ZM369 64V64.5H369.5V64H369ZM361 72V72.5H361.5V72H361ZM9 72H8.5V72.5H9V72ZM1 64H0.5V64.5H1V64ZM1 9V8.5H0.5V9H1ZM361 0.5H9V1.5H361V0.5ZM369 8.5C364.858 8.5 361.5 5.14214 361.5 1H360.5C360.5 5.69442 364.306 9.5 369 9.5V8.5ZM369.5 64V9H368.5V64H369.5ZM361.5 72C361.5 67.8579 364.858 64.5 369 64.5V63.5C364.306 63.5 360.5 67.3056 360.5 72H361.5ZM9 72.5H361V71.5H9V72.5ZM1 64.5C5.14214 64.5 8.5 67.8579 8.5 72H9.5C9.5 67.3056 5.69442 63.5 1 63.5V64.5ZM0.5 9V64H1.5V9H0.5ZM8.5 1C8.5 5.14214 5.14214 8.5 1 8.5V9.5C5.69442 9.5 9.5 5.69442 9.5 1H8.5Z" fill="#EBD09B"/>
</svg>
