<svg width="43" height="40" viewBox="0 0 43 40" fill="none" xmlns="http://www.w3.org/2000/svg">
<rect x="8.5" y="7" width="27" height="27" rx="13.5" stroke="#EBD09B" stroke-width="2"/>
<path d="M22.0303 14.2323C22.917 14.2323 23.7336 14.3816 24.4803 14.6803C25.2363 14.979 25.8336 15.3943 26.2723 15.9263C26.711 16.4583 26.9303 17.0696 26.9303 17.7603C26.9303 18.3203 26.795 18.801 26.5243 19.2023C26.2536 19.6036 25.9083 19.9303 25.4883 20.1823L24.7463 20.6023C24.345 20.8263 24.079 20.9803 23.9483 21.0643C23.7336 21.195 23.5843 21.3396 23.5003 21.4983C23.4163 21.657 23.3743 21.8436 23.3743 22.0583H20.1683C20.1683 21.349 20.3363 20.7563 20.6723 20.2803C21.0083 19.795 21.573 19.375 22.3663 19.0203C22.721 18.8616 22.9776 18.689 23.1363 18.5023C23.3043 18.3063 23.3883 18.087 23.3883 17.8443C23.3883 17.5736 23.2576 17.3403 22.9963 17.1443C22.7443 16.9483 22.4223 16.8503 22.0303 16.8503C21.4983 16.8503 21.083 16.981 20.7843 17.2423C20.495 17.5036 20.3503 17.8723 20.3503 18.3483C20.3503 18.535 20.3783 18.7496 20.4343 18.9923C19.6876 18.7776 18.5723 18.6703 17.0883 18.6703C17.079 18.5863 17.0743 18.4696 17.0743 18.3203C17.0743 17.5363 17.2796 16.8363 17.6903 16.2203C18.1103 15.595 18.6936 15.1096 19.4403 14.7643C20.1963 14.4096 21.0596 14.2323 22.0303 14.2323ZM23.3883 25.6003H20.1403V23.1083H23.3883V25.6003Z" fill="#EBD09B"/>
</svg>
