<svg width="43" height="40" viewBox="0 0 43 40" fill="none" xmlns="http://www.w3.org/2000/svg">
<path d="M21.4168 22.4997C22.8436 22.4997 24.0002 21.3431 24.0002 19.9164C24.0002 18.4896 22.8436 17.333 21.4168 17.333C19.9901 17.333 18.8335 18.4896 18.8335 19.9164C18.8335 21.3431 19.9901 22.4997 21.4168 22.4997Z" stroke="#EBD09B" stroke-width="1.5"/>
<path d="M21.417 17.333C27.8754 17.333 27.3587 32.8331 17.542 32.8331" stroke="#EBD09B" stroke-width="3" stroke-linecap="round"/>
<path d="M21.8196 22.5001C15.3612 22.5001 15.8779 7 25.6946 7" stroke="#EBD09B" stroke-width="3" stroke-linecap="round"/>
<path d="M18.8333 20.3197C18.8333 13.8613 34.3334 14.378 34.3334 24.1947" stroke="#EBD09B" stroke-width="3" stroke-linecap="round"/>
<path d="M24.0001 19.9168C24.0001 26.3751 8.5 25.8585 8.5 16.0417" stroke="#EBD09B" stroke-width="3" stroke-linecap="round"/>
</svg>
