<svg width="43" height="40" viewBox="0 0 43 40" fill="none" xmlns="http://www.w3.org/2000/svg">
<path d="M27.4056 23.4661C27.1799 24.1026 26.8222 24.6193 26.4313 24.9416C26.0387 25.2654 25.6283 25.3823 25.284 25.2602C24.9397 25.1381 24.6946 24.7888 24.5936 24.29C24.4932 23.7935 24.5409 23.1668 24.7666 22.5303C24.9923 21.8938 25.35 21.377 25.7408 21.0547C26.1334 20.7309 26.5439 20.6141 26.8881 20.7362C27.2324 20.8582 27.4776 21.2076 27.5785 21.7064C27.679 22.2029 27.6313 22.8295 27.4056 23.4661Z" fill="#A28F6A" stroke="#2B174B" stroke-width="0.2"/>
<path d="M27.0688 23.3254C26.8431 23.9619 26.4853 24.4787 26.0945 24.801C25.7019 25.1248 25.2915 25.2416 24.9472 25.1196C24.6029 24.9975 24.3577 24.6482 24.2568 24.1494C24.1563 23.6528 24.204 23.0262 24.4297 22.3897C24.6554 21.7532 25.0132 21.2364 25.404 20.9141C25.7966 20.5903 26.207 20.4735 26.5513 20.5955C26.8956 20.7176 27.1408 21.0669 27.2417 21.5657C27.3422 22.0623 27.2945 22.6889 27.0688 23.3254Z" fill="#FAD07E" stroke="#2B174B" stroke-width="0.2"/>
<path d="M22.2911 25.8547C21.7113 26.201 21.1063 26.3709 20.5997 26.3699C20.0908 26.3689 19.7001 26.1972 19.5128 25.8836C19.3254 25.57 19.3594 25.1446 19.5998 24.696C19.839 24.2495 20.2754 23.7972 20.8552 23.4509C21.435 23.1046 22.0401 22.9347 22.5467 22.9357C23.0556 22.9367 23.4462 23.1084 23.6336 23.422C23.8209 23.7356 23.7869 24.161 23.5466 24.6096C23.3073 25.0561 22.8709 25.5084 22.2911 25.8547Z" fill="#DAC59B" stroke="#2B174B" stroke-width="0.2"/>
<path d="M22.1216 25.5307C21.5418 25.877 20.9368 26.0469 20.4302 26.0459C19.9213 26.0449 19.5306 25.8732 19.3433 25.5596C19.156 25.246 19.1899 24.8206 19.4303 24.372C19.6695 23.9255 20.1059 23.4733 20.6857 23.1269C21.2655 22.7806 21.8706 22.6107 22.3772 22.6117C22.8861 22.6127 23.2767 22.7845 23.4641 23.0981C23.6514 23.4117 23.6174 23.8371 23.3771 24.2856C23.1378 24.7322 22.7014 25.1844 22.1216 25.5307Z" fill="#FFECC6" stroke="#2B174B" stroke-width="0.2"/>
<path d="M17.0884 26.2764C16.511 25.9261 16.0777 25.4708 15.8415 25.0227C15.6042 24.5725 15.5732 24.1469 15.7626 23.8346C15.9521 23.5222 16.3439 23.3532 16.8529 23.3557C17.3594 23.3582 17.9633 23.5322 18.5407 23.8825C19.1181 24.2328 19.5514 24.688 19.7876 25.1362C20.0249 25.5864 20.0559 26.012 19.8664 26.3243C19.677 26.6366 19.2851 26.8057 18.7762 26.8032C18.2696 26.8007 17.6658 26.6267 17.0884 26.2764Z" fill="#A28F6A" stroke="#2B174B" stroke-width="0.2"/>
<path d="M17.2949 25.9746C16.7175 25.6243 16.2842 25.1691 16.048 24.7209C15.8107 24.2707 15.7797 23.8451 15.9692 23.5328C16.1587 23.2205 16.5505 23.0514 17.0594 23.0539C17.566 23.0564 18.1699 23.2304 18.7473 23.5807C19.3247 23.931 19.7579 24.3863 19.9941 24.8344C20.2314 25.2846 20.2625 25.7103 20.073 26.0226C19.8835 26.3349 19.4917 26.5039 18.9828 26.5014C18.4762 26.4989 17.8723 26.3249 17.2949 25.9746Z" fill="#FAD07E" stroke="#2B174B" stroke-width="0.2"/>
<path d="M19.516 20.8009C19.1545 20.2305 18.9687 19.6301 18.9563 19.1236C18.9439 18.6149 19.1053 18.2198 19.4139 18.0243C19.7224 17.8288 20.1486 17.8515 20.6033 18.08C21.056 18.3074 21.5196 18.7317 21.8811 19.3022C22.2426 19.8726 22.4283 20.473 22.4407 20.9795C22.4531 21.4882 22.2917 21.8833 21.9832 22.0788C21.6746 22.2743 21.2485 22.2516 20.7937 22.0231C20.341 21.7957 19.8775 21.3714 19.516 20.8009Z" fill="#A28F6A" stroke="#2B174B" stroke-width="0.2"/>
<path d="M19.8353 20.6222C19.4738 20.0518 19.288 19.4514 19.2757 18.9449C19.2633 18.4362 19.4247 18.0411 19.7332 17.8456C20.0418 17.6501 20.4679 17.6728 20.9227 17.9013C21.3753 18.1287 21.8389 18.553 22.2004 19.1235C22.5619 19.6939 22.7477 20.2943 22.76 20.8007C22.7725 21.3095 22.611 21.7045 22.3025 21.9001C21.9939 22.0956 21.5678 22.0729 21.1131 21.8444C20.6604 21.617 20.1968 21.1927 19.8353 20.6222Z" fill="#FAD07E" stroke="#2B174B" stroke-width="0.2"/>
<path d="M25.0959 16.2831C25.2656 15.9666 25.3336 15.6234 25.3107 15.3272C25.2877 15.0308 25.1752 14.7913 24.9923 14.659C24.8095 14.5266 24.5749 14.5149 24.3358 14.6216C24.097 14.7282 23.8619 14.9505 23.6922 15.267C23.5226 15.5835 23.4545 15.9267 23.4775 16.2228C23.5005 16.5193 23.613 16.7588 23.7958 16.8911C23.9787 17.0235 24.2133 17.0352 24.4524 16.9285C24.6912 16.8219 24.9263 16.5995 25.0959 16.2831Z" fill="#A28F6A" stroke="#2B174B" stroke-width="0.2"/>
<path d="M24.9001 16.1551C25.0698 15.8387 25.1378 15.4954 25.1149 15.1993C25.0919 14.9029 24.9794 14.6634 24.7965 14.531C24.6137 14.3987 24.3791 14.3869 24.14 14.4937C23.9012 14.6003 23.6661 14.8226 23.4964 15.1391C23.3268 15.4556 23.2587 15.7988 23.2817 16.0949C23.3047 16.3913 23.4172 16.6308 23.6 16.7632C23.7829 16.8956 24.0175 16.9073 24.2566 16.8005C24.4954 16.6939 24.7305 16.4716 24.9001 16.1551Z" fill="#FAD07E" stroke="#2B174B" stroke-width="0.2"/>
<path d="M36.1728 27.6541C35.2669 22.2469 33.4196 26.485 29.5164 22.635C28.6619 21.8036 31.0161 22.635 30.5161 21.6346C29.8753 20.6732 28.8169 21.0943 28.0078 21.784C27.2212 22.4545 26.5109 23.2621 25.5999 23.7503L23.0164 25.1347C18 26.5 15.2895 23.9619 13.0164 25.6349C10.5161 27.1349 13.8692 26.3035 13.0164 27.1349C9.11317 30.9849 7.01611 30.1349 7.51615 33.6349C4.01613 35.6349 10.2847 36.1909 15.2895 36.1909H27.4939C32.5002 36.1909 36.981 32.51 36.1711 27.6541" fill="#EBD09B"/>
<path d="M36.1728 27.6541C35.2669 22.2469 33.4196 26.485 29.5164 22.635C28.6619 21.8036 31.0161 22.635 30.5161 21.6346C29.8753 20.6732 28.8169 21.0943 28.0078 21.784C27.2212 22.4545 26.5109 23.2621 25.5999 23.7503L23.0164 25.1347C18 26.5 15.2895 23.9619 13.0164 25.6349C10.5161 27.1349 13.8692 26.3035 13.0164 27.1349C9.11317 30.9849 7.01611 30.1349 7.51615 33.6349C4.01613 35.6349 10.2847 36.1909 15.2895 36.1909H27.4939C32.5002 36.1909 36.981 32.51 36.1711 27.6541" stroke="#2B174B" stroke-width="0.5" stroke-linecap="round" stroke-linejoin="round"/>
<path d="M11.3091 37.3983C10.6671 37.1888 10.1415 36.8443 9.80937 36.4618C9.47574 36.0775 9.34854 35.6701 9.46186 35.3228C9.57519 34.9756 9.91817 34.7217 10.4143 34.6081C10.9081 34.4951 11.5357 34.527 12.1778 34.7365C12.8198 34.946 13.3454 35.2905 13.6775 35.6731C14.0112 36.0573 14.1384 36.4647 14.025 36.812C13.9117 37.1592 13.5687 37.4131 13.0726 37.5267C12.5788 37.6397 11.9512 37.6078 11.3091 37.3983Z" fill="#CDB891" stroke="#2B174B" stroke-width="0.2"/>
<path d="M11.4419 37.0585C10.7999 36.849 10.2743 36.5045 9.94218 36.1219C9.60855 35.7376 9.48135 35.3303 9.59468 34.983C9.708 34.6357 10.051 34.3818 10.5471 34.2683C11.0409 34.1553 11.6686 34.1871 12.3106 34.3966C12.9526 34.6062 13.4782 34.9507 13.8103 35.3332C14.144 35.7175 14.2712 36.1249 14.1578 36.4721C14.0445 36.8194 13.7015 37.0733 13.2054 37.1868C12.7116 37.2998 12.084 37.268 11.4419 37.0585Z" fill="#FFECC6" stroke="#2B174B" stroke-width="0.2"/>
<path d="M18.7907 31.7394C18.3715 31.9898 17.9351 32.1119 17.5714 32.1112C17.2055 32.1105 16.932 31.987 16.8022 31.7698C16.6724 31.5525 16.6934 31.2532 16.8662 30.9306C17.038 30.6101 17.3524 30.2837 17.7716 30.0333C18.1908 29.7829 18.6272 29.6608 18.9909 29.6615C19.3569 29.6622 19.6304 29.7856 19.7601 30.0029C19.8899 30.2201 19.869 30.5194 19.6961 30.842C19.5243 31.1626 19.21 31.4889 18.7907 31.7394Z" fill="#DAC59B" stroke="#2B174B" stroke-width="0.2"/>
<path d="M18.6672 31.504C18.248 31.7544 17.8116 31.8765 17.4479 31.8758C17.0819 31.8751 16.8084 31.7517 16.6787 31.5344C16.5489 31.3172 16.5698 31.0178 16.7427 30.6953C16.9145 30.3747 17.2289 30.0483 17.6481 29.7979C18.0673 29.5475 18.5037 29.4254 18.8674 29.4261C19.2333 29.4268 19.5068 29.5503 19.6366 29.7675C19.7664 29.9848 19.7454 30.2841 19.5726 30.6067C19.4008 30.9272 19.0864 31.2536 18.6672 31.504Z" fill="#FFECC6" stroke="#2B174B" stroke-width="0.2"/>
<path d="M16.5037 31.7821C16.6733 31.4656 16.7414 31.1224 16.7184 30.8263C16.6954 30.5298 16.5829 30.2903 16.4 30.158C16.2172 30.0256 15.9826 30.0139 15.7435 30.1206C15.5047 30.2272 15.2696 30.4496 15.0999 30.766C14.9303 31.0825 14.8622 31.4257 14.8852 31.7219C14.9082 32.0183 15.0207 32.2578 15.2036 32.3901C15.3864 32.5225 15.621 32.5342 15.8601 32.4275C16.0989 32.3209 16.334 32.0986 16.5037 31.7821Z" fill="#A28F6A" stroke="#2B174B" stroke-width="0.2"/>
<path d="M16.3079 31.6542C16.4775 31.3377 16.5456 30.9944 16.5226 30.6983C16.4996 30.4019 16.3871 30.1624 16.2042 30.03C16.0214 29.8977 15.7868 29.886 15.5477 29.9927C15.3089 30.0993 15.0738 30.3216 14.9041 30.6381C14.7345 30.9546 14.6664 31.2978 14.6894 31.5939C14.7124 31.8904 14.8249 32.1298 15.0078 32.2622C15.1906 32.3946 15.4252 32.4063 15.6643 32.2996C15.9031 32.193 16.1382 31.9706 16.3079 31.6542Z" fill="#FAD07E" stroke="#2B174B" stroke-width="0.2"/>
</svg>
