<svg width="43" height="40" viewBox="0 0 43 40" fill="none" xmlns="http://www.w3.org/2000/svg">
<path d="M35.3806 17.0358L32.5831 9.25336C33.169 7.66592 33.7401 7.03413 34.034 6.79665C34.2523 6.61981 34.4429 6.55282 34.5991 6.59629C34.8846 6.67687 35.205 7.12755 35.4469 7.80067C36.2248 9.96346 36.1634 13.8097 35.3806 17.0357V17.0358ZM12.9894 15.8008L34.5877 18.2046L31.5621 9.78027L13.8742 7.81136C14.0533 10.3022 13.7421 13.325 12.9893 15.8007L12.9894 15.8008ZM12.7296 7.68441L9.61828 7.33805L12.1751 14.453C12.7118 12.2411 12.9087 9.73667 12.7296 7.68441ZM10.8294 4.21326C10.5675 4.42715 10.0857 4.94917 9.56926 6.18418L31.5968 8.63654C31.965 7.69165 32.3819 6.93222 32.8314 6.39455L11.3359 4.00214C11.1583 3.98213 10.962 4.10632 10.8292 4.21326H10.8294ZM30.2062 23.7622L30.2483 35.4467L34.8298 31.7465L34.7876 20.0621L30.2062 23.7622ZM29.1065 36L7.04281 33.5442L7 21.5452L29.0644 24.0011L29.1065 36ZM18.7882 25.6333C18.9045 25.5717 19.0003 25.4775 19.0637 25.3622C19.1271 25.2469 19.1553 25.1156 19.1451 24.9844C19.1279 24.5452 18.7747 24.1502 18.3558 24.0974H18.3472C17.9233 24.0496 17.5943 24.3683 17.6121 24.8104C17.6202 24.9537 17.6601 25.0933 17.729 25.2191C17.7978 25.345 17.894 25.4539 18.0103 25.5379L17.8605 27.2678L19.0737 27.4061L18.7882 25.6333ZM33.929 19.287L12.6996 16.9239V21.0319L29.4583 22.8973L33.929 19.287ZM7.84998 20.492L11.602 20.9099V17.4616L7.84998 20.492Z" fill="#EBD09B"/>
</svg>
