<svg width="43" height="40" viewBox="0 0 43 40" fill="none" xmlns="http://www.w3.org/2000/svg">
<path d="M18.7531 20.7143L18.7208 20.7101H18.7046C17.9042 20.6351 17.3368 21.2902 17.3662 22.0499L17.3662 22.0499L17.3666 22.0575C17.3793 22.2935 17.4425 22.5245 17.5525 22.7336C17.6165 22.8553 17.6955 22.968 17.7876 23.069L17.6422 24.8168L17.6021 25.2979L18.0815 25.3548L19.4228 25.514L20.0765 25.5916L19.9759 24.941L19.7046 23.1873C19.7868 23.1018 19.8569 23.0048 19.9128 22.8991C20.0258 22.6852 20.0763 22.4436 20.06 22.2029C20.0286 21.4844 19.4811 20.8098 18.7531 20.7143ZM36.3592 17.6369L36.4013 29.7798L32.333 33.1996L32.291 21.0566L36.3592 17.6369ZM30.0292 21.5448L30.0724 34.3452L6.67865 31.6351L6.63477 18.8347L30.0292 21.5448Z" fill="#EBD09B" stroke="#EBD09B"/>
<path fill-rule="evenodd" clip-rule="evenodd" d="M37.3048 9.4931L37.3829 9.50049V9.61061C37.3577 9.57062 37.3317 9.53144 37.3048 9.4931ZM32.5733 9.04567L10.9404 7C7.84329 8.75381 5.98253 12.0882 6.11611 15.6449L6.18263 17.4159L30.5398 20.0917V20C30.5398 19.5112 30.5272 18.9675 30.5139 18.391C30.4736 16.6444 30.4264 14.597 30.7 12.8637C30.8834 11.7017 31.2216 10.5843 31.8673 9.74634C32.0739 9.47811 32.3089 9.24287 32.5733 9.04567ZM36.7513 14.6745L31.8215 18.6546L31.8125 18.2548C31.7732 16.5348 31.7305 14.6727 31.9841 13.0664C32.154 11.99 32.4462 11.1249 32.897 10.5398C33.3209 9.98973 33.9111 9.64996 34.8203 9.65C35.3022 9.65002 35.631 9.73936 35.8651 9.88156C36.0917 10.0191 36.2875 10.2412 36.4436 10.618C36.7613 11.3847 36.8649 12.6615 36.7513 14.6745Z" fill="#EBD09B"/>
</svg>
