<svg width="357" height="73" viewBox="0 0 357 73" fill="none" xmlns="http://www.w3.org/2000/svg">
<path fill-rule="evenodd" clip-rule="evenodd" d="M9 1H348C348 5.41828 351.582 9 356 9V64C351.582 64 348 67.5817 348 72H9C9 67.5817 5.41828 64 1 64V9C5.41828 9 9 5.41828 9 1Z" fill="#0E0923"/>
<path d="M348 1H348.5V0.5H348V1ZM9 1V0.5H8.5V1H9ZM356 9H356.5V8.5H356V9ZM356 64V64.5H356.5V64H356ZM348 72V72.5H348.5V72H348ZM9 72H8.5V72.5H9V72ZM1 64H0.5V64.5H1V64ZM1 9V8.5H0.5V9H1ZM348 0.5H9V1.5H348V0.5ZM356 8.5C351.858 8.5 348.5 5.14214 348.5 1H347.5C347.5 5.69442 351.306 9.5 356 9.5V8.5ZM356.5 64V9H355.5V64H356.5ZM348.5 72C348.5 67.8579 351.858 64.5 356 64.5V63.5C351.306 63.5 347.5 67.3056 347.5 72H348.5ZM9 72.5H348V71.5H9V72.5ZM1 64.5C5.14214 64.5 8.5 67.8579 8.5 72H9.5C9.5 67.3056 5.69442 63.5 1 63.5V64.5ZM0.5 9V64H1.5V9H0.5ZM8.5 1C8.5 5.14214 5.14214 8.5 1 8.5V9.5C5.69442 9.5 9.5 5.69442 9.5 1H8.5Z" fill="#EBD09B"/>
</svg>
