<svg width="68" height="68" viewBox="0 0 68 68" fill="none" xmlns="http://www.w3.org/2000/svg">
<g filter="url(#filter0_d_2217_11133)">
<path d="M15.9999 25.4965H20.4105V35.9104C17.6539 35.9104 15.9999 33.9616 15.9999 32.3782V25.4965Z" fill="url(#paint0_linear_2217_11133)"/>
<path d="M15.9999 25.4965H20.4105V35.9104C17.6539 35.9104 15.9999 33.9616 15.9999 32.3782V25.4965Z" stroke="url(#paint1_linear_2217_11133)" stroke-width="0.59013"/>
<path d="M52.9999 25.4965H48.5893V35.9104C51.3459 35.9104 52.9999 33.9616 52.9999 32.3782V25.4965Z" fill="url(#paint2_linear_2217_11133)"/>
<path d="M52.9999 25.4965H48.5893V35.9104C51.3459 35.9104 52.9999 33.9616 52.9999 32.3782V25.4965Z" stroke="url(#paint3_linear_2217_11133)" stroke-width="0.59013"/>
<path d="M28.6193 34.9298H40.565V52.0547L34.9411 55.282C34.6781 55.433 34.3545 55.4324 34.092 55.2805L28.6193 52.1135V34.9298Z" fill="#BB9986" stroke="url(#paint4_linear_2217_11133)" stroke-width="0.59013"/>
<path fill-rule="evenodd" clip-rule="evenodd" d="M27.7619 34.9301V51.7202L23.0362 48.9478C22.7759 48.7952 22.6161 48.5161 22.6161 48.2144V34.9301H27.7619Z" fill="#8C685C" stroke="url(#paint5_linear_2217_11133)" stroke-width="0.59013"/>
<path fill-rule="evenodd" clip-rule="evenodd" d="M41.3605 34.9298V51.7199L46.0863 48.9476C46.3465 48.7949 46.5063 48.5158 46.5063 48.2141V34.9298H41.3605Z" fill="#8C685C" stroke="url(#paint6_linear_2217_11133)" stroke-width="0.59013"/>
<path d="M46.0776 42.2202V48.0398C45.8122 48.0602 45.269 48.2848 45.22 49.0199L41.8508 50.9802V44.303" stroke="url(#paint7_linear_2217_11133)" stroke-width="0.295065"/>
<path fill-rule="evenodd" clip-rule="evenodd" d="M39.9521 45.4664H40.0746V51.5217L40.0234 51.5302C39.8429 51.5603 39.6887 51.6038 39.5564 51.7222C39.4237 51.841 39.3055 52.0421 39.2151 52.4035L39.2088 52.429L34.6568 55.0125L34.6226 55.0228L34.6224 55.0221V55.0229H34.4837L29.9137 52.4291L29.9073 52.4036C29.8169 52.0422 29.6987 51.8411 29.566 51.7223C29.4337 51.604 29.2795 51.5604 29.099 51.5303L29.0479 51.5218V45.4666H29.1704V51.4185C29.3395 51.4503 29.5035 51.502 29.6477 51.631C29.8023 51.7693 29.9269 51.9898 30.0197 52.3484L34.516 54.9004H34.6061L39.1028 52.3482C39.1955 51.9897 39.3202 51.7692 39.4747 51.6309C39.619 51.5018 39.783 51.4501 39.9521 51.4184V45.4664Z" fill="url(#paint8_linear_2217_11133)"/>
<path d="M23.1058 42.2202V48.0398C23.3713 48.0602 23.9144 48.2848 23.9635 49.0199L27.3327 50.9802V44.303" stroke="url(#paint9_linear_2217_11133)" stroke-width="0.295065"/>
<g filter="url(#filter1_d_2217_11133)">
<path d="M32.1029 14.3039L21.8044 19.9062C20.1902 20.7844 19.1853 22.4749 19.1853 24.3126L19.1853 37.2793C19.1853 39.1169 20.1902 40.8074 21.8044 41.6856L32.1029 47.2879C33.5975 48.1009 35.4023 48.1009 36.8969 47.2879L47.1954 41.6856C48.8097 40.8074 49.8146 39.1169 49.8146 37.2793L49.8146 24.3126C49.8146 22.4749 48.8097 20.7844 47.1954 19.9062L36.8969 14.3039C35.4023 13.4909 33.5975 13.4909 32.1029 14.3039Z" fill="url(#paint10_linear_2217_11133)"/>
<path d="M32.0937 16.994L24.1224 21.3302C22.5143 22.2051 21.5132 23.8893 21.5132 25.72L21.5132 35.8091C21.5132 37.6398 22.5143 39.324 24.1224 40.1988L32.0937 44.5351C33.5826 45.3451 35.3806 45.3451 36.8696 44.5351L44.8408 40.1988C46.449 39.324 47.4501 37.6398 47.4501 35.8091L47.4501 25.72C47.4501 23.8893 46.449 22.2051 44.8408 21.3302L36.8696 16.994C35.3806 16.184 33.5826 16.184 32.0937 16.994Z" fill="url(#paint11_linear_2217_11133)"/>
<g filter="url(#filter2_f_2217_11133)">
<path d="M32.0937 16.994L24.1224 21.3302C22.5143 22.2051 21.5132 23.8893 21.5132 25.72L21.5132 35.8091C21.5132 37.6398 22.5143 39.324 24.1224 40.1988L32.0937 44.5351C33.5826 45.3451 35.3806 45.3451 36.8696 44.5351L44.8408 40.1988C46.449 39.324 47.4501 37.6398 47.4501 35.8091L47.4501 25.72C47.4501 23.8893 46.449 22.2051 44.8408 21.3302L36.8696 16.994C35.3806 16.184 33.5826 16.184 32.0937 16.994Z" stroke="url(#paint12_linear_2217_11133)" stroke-width="0.295065"/>
</g>
<g opacity="0.5">
<mask id="mask0_2217_11133" style="mask-type:alpha" maskUnits="userSpaceOnUse" x="22" y="17" width="25" height="28">
<path d="M32.2915 18.154L25.0995 22.0628C23.5689 22.8947 22.616 24.4972 22.616 26.2393L22.616 35.338C22.616 37.08 23.5689 38.6825 25.0995 39.5144L32.2915 43.4233C33.707 44.1926 35.4158 44.1926 36.8313 43.4233L44.0232 39.5144C45.5538 38.6825 46.5068 37.08 46.5068 35.338L46.5068 26.2393C46.5068 24.4972 45.5539 22.8947 44.0232 22.0628L36.8313 18.154C35.4158 17.3847 33.707 17.3847 32.2915 18.154Z" fill="#A6D3DE"/>
</mask>
<g mask="url(#mask0_2217_11133)">
<path d="M32.2915 18.154L25.0995 22.0628C23.5689 22.8947 22.616 24.4972 22.616 26.2393L22.616 35.338C22.616 37.08 23.5689 38.6825 25.0995 39.5144L32.2915 43.4233C33.707 44.1926 35.4158 44.1926 36.8313 43.4233L44.0232 39.5144C45.5538 38.6825 46.5068 37.08 46.5068 35.338L46.5068 26.2393C46.5068 24.4972 45.5539 22.8947 44.0232 22.0628L36.8313 18.154C35.4158 17.3847 33.707 17.3847 32.2915 18.154Z" fill="url(#paint13_radial_2217_11133)"/>
<path opacity="0.5" d="M32.5641 45.2046L32.0896 16.3708H37.0325L36.558 45.2046H32.5641Z" fill="url(#paint14_linear_2217_11133)"/>
<path opacity="0.5" d="M32.5002 44.9492L17.6724 20.2157L21.9531 17.7442L35.959 42.9523L32.5002 44.9492Z" fill="url(#paint15_linear_2217_11133)"/>
<path opacity="0.5" d="M32.0884 42.9524L46.0944 17.7444L50.3751 20.2158L35.5472 44.9493L32.0884 42.9524Z" fill="url(#paint16_linear_2217_11133)"/>
<rect x="22.6158" y="29.1403" width="23.8908" height="15.5153" fill="url(#paint17_linear_2217_11133)"/>
<g filter="url(#filter3_i_2217_11133)">
<path d="M32.2915 18.154L25.0995 22.0628C23.5689 22.8947 22.616 24.4972 22.616 26.2393L22.616 35.338C22.616 37.08 23.5689 38.6825 25.0995 39.5144L32.2915 43.4233C33.707 44.1926 35.4158 44.1926 36.8313 43.4233L44.0232 39.5144C45.5538 38.6825 46.5068 37.08 46.5068 35.338L46.5068 26.2393C46.5068 24.4972 45.5539 22.8947 44.0232 22.0628L36.8313 18.154C35.4158 17.3847 33.707 17.3847 32.2915 18.154Z" fill="#F5C4AF" fill-opacity="0.03"/>
</g>
</g>
</g>
</g>
<g filter="url(#filter4_d_2217_11133)">
<path fill-rule="evenodd" clip-rule="evenodd" d="M34.6245 31.116C37.208 31.116 39.3022 29.0217 39.3022 26.4382C39.3022 23.8548 37.208 21.7605 34.6245 21.7605C32.0411 21.7605 29.9468 23.8548 29.9468 26.4382C29.9468 29.0217 32.0411 31.116 34.6245 31.116ZM33.9014 30.8446C35.8608 30.8446 37.4492 29.2562 37.4492 27.2968C37.4492 25.3373 35.8608 23.7489 33.9014 23.7489C31.9419 23.7489 30.3535 25.3373 30.3535 27.2968C30.3535 29.2562 31.9419 30.8446 33.9014 30.8446Z" fill="url(#paint18_linear_2217_11133)"/>
</g>
</g>
<defs>
<filter id="filter0_d_2217_11133" x="9.68586" y="7.67524" width="49.628" height="54.0336" filterUnits="userSpaceOnUse" color-interpolation-filters="sRGB">
<feFlood flood-opacity="0" result="BackgroundImageFix"/>
<feColorMatrix in="SourceAlpha" type="matrix" values="0 0 0 0 0 0 0 0 0 0 0 0 0 0 0 0 0 0 127 0" result="hardAlpha"/>
<feOffset/>
<feGaussianBlur stdDeviation="3.00949"/>
<feColorMatrix type="matrix" values="0 0 0 0 0.9375 0 0 0 0 0.695 0 0 0 0 0.558594 0 0 0 1 0"/>
<feBlend mode="normal" in2="BackgroundImageFix" result="effect1_dropShadow_2217_11133"/>
<feBlend mode="normal" in="SourceGraphic" in2="effect1_dropShadow_2217_11133" result="shape"/>
</filter>
<filter id="filter1_d_2217_11133" x="17.4149" y="13.6942" width="34.1701" height="38.3344" filterUnits="userSpaceOnUse" color-interpolation-filters="sRGB">
<feFlood flood-opacity="0" result="BackgroundImageFix"/>
<feColorMatrix in="SourceAlpha" type="matrix" values="0 0 0 0 0 0 0 0 0 0 0 0 0 0 0 0 0 0 127 0" result="hardAlpha"/>
<feOffset dy="2.36052"/>
<feGaussianBlur stdDeviation="0.885195"/>
<feColorMatrix type="matrix" values="0 0 0 0 0.491667 0 0 0 0 0.276808 0 0 0 0 0.208958 0 0 0 0.54 0"/>
<feBlend mode="normal" in2="BackgroundImageFix" result="effect1_dropShadow_2217_11133"/>
<feBlend mode="normal" in="SourceGraphic" in2="effect1_dropShadow_2217_11133" result="shape"/>
</filter>
<filter id="filter2_f_2217_11133" x="21.1886" y="16.062" width="26.5861" height="29.4052" filterUnits="userSpaceOnUse" color-interpolation-filters="sRGB">
<feFlood flood-opacity="0" result="BackgroundImageFix"/>
<feBlend mode="normal" in="SourceGraphic" in2="BackgroundImageFix" result="shape"/>
<feGaussianBlur stdDeviation="0.0885195" result="effect1_foregroundBlur_2217_11133"/>
</filter>
<filter id="filter3_i_2217_11133" x="22.616" y="17.577" width="23.8909" height="26.4232" filterUnits="userSpaceOnUse" color-interpolation-filters="sRGB">
<feFlood flood-opacity="0" result="BackgroundImageFix"/>
<feBlend mode="normal" in="SourceGraphic" in2="BackgroundImageFix" result="shape"/>
<feColorMatrix in="SourceAlpha" type="matrix" values="0 0 0 0 0 0 0 0 0 0 0 0 0 0 0 0 0 0 127 0" result="hardAlpha"/>
<feOffset/>
<feGaussianBlur stdDeviation="1.98406"/>
<feComposite in2="hardAlpha" operator="arithmetic" k2="-1" k3="1"/>
<feColorMatrix type="matrix" values="0 0 0 0 0.283333 0 0 0 0 0.158667 0 0 0 0 0.0566667 0 0 0 1 0"/>
<feBlend mode="normal" in2="shape" result="effect1_innerShadow_2217_11133"/>
</filter>
<filter id="filter4_d_2217_11133" x="27.9193" y="20.6934" width="13.6238" height="13.6238" filterUnits="userSpaceOnUse" color-interpolation-filters="sRGB">
<feFlood flood-opacity="0" result="BackgroundImageFix"/>
<feColorMatrix in="SourceAlpha" type="matrix" values="0 0 0 0 0 0 0 0 0 0 0 0 0 0 0 0 0 0 127 0" result="hardAlpha"/>
<feOffset dx="0.106708" dy="1.06708"/>
<feGaussianBlur stdDeviation="1.06708"/>
<feColorMatrix type="matrix" values="0 0 0 0 0.620833 0 0 0 0 0.428789 0 0 0 0 0.320764 0 0 0 0.44 0"/>
<feBlend mode="normal" in2="BackgroundImageFix" result="effect1_dropShadow_2217_11133"/>
<feBlend mode="normal" in="SourceGraphic" in2="effect1_dropShadow_2217_11133" result="shape"/>
</filter>
<linearGradient id="paint0_linear_2217_11133" x1="18.2052" y1="25.4965" x2="18.2052" y2="35.9104" gradientUnits="userSpaceOnUse">
<stop stop-color="#EFD9BD"/>
<stop offset="1" stop-color="#C39470"/>
</linearGradient>
<linearGradient id="paint1_linear_2217_11133" x1="15.9999" y1="25.4965" x2="18.2052" y2="35.9104" gradientUnits="userSpaceOnUse">
<stop stop-color="#F3DDC4"/>
<stop offset="0.378992" stop-color="#F3DDC4"/>
<stop offset="0.46253" stop-color="#F3DDC4"/>
<stop offset="1" stop-color="#74523F"/>
</linearGradient>
<linearGradient id="paint2_linear_2217_11133" x1="50.7946" y1="25.4965" x2="50.7946" y2="35.9104" gradientUnits="userSpaceOnUse">
<stop stop-color="#EFD9BD"/>
<stop offset="1" stop-color="#C39470"/>
</linearGradient>
<linearGradient id="paint3_linear_2217_11133" x1="52.9999" y1="25.4965" x2="50.7946" y2="35.9104" gradientUnits="userSpaceOnUse">
<stop stop-color="#F3DDC4"/>
<stop offset="0.378992" stop-color="#F3DDC4"/>
<stop offset="0.46253" stop-color="#F3DDC4"/>
<stop offset="1" stop-color="#74523F"/>
</linearGradient>
<linearGradient id="paint4_linear_2217_11133" x1="28.6191" y1="50.857" x2="40.6258" y2="51.8984" gradientUnits="userSpaceOnUse">
<stop stop-color="#D8B697"/>
<stop offset="0.374385" stop-color="#F0D6BD"/>
<stop offset="0.71988" stop-color="#C89E78"/>
<stop offset="0.9381" stop-color="#DFCBB9"/>
</linearGradient>
<linearGradient id="paint5_linear_2217_11133" x1="22.616" y1="47.9141" x2="27.8161" y2="48.1524" gradientUnits="userSpaceOnUse">
<stop stop-color="#D8B697"/>
<stop offset="0.374385" stop-color="#F0D6BD"/>
<stop offset="0.71988" stop-color="#C89E78"/>
<stop offset="0.9381" stop-color="#DFCBB9"/>
</linearGradient>
<linearGradient id="paint6_linear_2217_11133" x1="46.5064" y1="47.9138" x2="41.3063" y2="48.1522" gradientUnits="userSpaceOnUse">
<stop stop-color="#D8B697"/>
<stop offset="0.374385" stop-color="#F0D6BD"/>
<stop offset="0.71988" stop-color="#C89E78"/>
<stop offset="0.9381" stop-color="#DFCBB9"/>
</linearGradient>
<linearGradient id="paint7_linear_2217_11133" x1="46.0777" y1="48.9944" x2="41.8195" y2="49.3017" gradientUnits="userSpaceOnUse">
<stop stop-color="#D8B697"/>
<stop offset="0.374385" stop-color="#F0D6BD"/>
<stop offset="0.71988" stop-color="#C89E78"/>
<stop offset="0.9381" stop-color="#DFCBB9"/>
</linearGradient>
<linearGradient id="paint8_linear_2217_11133" x1="29.2929" y1="48.2843" x2="39.1555" y2="52.3274" gradientUnits="userSpaceOnUse">
<stop offset="0.192454" stop-color="#DFCBB9"/>
<stop offset="0.475371" stop-color="#D8B290"/>
<stop offset="0.678187" stop-color="#DEBFA4"/>
<stop offset="0.866423" stop-color="#DFCBB9"/>
</linearGradient>
<linearGradient id="paint9_linear_2217_11133" x1="23.1058" y1="48.9944" x2="27.364" y2="49.3017" gradientUnits="userSpaceOnUse">
<stop stop-color="#D8B697"/>
<stop offset="0.374385" stop-color="#F0D6BD"/>
<stop offset="0.71988" stop-color="#C89E78"/>
<stop offset="0.9381" stop-color="#DFCBB9"/>
</linearGradient>
<linearGradient id="paint10_linear_2217_11133" x1="28.0678" y1="17.2881" x2="41.851" y2="44.6707" gradientUnits="userSpaceOnUse">
<stop stop-color="#F1DCC1"/>
<stop offset="1" stop-color="#BD8A65"/>
</linearGradient>
<linearGradient id="paint11_linear_2217_11133" x1="27.9453" y1="19.5542" x2="39.8295" y2="41.4848" gradientUnits="userSpaceOnUse">
<stop stop-color="#BF8E69"/>
<stop offset="1" stop-color="#E4C196"/>
</linearGradient>
<linearGradient id="paint12_linear_2217_11133" x1="29.2318" y1="18.7579" x2="42.0348" y2="41.7911" gradientUnits="userSpaceOnUse">
<stop stop-color="#EBD4B7"/>
<stop offset="1" stop-color="#FFE3CE"/>
</linearGradient>
<radialGradient id="paint13_radial_2217_11133" cx="0" cy="0" r="1" gradientUnits="userSpaceOnUse" gradientTransform="translate(34.5614 30.7886) rotate(90) scale(13.8683 11.9454)">
<stop stop-color="#E3C29C"/>
<stop offset="1" stop-color="#D1A479"/>
</radialGradient>
<linearGradient id="paint14_linear_2217_11133" x1="34.5611" y1="16.3708" x2="34.5611" y2="45.2046" gradientUnits="userSpaceOnUse">
<stop stop-color="white"/>
<stop offset="1" stop-color="#F2EDED" stop-opacity="0"/>
</linearGradient>
<linearGradient id="paint15_linear_2217_11133" x1="19.8127" y1="18.98" x2="34.2296" y2="43.9507" gradientUnits="userSpaceOnUse">
<stop stop-color="white"/>
<stop offset="1" stop-color="#F2EDED" stop-opacity="0"/>
</linearGradient>
<linearGradient id="paint16_linear_2217_11133" x1="48.2347" y1="18.9801" x2="33.8178" y2="43.9509" gradientUnits="userSpaceOnUse">
<stop stop-color="white"/>
<stop offset="1" stop-color="#F2EDED" stop-opacity="0"/>
</linearGradient>
<linearGradient id="paint17_linear_2217_11133" x1="34.5613" y1="35.8681" x2="34.4892" y2="43.6943" gradientUnits="userSpaceOnUse">
<stop offset="0.291667" stop-color="#FFFAF7" stop-opacity="0"/>
<stop offset="1" stop-color="#E4CBAD"/>
</linearGradient>
<linearGradient id="paint18_linear_2217_11133" x1="33.8836" y1="19.4154" x2="40.2955" y2="21.3641" gradientUnits="userSpaceOnUse">
<stop offset="0.168737" stop-color="#FFEFDC"/>
<stop offset="0.360439" stop-color="#FFF3E3"/>
<stop offset="0.47754" stop-color="#FFEAD1"/>
<stop offset="0.655872" stop-color="#F0DBC0"/>
<stop offset="0.80404" stop-color="#F0DBC2"/>
</linearGradient>
</defs>
</svg>
