<svg width="68" height="68" viewBox="0 0 68 68" fill="none" xmlns="http://www.w3.org/2000/svg">
<g filter="url(#filter0_d_2217_11173)">
<path d="M21.2539 48.6911V35.9133H31.7093V45.8053L22.4687 49.5126C21.8871 49.7459 21.2539 49.3177 21.2539 48.6911Z" fill="#8C7A79"/>
<path d="M47.8621 48.6911V35.9133H37.4066V45.8053L46.6473 49.5126C47.2288 49.7459 47.8621 49.3177 47.8621 48.6911Z" fill="#8C7A79"/>
<g filter="url(#filter1_d_2217_11173)">
<path d="M32.2548 14.3039L21.6191 20.0897C20.0049 20.9678 19 22.6583 19 24.496L19 37.8795C19 39.7171 20.0049 41.4077 21.6191 42.2858L32.2548 48.0716C33.7494 48.8846 35.5543 48.8846 37.0488 48.0716L47.6846 42.2858C49.2988 41.4077 50.3037 39.7172 50.3037 37.8795L50.3037 24.496C50.3037 22.6584 49.2988 20.9678 47.6846 20.0897L37.0488 14.3039C35.5543 13.4909 33.7494 13.4909 32.2548 14.3039Z" fill="url(#paint0_linear_2217_11173)"/>
<path d="M32.2452 17.0528L23.9884 21.5444C22.3802 22.4192 21.3792 24.1034 21.3792 25.9342L21.3792 36.3762C21.3792 38.207 22.3802 39.8911 23.9884 40.766L32.2452 45.2576C33.7341 46.0675 35.5322 46.0675 37.0211 45.2576L45.2779 40.766C46.8861 39.8911 47.8871 38.207 47.8871 36.3762L47.8871 25.9342C47.8871 24.1034 46.8861 22.4192 45.2779 21.5444L37.0211 17.0528C35.5322 16.2428 33.7341 16.2428 32.2452 17.0528Z" fill="url(#paint1_linear_2217_11173)"/>
<g filter="url(#filter2_f_2217_11173)">
<path d="M32.2452 17.0528L23.9884 21.5444C22.3802 22.4192 21.3792 24.1034 21.3792 25.9342L21.3792 36.3762C21.3792 38.207 22.3802 39.8911 23.9884 40.766L32.2452 45.2576C33.7341 46.0675 35.5322 46.0675 37.0211 45.2576L45.2779 40.766C46.8861 39.8911 47.8871 38.207 47.8871 36.3762L47.8871 25.9342C47.8871 24.1034 46.8861 22.4192 45.2779 21.5444L37.0211 17.0528C35.5322 16.2428 33.7341 16.2428 32.2452 17.0528Z" stroke="url(#paint2_linear_2217_11173)" stroke-width="0.295065"/>
</g>
<g opacity="0.5">
<mask id="mask0_2217_11173" style="mask-type:alpha" maskUnits="userSpaceOnUse" x="22" y="17" width="25" height="28">
<path d="M32.4445 18.2402L24.9895 22.2919C23.4589 23.1238 22.506 24.7263 22.506 26.4684L22.506 35.8919C22.506 37.634 23.4589 39.2365 24.9895 40.0684L32.4445 44.1202C33.86 44.8895 35.5688 44.8895 36.9843 44.1202L44.4393 40.0684C45.9699 39.2365 46.9228 37.634 46.9228 35.8919L46.9228 26.4684C46.9228 24.7263 45.9699 23.1238 44.4393 22.292L36.9843 18.2402C35.5688 17.4708 33.86 17.4708 32.4445 18.2402Z" fill="#A6D3DE"/>
</mask>
<g mask="url(#mask0_2217_11173)">
<path d="M32.4445 18.2402L24.9895 22.2919C23.4589 23.1238 22.506 24.7263 22.506 26.4684L22.506 35.8919C22.506 37.634 23.4589 39.2365 24.9895 40.0684L32.4445 44.1202C33.86 44.8895 35.5688 44.8895 36.9843 44.1202L44.4393 40.0684C45.9699 39.2365 46.9228 37.634 46.9228 35.8919L46.9228 26.4684C46.9228 24.7263 45.9699 23.1238 44.4393 22.292L36.9843 18.2402C35.5688 17.4708 33.86 17.4708 32.4445 18.2402Z" fill="url(#paint3_radial_2217_11173)"/>
<path opacity="0.5" d="M32.6732 45.9132L32.1882 16.4446H37.24L36.755 45.9132H32.6732Z" fill="url(#paint4_linear_2217_11173)"/>
<path opacity="0.5" d="M32.6082 45.6518L17.4539 20.3737L21.8288 17.8478L36.1431 43.6108L32.6082 45.6518Z" fill="url(#paint5_linear_2217_11173)"/>
<path opacity="0.5" d="M32.1876 43.6107L46.502 17.8477L50.8769 20.3735L35.7226 45.6516L32.1876 43.6107Z" fill="url(#paint6_linear_2217_11173)"/>
<rect x="22.5059" y="29.4955" width="24.4169" height="15.8569" fill="url(#paint7_linear_2217_11173)"/>
<g filter="url(#filter3_i_2217_11173)">
<path d="M32.4445 18.2402L24.9895 22.2919C23.4589 23.1238 22.506 24.7263 22.506 26.4684L22.506 35.8919C22.506 37.634 23.4589 39.2365 24.9895 40.0684L32.4445 44.1202C33.86 44.8895 35.5688 44.8895 36.9843 44.1202L44.4393 40.0684C45.9699 39.2365 46.9228 37.634 46.9228 35.8919L46.9228 26.4684C46.9228 24.7263 45.9699 23.1238 44.4393 22.292L36.9843 18.2402C35.5688 17.4708 33.86 17.4708 32.4445 18.2402Z" fill="#BCB0AE" fill-opacity="0.03"/>
</g>
</g>
</g>
</g>
</g>
<g filter="url(#filter4_d_2217_11173)">
<path fill-rule="evenodd" clip-rule="evenodd" d="M34.652 33.1587C37.6948 33.1587 40.1615 30.692 40.1615 27.6492C40.1615 24.6064 37.6948 22.1398 34.652 22.1398C31.6092 22.1398 29.1426 24.6064 29.1426 27.6492C29.1426 30.692 31.6092 33.1587 34.652 33.1587ZM33.8 32.8391C36.1078 32.8391 37.9786 30.9682 37.9786 28.6604C37.9786 26.3526 36.1078 24.4818 33.8 24.4818C31.4922 24.4818 29.6213 26.3526 29.6213 28.6604C29.6213 30.9682 31.4922 32.8391 33.8 32.8391Z" fill="url(#paint8_linear_2217_11173)"/>
</g>
<defs>
<filter id="filter0_d_2217_11173" x="10.148" y="4.84226" width="49.0076" height="53.5868" filterUnits="userSpaceOnUse" color-interpolation-filters="sRGB">
<feFlood flood-opacity="0" result="BackgroundImageFix"/>
<feColorMatrix in="SourceAlpha" type="matrix" values="0 0 0 0 0 0 0 0 0 0 0 0 0 0 0 0 0 0 127 0" result="hardAlpha"/>
<feOffset/>
<feGaussianBlur stdDeviation="4.42598"/>
<feColorMatrix type="matrix" values="0 0 0 0 0.92549 0 0 0 0 0.909804 0 0 0 0 0.913725 0 0 0 0.48 0"/>
<feBlend mode="normal" in2="BackgroundImageFix" result="effect1_dropShadow_2217_11173"/>
<feBlend mode="normal" in="SourceGraphic" in2="effect1_dropShadow_2217_11173" result="shape"/>
</filter>
<filter id="filter1_d_2217_11173" x="17.2296" y="13.6942" width="34.8445" height="39.1181" filterUnits="userSpaceOnUse" color-interpolation-filters="sRGB">
<feFlood flood-opacity="0" result="BackgroundImageFix"/>
<feColorMatrix in="SourceAlpha" type="matrix" values="0 0 0 0 0 0 0 0 0 0 0 0 0 0 0 0 0 0 127 0" result="hardAlpha"/>
<feOffset dy="2.36052"/>
<feGaussianBlur stdDeviation="0.885195"/>
<feColorMatrix type="matrix" values="0 0 0 0 0.475 0 0 0 0 0.425521 0 0 0 0 0.425521 0 0 0 0.35 0"/>
<feBlend mode="normal" in2="BackgroundImageFix" result="effect1_dropShadow_2217_11173"/>
<feBlend mode="normal" in="SourceGraphic" in2="effect1_dropShadow_2217_11173" result="shape"/>
</filter>
<filter id="filter2_f_2217_11173" x="21.143" y="16.2093" width="26.9801" height="29.8918" filterUnits="userSpaceOnUse" color-interpolation-filters="sRGB">
<feFlood flood-opacity="0" result="BackgroundImageFix"/>
<feBlend mode="normal" in="SourceGraphic" in2="BackgroundImageFix" result="shape"/>
<feGaussianBlur stdDeviation="0.0442598" result="effect1_foregroundBlur_2217_11173"/>
</filter>
<filter id="filter3_i_2217_11173" x="22.506" y="17.6632" width="24.4169" height="27.0339" filterUnits="userSpaceOnUse" color-interpolation-filters="sRGB">
<feFlood flood-opacity="0" result="BackgroundImageFix"/>
<feBlend mode="normal" in="SourceGraphic" in2="BackgroundImageFix" result="shape"/>
<feColorMatrix in="SourceAlpha" type="matrix" values="0 0 0 0 0 0 0 0 0 0 0 0 0 0 0 0 0 0 127 0" result="hardAlpha"/>
<feOffset/>
<feGaussianBlur stdDeviation="1.98406"/>
<feComposite in2="hardAlpha" operator="arithmetic" k2="-1" k3="1"/>
<feColorMatrix type="matrix" values="0 0 0 0 0.508333 0 0 0 0 0.437506 0 0 0 0 0.415139 0 0 0 1 0"/>
<feBlend mode="normal" in2="shape" result="effect1_innerShadow_2217_11173"/>
</filter>
<filter id="filter4_d_2217_11173" x="27.1151" y="21.0727" width="15.2873" height="15.2873" filterUnits="userSpaceOnUse" color-interpolation-filters="sRGB">
<feFlood flood-opacity="0" result="BackgroundImageFix"/>
<feColorMatrix in="SourceAlpha" type="matrix" values="0 0 0 0 0 0 0 0 0 0 0 0 0 0 0 0 0 0 127 0" result="hardAlpha"/>
<feOffset dx="0.106708" dy="1.06708"/>
<feGaussianBlur stdDeviation="1.06708"/>
<feColorMatrix type="matrix" values="0 0 0 0 0.729167 0 0 0 0 0.653971 0 0 0 0 0.647135 0 0 0 0.38 0"/>
<feBlend mode="normal" in2="BackgroundImageFix" result="effect1_dropShadow_2217_11173"/>
<feBlend mode="normal" in="SourceGraphic" in2="effect1_dropShadow_2217_11173" result="shape"/>
</filter>
<linearGradient id="paint0_linear_2217_11173" x1="28.0781" y1="17.3825" x2="42.1647" y2="45.368" gradientUnits="userSpaceOnUse">
<stop stop-color="#EDE9EA"/>
<stop offset="1" stop-color="#BEB5B6"/>
</linearGradient>
<linearGradient id="paint1_linear_2217_11173" x1="27.9529" y1="19.698" x2="40.0987" y2="42.1115" gradientUnits="userSpaceOnUse">
<stop stop-color="#C3BBBB"/>
<stop offset="1" stop-color="#ECE8E9"/>
</linearGradient>
<linearGradient id="paint2_linear_2217_11173" x1="29.2677" y1="18.8842" x2="42.3526" y2="42.4245" gradientUnits="userSpaceOnUse">
<stop stop-color="#C9C2C3"/>
<stop offset="1" stop-color="white"/>
</linearGradient>
<radialGradient id="paint3_radial_2217_11173" cx="0" cy="0" r="1" gradientUnits="userSpaceOnUse" gradientTransform="translate(34.7144 31.1802) rotate(90) scale(14.1737 12.2084)">
<stop stop-color="#DFD6D5"/>
<stop offset="1" stop-color="#918888"/>
</radialGradient>
<linearGradient id="paint4_linear_2217_11173" x1="34.7141" y1="16.4446" x2="34.7141" y2="45.9132" gradientUnits="userSpaceOnUse">
<stop stop-color="white"/>
<stop offset="1" stop-color="#F2EDED" stop-opacity="0"/>
</linearGradient>
<linearGradient id="paint5_linear_2217_11173" x1="19.6413" y1="19.1107" x2="34.3757" y2="44.6313" gradientUnits="userSpaceOnUse">
<stop stop-color="white"/>
<stop offset="1" stop-color="#F2EDED" stop-opacity="0"/>
</linearGradient>
<linearGradient id="paint6_linear_2217_11173" x1="48.6894" y1="19.1106" x2="33.9551" y2="44.6312" gradientUnits="userSpaceOnUse">
<stop stop-color="white"/>
<stop offset="1" stop-color="#F2EDED" stop-opacity="0"/>
</linearGradient>
<linearGradient id="paint7_linear_2217_11173" x1="34.7143" y1="36.3715" x2="34.6406" y2="44.37" gradientUnits="userSpaceOnUse">
<stop stop-color="#DEDADA" stop-opacity="0"/>
<stop offset="1" stop-color="#DECFCF"/>
</linearGradient>
<linearGradient id="paint8_linear_2217_11173" x1="34.2138" y1="19.6355" x2="41.5573" y2="22.0542" gradientUnits="userSpaceOnUse">
<stop offset="0.168737" stop-color="#F5F4F5"/>
<stop offset="0.360439" stop-color="white"/>
<stop offset="0.477157" stop-color="#ECE8E9"/>
<stop offset="0.627859" stop-color="#E7E3E3"/>
<stop offset="0.80404" stop-color="#ECE8E9"/>
</linearGradient>
</defs>
</svg>
