<svg width="68" height="68" viewBox="0 0 68 68" fill="none" xmlns="http://www.w3.org/2000/svg">
<g clip-path="url(#clip0_2217_11054)">
<g opacity="0.5" filter="url(#filter0_f_2217_11054)">
<ellipse cx="34.6654" cy="10.4253" rx="1.46781" ry="1.46781" fill="url(#paint0_radial_2217_11054)"/>
</g>
<path fill-rule="evenodd" clip-rule="evenodd" d="M34.4212 53.3173C46.1757 53.3173 55.7045 43.7885 55.7045 32.034C55.7045 20.2796 46.1757 10.7507 34.4212 10.7507C22.6668 10.7507 13.138 20.2796 13.138 32.034C13.138 43.7885 22.6668 53.3173 34.4212 53.3173ZM34.4212 53.8066C46.4459 53.8066 56.1938 44.0587 56.1938 32.034C56.1938 20.0094 46.4459 10.2615 34.4212 10.2615C22.3966 10.2615 12.6487 20.0094 12.6487 32.034C12.6487 44.0587 22.3966 53.8066 34.4212 53.8066Z" fill="url(#paint1_linear_2217_11054)"/>
<g filter="url(#filter1_f_2217_11054)">
<path d="M34.6658 7.97876L34.8757 10.2003L36.9491 10.4251L34.8757 10.6499L34.6658 12.8715L34.456 10.6499L32.3826 10.4251L34.456 10.2003L34.6658 7.97876Z" fill="white"/>
</g>
<path d="M31.4616 25.3437L30.6073 6H37.4417L36.5874 25.3437H31.4616Z" fill="url(#paint2_linear_2217_11054)"/>
<path d="M39.4551 30.8735L56.6344 39.8055L53.2172 45.7243L36.8922 35.3126L39.4551 30.8735Z" fill="url(#paint3_linear_2217_11054)"/>
<path d="M36.4652 35.6563L37.3195 55H30.4851L31.3394 35.6563H36.4652Z" fill="url(#paint4_linear_2217_11054)"/>
<path d="M31.0665 35.3734L14.7415 45.7852L11.3243 39.8664L28.5036 30.9344L31.0665 35.3734Z" fill="url(#paint5_linear_2217_11054)"/>
<path d="M39.4551 30.1564L56.6344 21.2244L53.2172 15.3056L36.8922 25.7173L39.4551 30.1564Z" fill="url(#paint6_linear_2217_11054)"/>
<path d="M31.0665 25.6563L14.7415 15.2446L11.3243 21.1634L28.5036 30.0954L31.0665 25.6563Z" fill="url(#paint7_linear_2217_11054)"/>
<g filter="url(#filter2_dd_2217_11054)">
<path d="M21.3519 28.156L21.3519 23.3481L9.99993 23.3481C9.99993 26.353 12.1243 28.156 13.8503 28.156L21.3519 28.156Z" fill="url(#paint8_linear_2217_11054)"/>
<path d="M21.3519 28.156L21.3519 23.3481L9.99993 23.3481C9.99993 26.353 12.1243 28.156 13.8503 28.156L21.3519 28.156Z" stroke="url(#paint9_linear_2217_11054)" stroke-width="0.676914"/>
<path d="M25.3588 32.4287L25.3588 27.6208L14.0068 27.6208C14.0068 30.6257 16.1311 32.4287 17.8572 32.4287L25.3588 32.4287Z" fill="url(#paint10_linear_2217_11054)"/>
<path d="M25.3588 32.4287L25.3588 27.6208L14.0068 27.6208C14.0068 30.6257 16.1311 32.4287 17.8572 32.4287L25.3588 32.4287Z" stroke="url(#paint11_linear_2217_11054)" stroke-width="0.676914"/>
<path d="M46.364 28.156L46.364 23.3481L57.716 23.3481C57.716 26.353 55.5917 28.156 53.8656 28.156L46.364 28.156Z" fill="url(#paint12_linear_2217_11054)"/>
<path d="M46.364 28.156L46.364 23.3481L57.716 23.3481C57.716 26.353 55.5917 28.156 53.8656 28.156L46.364 28.156Z" stroke="url(#paint13_linear_2217_11054)" stroke-width="0.676914"/>
<path d="M42.3572 32.4287L42.3572 27.6208L53.7092 27.6208C53.7092 30.6257 51.5848 32.4287 49.8588 32.4287L42.3572 32.4287Z" fill="url(#paint14_linear_2217_11054)"/>
<path d="M42.3572 32.4287L42.3572 27.6208L53.7092 27.6208C53.7092 30.6257 51.5848 32.4287 49.8588 32.4287L42.3572 32.4287Z" stroke="url(#paint15_linear_2217_11054)" stroke-width="0.676914"/>
<g filter="url(#filter3_d_2217_11054)">
<path fill-rule="evenodd" clip-rule="evenodd" d="M27.3377 38.2512V48.5951L30.5123 50.301C30.7089 50.4067 30.947 50.2646 30.947 50.0414C30.9469 46.2597 30.9504 41.9882 30.9504 38.2512H27.3377Z" fill="#9CB7ED"/>
<path fill-rule="evenodd" clip-rule="evenodd" d="M27.3377 38.2512V48.5951L30.5123 50.301C30.7089 50.4067 30.947 50.2646 30.947 50.0414C30.9469 46.2597 30.9504 41.9882 30.9504 38.2512H27.3377Z" stroke="url(#paint16_linear_2217_11054)" stroke-width="0.295065"/>
</g>
<path fill-rule="evenodd" clip-rule="evenodd" d="M27.6362 48.132V44.0728H27.5702V48.187L27.5978 48.1916C27.689 48.2068 27.7905 48.2608 27.8734 48.3397C27.9562 48.4185 28.0175 48.5194 28.0326 48.6258L28.0352 48.6434L30.7059 50.0107V45.4271H30.6399V49.9069L28.0951 48.5986C28.0734 48.4809 28.0051 48.3739 27.9189 48.2919C27.8363 48.2131 27.7346 48.155 27.6362 48.132Z" fill="url(#paint17_linear_2217_11054)"/>
<path fill-rule="evenodd" clip-rule="evenodd" d="M30.6363 49.6649C30.7075 49.5445 30.7116 49.3738 30.7061 49.2635L30.6401 49.2668C30.6456 49.3766 30.6398 49.5294 30.5795 49.6313C30.5503 49.6807 30.5089 49.7171 30.4494 49.732C30.3888 49.7472 30.3051 49.7413 30.19 49.6965L30.166 49.7581C30.2885 49.8057 30.3869 49.8158 30.4655 49.796C30.545 49.7761 30.5998 49.7266 30.6363 49.6649Z" fill="#E3EFFB"/>
<g filter="url(#filter4_d_2217_11054)">
<path fill-rule="evenodd" clip-rule="evenodd" d="M26.7572 48.3623V38.2512H22.564V45.7708C22.564 46.1097 22.7575 46.4189 23.0624 46.567L26.7572 48.3623Z" fill="#C6D9FF"/>
<path fill-rule="evenodd" clip-rule="evenodd" d="M26.7572 48.3623V38.2512H22.564V45.7708C22.564 46.1097 22.7575 46.4189 23.0624 46.567L26.7572 48.3623Z" stroke="url(#paint18_linear_2217_11054)" stroke-width="0.295065"/>
</g>
<path fill-rule="evenodd" clip-rule="evenodd" d="M22.875 45.8353V41.0454H22.7971V45.9002L22.8297 45.9056C22.9374 45.9235 23.0571 45.9873 23.1549 46.0804C23.2526 46.1734 23.3249 46.2925 23.3428 46.418L23.3458 46.4388L26.4973 47.9148V42.6436H26.4194V47.7923L23.4165 46.3859C23.3909 46.247 23.3103 46.1208 23.2086 46.024C23.1111 45.9311 22.9912 45.8624 22.875 45.8353Z" fill="url(#paint19_linear_2217_11054)"/>
<path fill-rule="evenodd" clip-rule="evenodd" d="M26.4146 47.5074C26.4986 47.3654 26.5034 47.1639 26.4969 47.0338L26.4191 47.0377C26.4256 47.1672 26.4187 47.3475 26.3475 47.4677C26.3131 47.526 26.2642 47.569 26.194 47.5866C26.1225 47.6045 26.0238 47.5976 25.8879 47.5447L25.8597 47.6173C26.0042 47.6736 26.1203 47.6854 26.213 47.6622C26.3069 47.6386 26.3715 47.5802 26.4146 47.5074Z" fill="#F2F9FF"/>
<g filter="url(#filter5_d_2217_11054)">
<path fill-rule="evenodd" clip-rule="evenodd" d="M40.4975 38.2512V48.5951L37.3229 50.301C37.1263 50.4067 36.8882 50.2646 36.8882 50.0414C36.8883 46.2597 36.8848 41.9882 36.8848 38.2512H40.4975Z" fill="#9CB7ED"/>
<path fill-rule="evenodd" clip-rule="evenodd" d="M40.4975 38.2512V48.5951L37.3229 50.301C37.1263 50.4067 36.8882 50.2646 36.8882 50.0414C36.8883 46.2597 36.8848 41.9882 36.8848 38.2512H40.4975Z" stroke="url(#paint20_linear_2217_11054)" stroke-width="0.295065"/>
</g>
<path fill-rule="evenodd" clip-rule="evenodd" d="M40.199 48.132V44.0728H40.265V48.187L40.2374 48.1916C40.1462 48.2068 40.0447 48.2608 39.9618 48.3397C39.879 48.4185 39.8177 48.5194 39.8026 48.6258L39.8 48.6434L37.1293 50.0107V45.4271H37.1953V49.9069L39.7401 48.5986C39.7618 48.4809 39.8301 48.3739 39.9163 48.2919C39.999 48.2131 40.1006 48.155 40.199 48.132Z" fill="url(#paint21_linear_2217_11054)"/>
<path fill-rule="evenodd" clip-rule="evenodd" d="M37.199 49.6649C37.1278 49.5445 37.1238 49.3738 37.1293 49.2635L37.1952 49.2668C37.1897 49.3766 37.1955 49.5294 37.2558 49.6313C37.2851 49.6807 37.3264 49.7171 37.386 49.732C37.4465 49.7472 37.5302 49.7413 37.6454 49.6965L37.6693 49.7581C37.5468 49.8057 37.4484 49.8158 37.3699 49.796C37.2903 49.7761 37.2355 49.7266 37.199 49.6649Z" fill="#E3EFFB"/>
<g filter="url(#filter6_d_2217_11054)">
<path fill-rule="evenodd" clip-rule="evenodd" d="M41.0785 48.3623V38.2512H45.2717V45.7708C45.2717 46.1097 45.0782 46.4189 44.7733 46.567L41.0785 48.3623Z" fill="#C6D9FF"/>
<path fill-rule="evenodd" clip-rule="evenodd" d="M41.0785 48.3623V38.2512H45.2717V45.7708C45.2717 46.1097 45.0782 46.4189 44.7733 46.567L41.0785 48.3623Z" stroke="url(#paint22_linear_2217_11054)" stroke-width="0.295065"/>
</g>
<path fill-rule="evenodd" clip-rule="evenodd" d="M44.9608 45.8352V41.0453H45.0387V45.9L45.0061 45.9055C44.8984 45.9234 44.7787 45.9871 44.6809 46.0803C44.5832 46.1733 44.5109 46.2923 44.493 46.4178L44.49 46.4387L41.3385 47.9147V42.6434H41.4164V47.7922L44.4193 46.3858C44.4449 46.2469 44.5255 46.1207 44.6272 46.0239C44.7247 45.931 44.8446 45.8623 44.9608 45.8352Z" fill="url(#paint23_linear_2217_11054)"/>
<path fill-rule="evenodd" clip-rule="evenodd" d="M41.421 47.5072C41.337 47.3651 41.3322 47.1637 41.3387 47.0336L41.4165 47.0375C41.41 47.167 41.4169 47.3472 41.488 47.4675C41.5225 47.5258 41.5713 47.5687 41.6416 47.5864C41.713 47.6043 41.8118 47.5973 41.9477 47.5445L41.9759 47.6171C41.8314 47.6733 41.7153 47.6852 41.6226 47.6619C41.5287 47.6383 41.4641 47.58 41.421 47.5072Z" fill="#F2F9FF"/>
<g filter="url(#filter7_d_2217_11054)">
<path d="M29.8992 35.2234H37.9329V51.4871L34.3084 53.6982C34.0361 53.8643 33.6939 53.8641 33.4218 53.6977L29.8992 51.543V35.2234Z" fill="#6A88C4"/>
<path d="M29.8992 35.2234H37.9329V51.4871L34.3084 53.6982C34.0361 53.8643 33.6939 53.8641 33.4218 53.6977L29.8992 51.543V35.2234Z" stroke="url(#paint24_linear_2217_11054)" stroke-width="0.59013"/>
</g>
<path fill-rule="evenodd" clip-rule="evenodd" d="M30.3069 45.3533H30.4233V51.2005L33.8583 53.3188L37.3509 51.2002V45.3533H37.4674V51.2658L33.8578 53.4552L30.3069 51.2655V45.3533Z" fill="url(#paint25_linear_2217_11054)"/>
<path fill-rule="evenodd" clip-rule="evenodd" d="M33.9081 50.9415V53.0539H33.8069V50.9415H33.9081Z" fill="url(#paint26_linear_2217_11054)"/>
<path fill-rule="evenodd" clip-rule="evenodd" d="M33.5541 52.3048C33.3526 52.5372 33.1072 52.5889 32.9382 52.5607L32.9549 52.4609C33.0895 52.4833 33.2995 52.4439 33.4776 52.2385C33.6564 52.0323 33.8068 51.654 33.8068 50.9927H33.908C33.908 51.6673 33.7548 52.0733 33.5541 52.3048Z" fill="url(#paint27_linear_2217_11054)"/>
<path fill-rule="evenodd" clip-rule="evenodd" d="M34.1608 52.3048C34.3622 52.5372 34.6076 52.5889 34.7766 52.5607L34.76 52.4609C34.6253 52.4833 34.4153 52.4439 34.2372 52.2385C34.0584 52.0323 33.908 51.654 33.908 50.9927H33.8068C33.8068 51.6673 33.96 52.0733 34.1608 52.3048Z" fill="url(#paint28_linear_2217_11054)"/>
<path fill-rule="evenodd" clip-rule="evenodd" d="M33.8363 53.1003L32.6935 52.46L32.9465 52.46L33.8574 52.9986L34.7682 52.4554H34.9916L33.8783 53.1003C33.8649 53.1064 33.8496 53.1064 33.8363 53.1003Z" fill="url(#paint29_linear_2217_11054)"/>
<g filter="url(#filter8_d_2217_11054)">
<path d="M31.4609 14.8718L21.9232 20.0602C20.3089 20.9384 19.3041 22.6289 19.3041 24.4666L19.3041 36.4929C19.3041 38.3305 20.3089 40.0211 21.9232 40.8992L31.4609 46.0876C32.9555 46.9007 34.7603 46.9007 36.2549 46.0876L45.7926 40.8992C47.4069 40.0211 48.4118 38.3305 48.4118 36.4929L48.4118 24.4666C48.4118 22.6289 47.4069 20.9384 45.7927 20.0602L36.2549 14.8718C34.7603 14.0588 32.9555 14.0588 31.4609 14.8718Z" fill="url(#paint30_linear_2217_11054)"/>
<path d="M31.4524 17.4281L24.1254 21.4139C22.5172 22.2887 21.5161 23.9729 21.5161 25.8036L21.5161 35.0964C21.5161 36.9271 22.5172 38.6113 24.1254 39.4862L31.4523 43.472C32.9413 44.2819 34.7393 44.2819 36.2283 43.472L43.5553 39.4862C45.1635 38.6113 46.1645 36.9271 46.1645 35.0964L46.1645 25.8036C46.1645 23.9729 45.1635 22.2887 43.5553 21.4139L36.2283 17.4281C34.7393 16.6181 32.9413 16.6181 31.4524 17.4281Z" fill="url(#paint31_linear_2217_11054)"/>
<g filter="url(#filter9_f_2217_11054)">
<path d="M31.4524 17.4281L24.1254 21.4139C22.5172 22.2887 21.5161 23.9729 21.5161 25.8036L21.5161 35.0964C21.5161 36.9271 22.5172 38.6113 24.1254 39.4862L31.4523 43.472C32.9413 44.2819 34.7393 44.2819 36.2283 43.472L43.5553 39.4862C45.1635 38.6113 46.1645 36.9271 46.1645 35.0964L46.1645 25.8036C46.1645 23.9729 45.1635 22.2887 43.5553 21.4139L36.2283 17.4281C34.7393 16.6181 32.9413 16.6181 31.4524 17.4281Z" stroke="url(#paint32_linear_2217_11054)" stroke-width="0.295065"/>
</g>
<g opacity="0.5">
<mask id="mask0_2217_11054" style="mask-type:alpha" maskUnits="userSpaceOnUse" x="22" y="17" width="24" height="26">
<path d="M31.6463 18.5268L25.0478 22.1131C23.5171 22.945 22.5642 24.5475 22.5642 26.2896L22.5642 34.6554C22.5642 36.3975 23.5171 38 25.0478 38.8319L31.6463 42.4182C33.0618 43.1875 34.7706 43.1875 36.1861 42.4182L42.7847 38.8319C44.3153 38 45.2682 36.3975 45.2682 34.6554L45.2682 26.2896C45.2682 24.5475 44.3153 22.945 42.7847 22.1131L36.1861 18.5268C34.7706 17.7575 33.0618 17.7575 31.6463 18.5268Z" fill="#A6D3DE"/>
</mask>
<g mask="url(#mask0_2217_11054)">
<path d="M31.6463 18.5268L25.0478 22.1131C23.5171 22.945 22.5642 24.5475 22.5642 26.2896L22.5642 34.6554C22.5642 36.3975 23.5171 38 25.0478 38.8319L31.6463 42.4182C33.0618 43.1875 34.7706 43.1875 36.1861 42.4182L42.7847 38.8319C44.3153 38 45.2682 36.3975 45.2682 34.6554L45.2682 26.2896C45.2682 24.5475 44.3153 22.945 42.7847 22.1131L36.1861 18.5268C34.7706 17.7575 33.0618 17.7575 31.6463 18.5268Z" fill="url(#paint33_radial_2217_11054)"/>
<path opacity="0.5" d="M32.0183 44.1725L31.5674 16.7711H36.2648L35.8138 44.1725H32.0183Z" fill="url(#paint34_linear_2217_11054)"/>
<path opacity="0.5" d="M31.9582 43.9297L17.8669 20.4249L21.935 18.0762L35.2451 42.032L31.9582 43.9297Z" fill="url(#paint35_linear_2217_11054)"/>
<path opacity="0.5" d="M31.5666 42.0319L44.8767 18.0762L48.9448 20.4249L34.8535 43.9297L31.5666 42.0319Z" fill="url(#paint36_linear_2217_11054)"/>
<rect x="22.5643" y="28.9059" width="22.704" height="14.7445" fill="url(#paint37_linear_2217_11054)"/>
<g filter="url(#filter10_i_2217_11054)">
<path d="M31.6463 18.5268L25.0478 22.1131C23.5171 22.945 22.5642 24.5475 22.5642 26.2896L22.5642 34.6554C22.5642 36.3975 23.5171 38 25.0478 38.8319L31.6463 42.4182C33.0618 43.1875 34.7706 43.1875 36.1861 42.4182L42.7847 38.8319C44.3153 38 45.2682 36.3975 45.2682 34.6554L45.2682 26.2896C45.2682 24.5475 44.3153 22.945 42.7847 22.1131L36.1861 18.5268C34.7706 17.7575 33.0618 17.7575 31.6463 18.5268Z" fill="#6052B4" fill-opacity="0.01"/>
</g>
</g>
</g>
</g>
</g>
<g filter="url(#filter11_d_2217_11054)">
<path fill-rule="evenodd" clip-rule="evenodd" d="M33.6635 32.3128C36.4928 32.3128 38.7864 30.0192 38.7864 27.1898C38.7864 24.3605 36.4928 22.0669 33.6635 22.0669C30.8342 22.0669 28.5405 24.3605 28.5405 27.1898C28.5405 30.0192 30.8342 32.3128 33.6635 32.3128ZM32.8714 32.0159C35.0173 32.0159 36.7569 30.2763 36.7569 28.1304C36.7569 25.9845 35.0173 24.2449 32.8714 24.2449C30.7255 24.2449 28.9859 25.9845 28.9859 28.1304C28.9859 30.2763 30.7255 32.0159 32.8714 32.0159Z" fill="url(#paint38_linear_2217_11054)"/>
</g>
</g>
<defs>
<filter id="filter0_f_2217_11054" x="32.371" y="8.1309" width="4.58892" height="4.58892" filterUnits="userSpaceOnUse" color-interpolation-filters="sRGB">
<feFlood flood-opacity="0" result="BackgroundImageFix"/>
<feBlend mode="normal" in="SourceGraphic" in2="BackgroundImageFix" result="shape"/>
<feGaussianBlur stdDeviation="0.413312" result="effect1_foregroundBlur_2217_11054"/>
</filter>
<filter id="filter1_f_2217_11054" x="32.1346" y="7.73077" width="5.0625" height="5.38867" filterUnits="userSpaceOnUse" color-interpolation-filters="sRGB">
<feFlood flood-opacity="0" result="BackgroundImageFix"/>
<feBlend mode="normal" in="SourceGraphic" in2="BackgroundImageFix" result="shape"/>
<feGaussianBlur stdDeviation="0.123994" result="effect1_foregroundBlur_2217_11054"/>
</filter>
<filter id="filter2_dd_2217_11054" x="-5.3385" y="0.46588" width="78.3929" height="69.8556" filterUnits="userSpaceOnUse" color-interpolation-filters="sRGB">
<feFlood flood-opacity="0" result="BackgroundImageFix"/>
<feColorMatrix in="SourceAlpha" type="matrix" values="0 0 0 0 0 0 0 0 0 0 0 0 0 0 0 0 0 0 127 0" result="hardAlpha"/>
<feOffset/>
<feGaussianBlur stdDeviation="3.00949"/>
<feColorMatrix type="matrix" values="0 0 0 0 0.558594 0 0 0 0 0.710156 0 0 0 0 0.9375 0 0 0 1 0"/>
<feBlend mode="normal" in2="BackgroundImageFix" result="effect1_dropShadow_2217_11054"/>
<feColorMatrix in="SourceAlpha" type="matrix" values="0 0 0 0 0 0 0 0 0 0 0 0 0 0 0 0 0 0 127 0" result="hardAlpha"/>
<feOffset dy="1.2038"/>
<feGaussianBlur stdDeviation="7.5"/>
<feColorMatrix type="matrix" values="0 0 0 0 0.670833 0 0 0 0 0.8025 0 0 0 0 1 0 0 0 0.6 0"/>
<feBlend mode="normal" in2="effect1_dropShadow_2217_11054" result="effect2_dropShadow_2217_11054"/>
<feBlend mode="normal" in="SourceGraphic" in2="effect2_dropShadow_2217_11054" result="shape"/>
</filter>
<filter id="filter3_d_2217_11054" x="24.8297" y="35.7431" width="8.62888" height="17.1018" filterUnits="userSpaceOnUse" color-interpolation-filters="sRGB">
<feFlood flood-opacity="0" result="BackgroundImageFix"/>
<feColorMatrix in="SourceAlpha" type="matrix" values="0 0 0 0 0 0 0 0 0 0 0 0 0 0 0 0 0 0 127 0" result="hardAlpha"/>
<feOffset/>
<feGaussianBlur stdDeviation="1.18026"/>
<feColorMatrix type="matrix" values="0 0 0 0 0.288889 0 0 0 0 0.357333 0 0 0 0 0.533333 0 0 0 0.74 0"/>
<feBlend mode="normal" in2="BackgroundImageFix" result="effect1_dropShadow_2217_11054"/>
<feBlend mode="normal" in="SourceGraphic" in2="effect1_dropShadow_2217_11054" result="shape"/>
</filter>
<filter id="filter4_d_2217_11054" x="20.056" y="35.7431" width="9.20932" height="15.2153" filterUnits="userSpaceOnUse" color-interpolation-filters="sRGB">
<feFlood flood-opacity="0" result="BackgroundImageFix"/>
<feColorMatrix in="SourceAlpha" type="matrix" values="0 0 0 0 0 0 0 0 0 0 0 0 0 0 0 0 0 0 127 0" result="hardAlpha"/>
<feOffset/>
<feGaussianBlur stdDeviation="1.18026"/>
<feColorMatrix type="matrix" values="0 0 0 0 0.288889 0 0 0 0 0.357333 0 0 0 0 0.533333 0 0 0 0.74 0"/>
<feBlend mode="normal" in2="BackgroundImageFix" result="effect1_dropShadow_2217_11054"/>
<feBlend mode="normal" in="SourceGraphic" in2="effect1_dropShadow_2217_11054" result="shape"/>
</filter>
<filter id="filter5_d_2217_11054" x="34.3767" y="35.7431" width="8.62888" height="17.1018" filterUnits="userSpaceOnUse" color-interpolation-filters="sRGB">
<feFlood flood-opacity="0" result="BackgroundImageFix"/>
<feColorMatrix in="SourceAlpha" type="matrix" values="0 0 0 0 0 0 0 0 0 0 0 0 0 0 0 0 0 0 127 0" result="hardAlpha"/>
<feOffset/>
<feGaussianBlur stdDeviation="1.18026"/>
<feColorMatrix type="matrix" values="0 0 0 0 0.288889 0 0 0 0 0.357333 0 0 0 0 0.533333 0 0 0 0.74 0"/>
<feBlend mode="normal" in2="BackgroundImageFix" result="effect1_dropShadow_2217_11054"/>
<feBlend mode="normal" in="SourceGraphic" in2="effect1_dropShadow_2217_11054" result="shape"/>
</filter>
<filter id="filter6_d_2217_11054" x="38.5704" y="35.7431" width="9.20932" height="15.2153" filterUnits="userSpaceOnUse" color-interpolation-filters="sRGB">
<feFlood flood-opacity="0" result="BackgroundImageFix"/>
<feColorMatrix in="SourceAlpha" type="matrix" values="0 0 0 0 0 0 0 0 0 0 0 0 0 0 0 0 0 0 127 0" result="hardAlpha"/>
<feOffset/>
<feGaussianBlur stdDeviation="1.18026"/>
<feColorMatrix type="matrix" values="0 0 0 0 0.288889 0 0 0 0 0.357333 0 0 0 0 0.533333 0 0 0 0.74 0"/>
<feBlend mode="normal" in2="BackgroundImageFix" result="effect1_dropShadow_2217_11054"/>
<feBlend mode="normal" in="SourceGraphic" in2="effect1_dropShadow_2217_11054" result="shape"/>
</filter>
<filter id="filter7_d_2217_11054" x="27.2436" y="32.5678" width="13.3448" height="23.9104" filterUnits="userSpaceOnUse" color-interpolation-filters="sRGB">
<feFlood flood-opacity="0" result="BackgroundImageFix"/>
<feColorMatrix in="SourceAlpha" type="matrix" values="0 0 0 0 0 0 0 0 0 0 0 0 0 0 0 0 0 0 127 0" result="hardAlpha"/>
<feOffset/>
<feGaussianBlur stdDeviation="1.18026"/>
<feColorMatrix type="matrix" values="0 0 0 0 0.288889 0 0 0 0 0.357333 0 0 0 0 0.533333 0 0 0 0.8 0"/>
<feBlend mode="normal" in2="BackgroundImageFix" result="effect1_dropShadow_2217_11054"/>
<feBlend mode="normal" in="SourceGraphic" in2="effect1_dropShadow_2217_11054" result="shape"/>
</filter>
<filter id="filter8_d_2217_11054" x="17.5337" y="14.2621" width="32.6484" height="36.5662" filterUnits="userSpaceOnUse" color-interpolation-filters="sRGB">
<feFlood flood-opacity="0" result="BackgroundImageFix"/>
<feColorMatrix in="SourceAlpha" type="matrix" values="0 0 0 0 0 0 0 0 0 0 0 0 0 0 0 0 0 0 127 0" result="hardAlpha"/>
<feOffset dy="2.36052"/>
<feGaussianBlur stdDeviation="0.885195"/>
<feColorMatrix type="matrix" values="0 0 0 0 0.141181 0 0 0 0 0.190317 0 0 0 0 0.316667 0 0 0 0.51 0"/>
<feBlend mode="normal" in2="BackgroundImageFix" result="effect1_dropShadow_2217_11054"/>
<feBlend mode="normal" in="SourceGraphic" in2="effect1_dropShadow_2217_11054" result="shape"/>
</filter>
<filter id="filter9_f_2217_11054" x="21.28" y="16.5846" width="25.1205" height="27.7309" filterUnits="userSpaceOnUse" color-interpolation-filters="sRGB">
<feFlood flood-opacity="0" result="BackgroundImageFix"/>
<feBlend mode="normal" in="SourceGraphic" in2="BackgroundImageFix" result="shape"/>
<feGaussianBlur stdDeviation="0.0442598" result="effect1_foregroundBlur_2217_11054"/>
</filter>
<filter id="filter10_i_2217_11054" x="22.5642" y="17.9498" width="22.704" height="25.0453" filterUnits="userSpaceOnUse" color-interpolation-filters="sRGB">
<feFlood flood-opacity="0" result="BackgroundImageFix"/>
<feBlend mode="normal" in="SourceGraphic" in2="BackgroundImageFix" result="shape"/>
<feColorMatrix in="SourceAlpha" type="matrix" values="0 0 0 0 0 0 0 0 0 0 0 0 0 0 0 0 0 0 127 0" result="hardAlpha"/>
<feOffset/>
<feGaussianBlur stdDeviation="1.98406"/>
<feComposite in2="hardAlpha" operator="arithmetic" k2="-1" k3="1"/>
<feColorMatrix type="matrix" values="0 0 0 0 0.297222 0 0 0 0 0.329917 0 0 0 0 0.445833 0 0 0 1 0"/>
<feBlend mode="normal" in2="shape" result="effect1_innerShadow_2217_11054"/>
</filter>
<filter id="filter11_d_2217_11054" x="26.5131" y="20.9998" width="14.5142" height="14.5142" filterUnits="userSpaceOnUse" color-interpolation-filters="sRGB">
<feFlood flood-opacity="0" result="BackgroundImageFix"/>
<feColorMatrix in="SourceAlpha" type="matrix" values="0 0 0 0 0 0 0 0 0 0 0 0 0 0 0 0 0 0 127 0" result="hardAlpha"/>
<feOffset dx="0.106708" dy="1.06708"/>
<feGaussianBlur stdDeviation="1.06708"/>
<feColorMatrix type="matrix" values="0 0 0 0 0.625387 0 0 0 0 0.624375 0 0 0 0 0.675 0 0 0 0.2 0"/>
<feBlend mode="normal" in2="BackgroundImageFix" result="effect1_dropShadow_2217_11054"/>
<feBlend mode="normal" in="SourceGraphic" in2="effect1_dropShadow_2217_11054" result="shape"/>
</filter>
<radialGradient id="paint0_radial_2217_11054" cx="0" cy="0" r="1" gradientUnits="userSpaceOnUse" gradientTransform="translate(34.6654 10.4253) rotate(90) scale(2.3485)">
<stop stop-color="#E7ECFF"/>
<stop offset="0.979167" stop-color="#ABC3FF" stop-opacity="0.8825"/>
<stop offset="1" stop-color="#AACCFF" stop-opacity="0.88"/>
</radialGradient>
<linearGradient id="paint1_linear_2217_11054" x1="34.5028" y1="10.5061" x2="34.5028" y2="45.4074" gradientUnits="userSpaceOnUse">
<stop stop-color="#DEE7FF"/>
<stop offset="0.0722622" stop-color="#CCDDFF" stop-opacity="0.33"/>
<stop offset="1" stop-color="#98C6F0" stop-opacity="0"/>
</linearGradient>
<linearGradient id="paint2_linear_2217_11054" x1="34.0245" y1="6" x2="34.0245" y2="25.3437" gradientUnits="userSpaceOnUse">
<stop stop-color="#AACCFF" stop-opacity="0"/>
<stop offset="1" stop-color="#AACCFF" stop-opacity="0.3"/>
</linearGradient>
<linearGradient id="paint3_linear_2217_11054" x1="54.9258" y1="42.7649" x2="38.1736" y2="33.093" gradientUnits="userSpaceOnUse">
<stop stop-color="#AACCFF" stop-opacity="0"/>
<stop offset="1" stop-color="#AACCFF" stop-opacity="0.3"/>
</linearGradient>
<linearGradient id="paint4_linear_2217_11054" x1="33.9023" y1="55" x2="33.9023" y2="35.6563" gradientUnits="userSpaceOnUse">
<stop stop-color="#AACCFF" stop-opacity="0"/>
<stop offset="1" stop-color="#AACCFF" stop-opacity="0.3"/>
</linearGradient>
<linearGradient id="paint5_linear_2217_11054" x1="13.0329" y1="42.8258" x2="29.785" y2="33.1539" gradientUnits="userSpaceOnUse">
<stop stop-color="#AACCFF" stop-opacity="0"/>
<stop offset="1" stop-color="#AACCFF" stop-opacity="0.3"/>
</linearGradient>
<linearGradient id="paint6_linear_2217_11054" x1="54.9258" y1="18.265" x2="38.1736" y2="27.9369" gradientUnits="userSpaceOnUse">
<stop stop-color="#AACCFF" stop-opacity="0"/>
<stop offset="1" stop-color="#AACCFF" stop-opacity="0.3"/>
</linearGradient>
<linearGradient id="paint7_linear_2217_11054" x1="13.0329" y1="18.204" x2="29.785" y2="27.8759" gradientUnits="userSpaceOnUse">
<stop stop-color="#AACCFF" stop-opacity="0"/>
<stop offset="1" stop-color="#AACCFF" stop-opacity="0.3"/>
</linearGradient>
<linearGradient id="paint8_linear_2217_11054" x1="16.9447" y1="28.156" x2="12.8713" y2="24.0826" gradientUnits="userSpaceOnUse">
<stop stop-color="#C3C5D1"/>
<stop offset="0.875" stop-color="#F9F9F9"/>
</linearGradient>
<linearGradient id="paint9_linear_2217_11054" x1="10.6677" y1="23.3481" x2="14.5407" y2="28.156" gradientUnits="userSpaceOnUse">
<stop stop-color="#F9F9F9"/>
<stop offset="0.378992" stop-color="#F9F9F9"/>
<stop offset="0.480868" stop-color="#DFDFE6"/>
<stop offset="0.729174" stop-color="#B8BAC6"/>
</linearGradient>
<linearGradient id="paint10_linear_2217_11054" x1="19.7495" y1="31.8277" x2="15.6762" y2="27.6208" gradientUnits="userSpaceOnUse">
<stop stop-color="#C3C5D1"/>
<stop offset="0.875" stop-color="#F9F9F9"/>
</linearGradient>
<linearGradient id="paint11_linear_2217_11054" x1="14.6078" y1="27.6208" x2="16.6778" y2="31.8277" gradientUnits="userSpaceOnUse">
<stop stop-color="#F4F4F5"/>
<stop offset="0.306027" stop-color="#F4F4F5"/>
<stop offset="0.462087" stop-color="#E8E9EC"/>
<stop offset="0.682292" stop-color="#DFDFE6"/>
<stop offset="1" stop-color="#B8BAC6"/>
</linearGradient>
<linearGradient id="paint12_linear_2217_11054" x1="50.7713" y1="28.156" x2="54.8446" y2="24.0826" gradientUnits="userSpaceOnUse">
<stop stop-color="#C3C5D1"/>
<stop offset="0.875" stop-color="#F9F9F9"/>
</linearGradient>
<linearGradient id="paint13_linear_2217_11054" x1="57.0482" y1="23.3481" x2="53.1752" y2="28.156" gradientUnits="userSpaceOnUse">
<stop stop-color="#F9F9F9"/>
<stop offset="0.378992" stop-color="#F9F9F9"/>
<stop offset="0.480868" stop-color="#DFDFE6"/>
<stop offset="0.729174" stop-color="#B8BAC6"/>
</linearGradient>
<linearGradient id="paint14_linear_2217_11054" x1="47.9664" y1="31.8277" x2="52.0398" y2="27.6208" gradientUnits="userSpaceOnUse">
<stop stop-color="#C3C5D1"/>
<stop offset="0.875" stop-color="#F9F9F9"/>
</linearGradient>
<linearGradient id="paint15_linear_2217_11054" x1="53.1082" y1="27.6208" x2="51.0381" y2="31.8277" gradientUnits="userSpaceOnUse">
<stop stop-color="#F4F4F5"/>
<stop offset="0.306027" stop-color="#F4F4F5"/>
<stop offset="0.462087" stop-color="#E8E9EC"/>
<stop offset="0.682292" stop-color="#DFDFE6"/>
<stop offset="1" stop-color="#B8BAC6"/>
</linearGradient>
<linearGradient id="paint16_linear_2217_11054" x1="30.9504" y1="46.5216" x2="27.1432" y2="47.1109" gradientUnits="userSpaceOnUse">
<stop stop-color="#91B1E3"/>
<stop offset="0.208702" stop-color="#F0F6FF"/>
<stop offset="0.514766" stop-color="#A4BFE9"/>
<stop offset="0.728274" stop-color="#8BADE0"/>
<stop offset="0.971703" stop-color="#D0DEF3"/>
</linearGradient>
<linearGradient id="paint17_linear_2217_11054" x1="27.7182" y1="47.4275" x2="29.6053" y2="46.8649" gradientUnits="userSpaceOnUse">
<stop stop-color="#FAFCFF"/>
<stop offset="0.309893" stop-color="#D7E6FC"/>
<stop offset="0.523799" stop-color="#C1D8F4"/>
<stop offset="0.77229" stop-color="#BBD6FF"/>
<stop offset="1" stop-color="white"/>
</linearGradient>
<linearGradient id="paint18_linear_2217_11054" x1="22.4476" y1="44.0728" x2="26.9429" y2="49.1093" gradientUnits="userSpaceOnUse">
<stop stop-color="#91B1E3"/>
<stop offset="0.208702" stop-color="#F0F6FF"/>
<stop offset="0.648432" stop-color="#A4BFE9"/>
<stop offset="0.780206" stop-color="#8BADE0"/>
<stop offset="0.971703" stop-color="#93B3E4"/>
</linearGradient>
<linearGradient id="paint19_linear_2217_11054" x1="22.9718" y1="45.0041" x2="25.1986" y2="44.3402" gradientUnits="userSpaceOnUse">
<stop stop-color="#FAFCFF"/>
<stop offset="0.309893" stop-color="#D7E6FC"/>
<stop offset="0.523799" stop-color="#C1D8F4"/>
<stop offset="0.77229" stop-color="#BBD6FF"/>
<stop offset="1" stop-color="white"/>
</linearGradient>
<linearGradient id="paint20_linear_2217_11054" x1="36.8848" y1="46.5216" x2="40.692" y2="47.1109" gradientUnits="userSpaceOnUse">
<stop stop-color="#91B1E3"/>
<stop offset="0.208702" stop-color="#F0F6FF"/>
<stop offset="0.514766" stop-color="#A4BFE9"/>
<stop offset="0.728274" stop-color="#8BADE0"/>
<stop offset="0.971703" stop-color="#D0DEF3"/>
</linearGradient>
<linearGradient id="paint21_linear_2217_11054" x1="40.117" y1="47.4275" x2="38.2299" y2="46.8649" gradientUnits="userSpaceOnUse">
<stop stop-color="#FAFCFF"/>
<stop offset="0.309893" stop-color="#D7E6FC"/>
<stop offset="0.523799" stop-color="#C1D8F4"/>
<stop offset="0.77229" stop-color="#BBD6FF"/>
<stop offset="1" stop-color="white"/>
</linearGradient>
<linearGradient id="paint22_linear_2217_11054" x1="45.3881" y1="44.0728" x2="40.8928" y2="49.1093" gradientUnits="userSpaceOnUse">
<stop stop-color="#91B1E3"/>
<stop offset="0.208702" stop-color="#F0F6FF"/>
<stop offset="0.648432" stop-color="#A4BFE9"/>
<stop offset="0.780206" stop-color="#8BADE0"/>
<stop offset="0.971703" stop-color="#93B3E4"/>
</linearGradient>
<linearGradient id="paint23_linear_2217_11054" x1="44.8641" y1="45.0039" x2="42.6372" y2="44.3401" gradientUnits="userSpaceOnUse">
<stop stop-color="#FAFCFF"/>
<stop offset="0.309893" stop-color="#D7E6FC"/>
<stop offset="0.523799" stop-color="#C1D8F4"/>
<stop offset="0.77229" stop-color="#BBD6FF"/>
<stop offset="1" stop-color="white"/>
</linearGradient>
<linearGradient id="paint24_linear_2217_11054" x1="29.8992" y1="48.5547" x2="38.1902" y2="50.3251" gradientUnits="userSpaceOnUse">
<stop stop-color="#91B1E3"/>
<stop offset="0.208702" stop-color="#F0F6FF"/>
<stop offset="0.648432" stop-color="#A4BFE9"/>
<stop offset="0.780206" stop-color="#8BADE0"/>
<stop offset="0.971703" stop-color="#93B3E4"/>
</linearGradient>
<linearGradient id="paint25_linear_2217_11054" x1="37.1295" y1="50.0222" x2="33.3431" y2="48.1701" gradientUnits="userSpaceOnUse">
<stop stop-color="#FAFCFF"/>
<stop offset="0.309893" stop-color="#D7E6FC"/>
<stop offset="0.523799" stop-color="#C1D8F4"/>
<stop offset="0.77229" stop-color="#BBD6FF"/>
<stop offset="1" stop-color="white"/>
</linearGradient>
<linearGradient id="paint26_linear_2217_11054" x1="33.8575" y1="50.9415" x2="33.8575" y2="52.9151" gradientUnits="userSpaceOnUse">
<stop stop-color="#6A88C3"/>
<stop offset="0.479167" stop-color="#E4EFFD"/>
<stop offset="1" stop-color="#E1ECFD"/>
</linearGradient>
<linearGradient id="paint27_linear_2217_11054" x1="33.4231" y1="50.9927" x2="33.4231" y2="52.5677" gradientUnits="userSpaceOnUse">
<stop stop-color="#E2F5FF" stop-opacity="0"/>
<stop offset="0.479167" stop-color="#B6CAFE"/>
<stop offset="1" stop-color="#CCD7FF"/>
</linearGradient>
<linearGradient id="paint28_linear_2217_11054" x1="34.2917" y1="50.9927" x2="34.2917" y2="52.5677" gradientUnits="userSpaceOnUse">
<stop stop-color="#E2F5FF" stop-opacity="0"/>
<stop offset="0.479167" stop-color="#B6CAFE"/>
<stop offset="1" stop-color="#CCD7FF"/>
</linearGradient>
<linearGradient id="paint29_linear_2217_11054" x1="33.7349" y1="52.6775" x2="32.422" y2="52.8329" gradientUnits="userSpaceOnUse">
<stop stop-color="#C9DEFC"/>
<stop offset="0.309893" stop-color="#ECF4FF"/>
<stop offset="0.523799" stop-color="#EAF6FF"/>
<stop offset="0.613641" stop-color="#CCE7FF"/>
<stop offset="1" stop-color="#CEE4F9"/>
</linearGradient>
<linearGradient id="paint30_linear_2217_11054" x1="27.7453" y1="17.6429" x2="40.8438" y2="43.6652" gradientUnits="userSpaceOnUse">
<stop stop-color="#FAFAFA"/>
<stop offset="1" stop-color="#C2C4CD"/>
</linearGradient>
<linearGradient id="paint31_linear_2217_11054" x1="27.6287" y1="19.7966" x2="38.9225" y2="40.6377" gradientUnits="userSpaceOnUse">
<stop stop-color="#CDCFD6"/>
<stop offset="1" stop-color="#EFEFF1"/>
</linearGradient>
<linearGradient id="paint32_linear_2217_11054" x1="28.8512" y1="19.0398" x2="41.0183" y2="40.9288" gradientUnits="userSpaceOnUse">
<stop stop-color="#DDDFE2"/>
<stop offset="1" stop-color="white"/>
</linearGradient>
<radialGradient id="paint33_radial_2217_11054" cx="0" cy="0" r="1" gradientUnits="userSpaceOnUse" gradientTransform="translate(33.9162 30.4725) rotate(90) scale(13.1794 11.352)">
<stop stop-color="#F5F7FF"/>
<stop offset="1" stop-color="#B3B5C5"/>
</radialGradient>
<linearGradient id="paint34_linear_2217_11054" x1="33.9161" y1="16.7711" x2="33.9161" y2="44.1725" gradientUnits="userSpaceOnUse">
<stop stop-color="white"/>
<stop offset="1" stop-color="#F2EDED" stop-opacity="0"/>
</linearGradient>
<linearGradient id="paint35_linear_2217_11054" x1="19.901" y1="19.2506" x2="33.6017" y2="42.9809" gradientUnits="userSpaceOnUse">
<stop stop-color="white"/>
<stop offset="1" stop-color="#F2EDED" stop-opacity="0"/>
</linearGradient>
<linearGradient id="paint36_linear_2217_11054" x1="46.9107" y1="19.2505" x2="33.21" y2="42.9808" gradientUnits="userSpaceOnUse">
<stop stop-color="white"/>
<stop offset="1" stop-color="#F2EDED" stop-opacity="0"/>
</linearGradient>
<linearGradient id="paint37_linear_2217_11054" x1="33.9163" y1="35.2995" x2="33.8478" y2="42.7369" gradientUnits="userSpaceOnUse">
<stop stop-color="white" stop-opacity="0"/>
<stop offset="1" stop-color="#D0DBFF"/>
</linearGradient>
<linearGradient id="paint38_linear_2217_11054" x1="32.852" y1="19.4986" x2="39.8742" y2="21.6327" gradientUnits="userSpaceOnUse">
<stop offset="0.168737" stop-color="#F4F3F8"/>
<stop offset="0.360439" stop-color="white"/>
<stop offset="0.451944" stop-color="white"/>
<stop offset="0.627859" stop-color="#E7E6EE"/>
<stop offset="0.80404" stop-color="#F3F3F3"/>
</linearGradient>
<clipPath id="clip0_2217_11054">
<rect width="68" height="68" fill="white"/>
</clipPath>
</defs>
</svg>
