<svg width="68" height="68" viewBox="0 0 68 68" fill="none" xmlns="http://www.w3.org/2000/svg">
<g clip-path="url(#clip0_2217_11197)">
<g filter="url(#filter0_dd_2217_11197)">
<path d="M22.472 47.1712V33.7239H46.652V47.05C46.652 47.3546 46.4891 47.6359 46.225 47.7875L34.8332 54.3248C34.5702 54.4758 34.2466 54.4752 33.9841 54.3233L22.8965 47.9071C22.6338 47.7551 22.472 47.4747 22.472 47.1712Z" fill="#84B7C4"/>
<path fill-rule="evenodd" clip-rule="evenodd" d="M29.4997 33.7239V51.7283L22.8965 47.9071C22.6338 47.7551 22.472 47.4747 22.472 47.1712V33.7239H29.4997Z" fill="#6B9BAA"/>
<path fill-rule="evenodd" clip-rule="evenodd" d="M29.2618 51.5903V33.724H29.5001V51.7282L29.2618 51.5903Z" fill="#B0D2DD"/>
<path fill-rule="evenodd" clip-rule="evenodd" d="M39.6256 33.6052V51.6096L46.2289 47.7885C46.4916 47.6365 46.6533 47.356 46.6533 47.0525V33.6052H39.6256Z" fill="#6B9BAA"/>
<path fill-rule="evenodd" clip-rule="evenodd" d="M39.8633 51.472V33.6052H39.6251V51.6098L39.8633 51.472Z" fill="#B0D2DD"/>
<g filter="url(#filter1_d_2217_11197)">
<path d="M32.103 13.9516L21.6191 19.6548C20.0049 20.5329 19 22.2235 19 24.0611L19 37.2569C19 39.0946 20.0049 40.7851 21.6191 41.6633L32.103 47.3664C33.5976 48.1794 35.4024 48.1794 36.897 47.3664L47.3809 41.6633C48.9951 40.7851 50 39.0946 50 37.2569L50 24.0611C50 22.2235 48.9951 20.5329 47.3809 19.6548L36.897 13.9516C35.4024 13.1386 33.5976 13.1386 32.103 13.9516Z" fill="url(#paint0_linear_2217_11197)"/>
<path d="M32.0934 16.6744L23.9652 21.096C22.357 21.9709 21.356 23.6551 21.356 25.4858L21.356 35.7689C21.356 37.5997 22.357 39.2838 23.9652 40.1587L32.0934 44.5803C33.5824 45.3903 35.3804 45.3903 36.8694 44.5803L44.9975 40.1587C46.6057 39.2838 47.6068 37.5997 47.6068 35.7689L47.6068 25.4858C47.6068 23.6551 46.6057 21.9709 44.9975 21.096L36.8694 16.6744C35.3804 15.8644 33.5824 15.8644 32.0934 16.6744Z" fill="url(#paint1_linear_2217_11197)"/>
<g filter="url(#filter2_f_2217_11197)">
<path d="M32.0934 16.6744L23.9652 21.096C22.357 21.9709 21.356 23.6551 21.356 25.4858L21.356 35.7689C21.356 37.5997 22.357 39.2838 23.9652 40.1587L32.0934 44.5803C33.5824 45.3903 35.3804 45.3903 36.8694 44.5803L44.9975 40.1587C46.6057 39.2838 47.6068 37.5997 47.6068 35.7689L47.6068 25.4858C47.6068 23.6551 46.6057 21.9709 44.9975 21.096L36.8694 16.6744C35.3804 15.8644 33.5824 15.8644 32.0934 16.6744Z" stroke="url(#paint2_linear_2217_11197)" stroke-width="0.295065"/>
</g>
<g opacity="0.5">
<mask id="mask0_2217_11197" style="mask-type:alpha" maskUnits="userSpaceOnUse" x="22" y="17" width="25" height="28">
<path d="M32.2923 17.8505L24.9557 21.8379C23.4251 22.6698 22.4722 24.2723 22.4722 26.0144L22.4722 35.2916C22.4722 37.0337 23.4251 38.6362 24.9557 39.4681L32.2923 43.4555C33.7078 44.2248 35.4166 44.2248 36.8321 43.4555L44.1686 39.4681C45.6992 38.6362 46.6522 37.0337 46.6522 35.2916L46.6522 26.0144C46.6522 24.2723 45.6992 22.6698 44.1686 21.8379L36.8321 17.8505C35.4166 17.0812 33.7077 17.0812 32.2923 17.8505Z" fill="#A6D3DE"/>
</mask>
<g mask="url(#mask0_2217_11197)">
<path d="M32.2923 17.8505L24.9557 21.8379C23.4251 22.6698 22.4722 24.2723 22.4722 26.0144L22.4722 35.2916C22.4722 37.0337 23.4251 38.6362 24.9557 39.4681L32.2923 43.4555C33.7078 44.2248 35.4166 44.2248 36.8321 43.4555L44.1686 39.4681C45.6992 38.6362 46.6522 37.0337 46.6522 35.2916L46.6522 26.0144C46.6522 24.2723 45.6992 22.6698 44.1686 21.8379L36.8321 17.8505C35.4166 17.0812 33.7077 17.0812 32.2923 17.8505Z" fill="url(#paint3_radial_2217_11197)"/>
<path opacity="0.5" d="M32.5409 45.2429L32.0607 16.0602H37.0634L36.5832 45.2429H32.5409Z" fill="url(#paint4_linear_2217_11197)"/>
<path opacity="0.5" d="M32.4763 44.9839L17.469 19.951L21.8015 17.4497L35.977 42.9628L32.4763 44.9839Z" fill="url(#paint5_linear_2217_11197)"/>
<path opacity="0.5" d="M32.0599 42.9622L46.2354 17.4491L50.5679 19.9505L35.5606 44.9834L32.0599 42.9622Z" fill="url(#paint6_linear_2217_11197)"/>
<rect x="22.4722" y="28.984" width="24.18" height="15.7031" fill="url(#paint7_linear_2217_11197)"/>
<g filter="url(#filter3_i_2217_11197)">
<path d="M32.2923 17.8505L24.9557 21.8379C23.4251 22.6698 22.4722 24.2723 22.4722 26.0144L22.4722 35.2916C22.4722 37.0337 23.4251 38.6362 24.9557 39.4681L32.2923 43.4555C33.7078 44.2248 35.4166 44.2248 36.8321 43.4555L44.1686 39.4681C45.6992 38.6362 46.6522 37.0337 46.6522 35.2916L46.6522 26.0144C46.6522 24.2723 45.6992 22.6698 44.1686 21.8379L36.8321 17.8505C35.4166 17.0812 33.7077 17.0812 32.2923 17.8505Z" fill="#AFF5F1" fill-opacity="0.03"/>
</g>
</g>
</g>
</g>
</g>
<g filter="url(#filter4_d_2217_11197)">
<path fill-rule="evenodd" clip-rule="evenodd" d="M34.5007 32.6117C37.5139 32.6117 39.9567 30.169 39.9567 27.1557C39.9567 24.1424 37.5139 21.6997 34.5007 21.6997C31.4874 21.6997 29.0447 24.1424 29.0447 27.1557C29.0447 30.169 31.4874 32.6117 34.5007 32.6117ZM33.6573 32.2953C35.9427 32.2953 37.7954 30.4426 37.7954 28.1572C37.7954 25.8717 35.9427 24.019 33.6573 24.019C31.3718 24.019 29.5191 25.8717 29.5191 28.1572C29.5191 30.4426 31.3718 32.2953 33.6573 32.2953Z" fill="url(#paint8_linear_2217_11197)"/>
</g>
</g>
<defs>
<filter id="filter0_dd_2217_11197" x="0.943069" y="-3.51122" width="67.1139" height="77.2096" filterUnits="userSpaceOnUse" color-interpolation-filters="sRGB">
<feFlood flood-opacity="0" result="BackgroundImageFix"/>
<feColorMatrix in="SourceAlpha" type="matrix" values="0 0 0 0 0 0 0 0 0 0 0 0 0 0 0 0 0 0 127 0" result="hardAlpha"/>
<feOffset/>
<feGaussianBlur stdDeviation="3.00949"/>
<feColorMatrix type="matrix" values="0 0 0 0 0.558594 0 0 0 0 0.869297 0 0 0 0 0.9375 0 0 0 0.04 0"/>
<feBlend mode="normal" in2="BackgroundImageFix" result="effect1_dropShadow_2217_11197"/>
<feColorMatrix in="SourceAlpha" type="matrix" values="0 0 0 0 0 0 0 0 0 0 0 0 0 0 0 0 0 0 127 0" result="hardAlpha"/>
<feOffset dy="1.2038"/>
<feGaussianBlur stdDeviation="9.02847"/>
<feColorMatrix type="matrix" values="0 0 0 0 0.670833 0 0 0 0 1 0 0 0 0 0.94075 0 0 0 0.33 0"/>
<feBlend mode="normal" in2="effect1_dropShadow_2217_11197" result="effect2_dropShadow_2217_11197"/>
<feBlend mode="normal" in="SourceGraphic" in2="effect2_dropShadow_2217_11197" result="shape"/>
</filter>
<filter id="filter1_d_2217_11197" x="17.2296" y="13.3419" width="34.5408" height="38.7652" filterUnits="userSpaceOnUse" color-interpolation-filters="sRGB">
<feFlood flood-opacity="0" result="BackgroundImageFix"/>
<feColorMatrix in="SourceAlpha" type="matrix" values="0 0 0 0 0 0 0 0 0 0 0 0 0 0 0 0 0 0 127 0" result="hardAlpha"/>
<feOffset dy="2.36052"/>
<feGaussianBlur stdDeviation="0.885195"/>
<feColorMatrix type="matrix" values="0 0 0 0 0.208958 0 0 0 0 0.389892 0 0 0 0 0.491667 0 0 0 0.54 0"/>
<feBlend mode="normal" in2="BackgroundImageFix" result="effect1_dropShadow_2217_11197"/>
<feBlend mode="normal" in="SourceGraphic" in2="effect1_dropShadow_2217_11197" result="shape"/>
</filter>
<filter id="filter2_f_2217_11197" x="21.1199" y="15.8309" width="26.7229" height="29.5929" filterUnits="userSpaceOnUse" color-interpolation-filters="sRGB">
<feFlood flood-opacity="0" result="BackgroundImageFix"/>
<feBlend mode="normal" in="SourceGraphic" in2="BackgroundImageFix" result="shape"/>
<feGaussianBlur stdDeviation="0.0442598" result="effect1_foregroundBlur_2217_11197"/>
</filter>
<filter id="filter3_i_2217_11197" x="22.4722" y="17.2736" width="24.1801" height="26.7589" filterUnits="userSpaceOnUse" color-interpolation-filters="sRGB">
<feFlood flood-opacity="0" result="BackgroundImageFix"/>
<feBlend mode="normal" in="SourceGraphic" in2="BackgroundImageFix" result="shape"/>
<feColorMatrix in="SourceAlpha" type="matrix" values="0 0 0 0 0 0 0 0 0 0 0 0 0 0 0 0 0 0 127 0" result="hardAlpha"/>
<feOffset/>
<feGaussianBlur stdDeviation="1.98406"/>
<feComposite in2="hardAlpha" operator="arithmetic" k2="-1" k3="1"/>
<feColorMatrix type="matrix" values="0 0 0 0 0.37849 0 0 0 0 0.586923 0 0 0 0 0.704167 0 0 0 1 0"/>
<feBlend mode="normal" in2="shape" result="effect1_innerShadow_2217_11197"/>
</filter>
<filter id="filter4_d_2217_11197" x="27.0172" y="20.6326" width="15.1803" height="15.1803" filterUnits="userSpaceOnUse" color-interpolation-filters="sRGB">
<feFlood flood-opacity="0" result="BackgroundImageFix"/>
<feColorMatrix in="SourceAlpha" type="matrix" values="0 0 0 0 0 0 0 0 0 0 0 0 0 0 0 0 0 0 127 0" result="hardAlpha"/>
<feOffset dx="0.106708" dy="1.06708"/>
<feGaussianBlur stdDeviation="1.06708"/>
<feColorMatrix type="matrix" values="0 0 0 0 0.564618 0 0 0 0 0.775175 0 0 0 0 0.841667 0 0 0 0.65 0"/>
<feBlend mode="normal" in2="BackgroundImageFix" result="effect1_dropShadow_2217_11197"/>
<feBlend mode="normal" in="SourceGraphic" in2="effect1_dropShadow_2217_11197" result="shape"/>
</filter>
<linearGradient id="paint0_linear_2217_11197" x1="27.99" y1="16.9877" x2="41.94" y2="44.7017" gradientUnits="userSpaceOnUse">
<stop stop-color="#D8ECF1"/>
<stop offset="1" stop-color="#82B3BF"/>
</linearGradient>
<linearGradient id="paint1_linear_2217_11197" x1="27.866" y1="19.2814" x2="39.894" y2="41.4774" gradientUnits="userSpaceOnUse">
<stop stop-color="#A1C9D3"/>
<stop offset="1" stop-color="#D0ECF2"/>
</linearGradient>
<linearGradient id="paint2_linear_2217_11197" x1="29.168" y1="18.4754" x2="42.126" y2="41.7874" gradientUnits="userSpaceOnUse">
<stop stop-color="#D0ECF2"/>
<stop offset="1" stop-color="#E6F8FC"/>
</linearGradient>
<radialGradient id="paint3_radial_2217_11197" cx="0" cy="0" r="1" gradientUnits="userSpaceOnUse" gradientTransform="translate(34.5622 30.653) rotate(90) scale(14.0362 12.09)">
<stop stop-color="#D0EBF2"/>
<stop offset="1" stop-color="#8DD3E2"/>
</radialGradient>
<linearGradient id="paint4_linear_2217_11197" x1="34.562" y1="16.0602" x2="34.562" y2="45.2429" gradientUnits="userSpaceOnUse">
<stop stop-color="white"/>
<stop offset="1" stop-color="#F2EDED" stop-opacity="0"/>
</linearGradient>
<linearGradient id="paint5_linear_2217_11197" x1="19.6353" y1="18.7004" x2="34.2266" y2="43.9734" gradientUnits="userSpaceOnUse">
<stop stop-color="white"/>
<stop offset="1" stop-color="#F2EDED" stop-opacity="0"/>
</linearGradient>
<linearGradient id="paint6_linear_2217_11197" x1="48.4016" y1="18.6998" x2="33.8102" y2="43.9728" gradientUnits="userSpaceOnUse">
<stop stop-color="white"/>
<stop offset="1" stop-color="#F2EDED" stop-opacity="0"/>
</linearGradient>
<linearGradient id="paint7_linear_2217_11197" x1="34.5622" y1="35.7933" x2="34.4892" y2="43.7142" gradientUnits="userSpaceOnUse">
<stop stop-color="#EEFFFF" stop-opacity="0"/>
<stop offset="1" stop-color="#B5EBFB"/>
</linearGradient>
<linearGradient id="paint8_linear_2217_11197" x1="33.6364" y1="18.9644" x2="41.1151" y2="21.2373" gradientUnits="userSpaceOnUse">
<stop offset="0.168737" stop-color="#E3FAFF"/>
<stop offset="0.360439" stop-color="#DDF7FF"/>
<stop offset="0.451944" stop-color="#CBEDF8"/>
<stop offset="0.627859" stop-color="#C8F1FA"/>
<stop offset="0.80404" stop-color="#D8F5FC"/>
</linearGradient>
<clipPath id="clip0_2217_11197">
<rect width="68" height="68" fill="white"/>
</clipPath>
</defs>
</svg>
