<svg width="68" height="68" viewBox="0 0 68 68" fill="none" xmlns="http://www.w3.org/2000/svg">
<g clip-path="url(#clip0_2217_10983)">
<g filter="url(#filter0_dd_2217_10983)">
<path d="M21.8961 25.1255L22.8678 20.1484L8.70565 17.3836C8.09837 20.4943 9.93311 22.79 11.7199 23.1388L21.8961 25.1255Z" fill="url(#paint0_linear_2217_10983)"/>
<path d="M21.7521 25.2222L22.7237 20.245L8.9232 17.5508C8.31591 20.6615 10.1507 22.9573 11.9374 23.3061L21.7521 25.2222Z" stroke="url(#paint1_linear_2217_10983)" stroke-width="0.676914"/>
<path d="M21.9897 29.7736L22.9614 24.7964L11.2099 22.5022C10.6026 25.6129 12.4373 27.9087 14.2241 28.2575L21.9897 29.7736Z" fill="url(#paint2_linear_2217_10983)"/>
<path d="M21.9897 29.7736L22.9614 24.7964L11.2099 22.5022C10.6026 25.6129 12.4373 27.9087 14.2241 28.2575L21.9897 29.7736Z" stroke="url(#paint3_linear_2217_10983)" stroke-width="0.676914"/>
<path d="M25.2737 35.0071L26.2453 30.03L14.4938 27.7358C13.8865 30.8465 15.7213 33.1422 17.508 33.491L25.2737 35.0071Z" fill="url(#paint4_linear_2217_10983)"/>
<path d="M25.2737 35.0071L26.2453 30.03L14.4938 27.7358C13.8865 30.8465 15.7213 33.1422 17.508 33.491L25.2737 35.0071Z" stroke="url(#paint5_linear_2217_10983)" stroke-width="0.676914"/>
<g filter="url(#filter1_d_2217_10983)">
<path d="M22.599 47.1656V36.5781H28.9234V51.1304L23.0614 47.9433C22.7764 47.7883 22.599 47.49 22.599 47.1656Z" fill="#ECD8BA"/>
<path d="M22.599 47.1656V36.5781H28.9234V51.1304L23.0614 47.9433C22.7764 47.7883 22.599 47.49 22.599 47.1656Z" stroke="url(#paint6_linear_2217_10983)" stroke-width="0.295065"/>
</g>
<path fill-rule="evenodd" clip-rule="evenodd" d="M23.2948 47.1567V42.1046H23.2126V47.2251L23.247 47.2308C23.3606 47.2498 23.4869 47.317 23.59 47.4152C23.693 47.5133 23.7693 47.6389 23.7882 47.7713L23.7913 47.7932L27.1154 49.3501V43.7903H27.0332V49.2208L23.8659 47.7374C23.8389 47.591 23.7539 47.4578 23.6467 47.3557C23.5438 47.2577 23.4173 47.1853 23.2948 47.1567Z" fill="url(#paint7_linear_2217_10983)"/>
<path fill-rule="evenodd" clip-rule="evenodd" d="M27.0287 48.9204C27.1173 48.7706 27.1224 48.5581 27.1155 48.4209L27.0335 48.425C27.0403 48.5616 27.0331 48.7517 26.958 48.8786C26.9217 48.9401 26.8702 48.9853 26.7961 49.0039C26.7207 49.0229 26.6165 49.0155 26.4732 48.9598L26.4434 49.0364C26.5959 49.0957 26.7184 49.1082 26.8161 49.0836C26.9152 49.0588 26.9833 48.9972 27.0287 48.9204Z" fill="#D4B195"/>
<g filter="url(#filter2_d_2217_10983)">
<path d="M46.4849 47.1656V36.5781H40.1605V51.1304L46.0225 47.9433C46.3075 47.7883 46.4849 47.49 46.4849 47.1656Z" fill="#ECD8BA"/>
<path d="M46.4849 47.1656V36.5781H40.1605V51.1304L46.0225 47.9433C46.3075 47.7883 46.4849 47.49 46.4849 47.1656Z" stroke="url(#paint8_linear_2217_10983)" stroke-width="0.295065"/>
</g>
<path fill-rule="evenodd" clip-rule="evenodd" d="M45.7889 47.1567V42.1046H45.8711V47.2251L45.8368 47.2308C45.7232 47.2498 45.5969 47.317 45.4937 47.4152C45.3907 47.5133 45.3144 47.6389 45.2955 47.7713L45.2924 47.7932L41.9684 49.3501V43.7903H42.0505V49.2208L45.2178 47.7374C45.2449 47.591 45.3298 47.4578 45.4371 47.3557C45.54 47.2577 45.6664 47.1853 45.7889 47.1567Z" fill="url(#paint9_linear_2217_10983)"/>
<path fill-rule="evenodd" clip-rule="evenodd" d="M42.0549 48.9204C41.9663 48.7706 41.9612 48.5581 41.9681 48.4209L42.0501 48.425C42.0433 48.5616 42.0506 48.7517 42.1256 48.8786C42.162 48.9401 42.2134 48.9853 42.2875 49.0039C42.3629 49.0229 42.4671 49.0155 42.6104 48.9598L42.6402 49.0364C42.4877 49.0957 42.3653 49.1082 42.2675 49.0836C42.1685 49.0588 42.1003 48.9972 42.0549 48.9204Z" fill="#D4B195"/>
<path d="M47.1034 25.2852L46.1317 20.308L60.2939 17.5432C60.9011 20.6539 59.0664 22.9497 57.2796 23.2985L47.1034 25.2852Z" fill="url(#paint10_linear_2217_10983)"/>
<path d="M47.2474 25.3823L46.2758 20.4052L60.0763 17.711C60.6836 20.8217 58.8489 23.1174 57.0621 23.4663L47.2474 25.3823Z" stroke="url(#paint11_linear_2217_10983)" stroke-width="0.676914"/>
<path d="M47.0103 29.9333L46.0386 24.9562L57.7901 22.662C58.3974 25.7727 56.5627 28.0685 54.7759 28.4173L47.0103 29.9333Z" fill="url(#paint12_linear_2217_10983)"/>
<path d="M47.0103 29.9333L46.0386 24.9562L57.7901 22.662C58.3974 25.7727 56.5627 28.0685 54.7759 28.4173L47.0103 29.9333Z" stroke="url(#paint13_linear_2217_10983)" stroke-width="0.676914"/>
<path d="M43.7263 35.1676L42.7547 30.1905L54.5062 27.8963C55.1135 31.007 53.2787 33.3027 51.492 33.6516L43.7263 35.1676Z" fill="url(#paint14_linear_2217_10983)"/>
<path d="M43.7263 35.1676L42.7547 30.1905L54.5062 27.8963C55.1135 31.007 53.2787 33.3027 51.492 33.6516L43.7263 35.1676Z" stroke="url(#paint15_linear_2217_10983)" stroke-width="0.676914"/>
<g filter="url(#filter3_d_2217_10983)">
<path d="M27.7573 35.9644H41.2658V53.1183L34.8126 56.3987C34.5695 56.5223 34.282 56.5218 34.0393 56.3974L27.7573 53.1773V35.9644Z" fill="url(#paint16_linear_2217_10983)"/>
<path d="M27.7573 35.9644H41.2658V53.1183L34.8126 56.3987C34.5695 56.5223 34.282 56.5218 34.0393 56.3974L27.7573 53.1773V35.9644Z" stroke="url(#paint17_linear_2217_10983)" stroke-width="0.59013"/>
</g>
<path fill-rule="evenodd" clip-rule="evenodd" d="M36.4764 55.4301L34.8124 56.276C34.5693 56.3995 34.2818 56.399 34.0392 56.2747L32.301 55.3837V42.8412H36.4764V55.4301Z" fill="url(#paint18_linear_2217_10983)"/>
<path fill-rule="evenodd" clip-rule="evenodd" d="M28.4939 45.1744H28.6896V52.8521L34.4628 55.8364L40.333 52.8518V45.1744H40.5287V52.9214L34.462 55.9812L28.4939 52.9211V45.1744Z" fill="url(#paint19_linear_2217_10983)"/>
<path fill-rule="evenodd" clip-rule="evenodd" d="M34.5031 53.1565V55.3845H34.3964V53.1565H34.5031Z" fill="url(#paint20_linear_2217_10983)"/>
<path fill-rule="evenodd" clip-rule="evenodd" d="M34.1297 54.5937C33.9172 54.8387 33.6583 54.8933 33.4801 54.8636L33.4977 54.7583C33.6397 54.7819 33.8612 54.7404 34.049 54.5238C34.2376 54.3063 34.3962 53.9072 34.3962 53.2097H34.503C34.503 53.9213 34.3414 54.3495 34.1297 54.5937Z" fill="url(#paint21_linear_2217_10983)"/>
<path fill-rule="evenodd" clip-rule="evenodd" d="M34.7696 54.5937C34.9821 54.8387 35.241 54.8933 35.4192 54.8636L35.4016 54.7583C35.2596 54.7819 35.0381 54.7404 34.8503 54.5238C34.6617 54.3063 34.5031 53.9072 34.5031 53.2097H34.3963C34.3963 53.9213 34.5579 54.3495 34.7696 54.5937Z" fill="url(#paint22_linear_2217_10983)"/>
<path fill-rule="evenodd" clip-rule="evenodd" d="M34.4271 55.4334L33.2218 54.7581L33.4887 54.7581L34.4495 55.3262L35.4101 54.7533H35.6457L34.4715 55.4335C34.4574 55.4399 34.4412 55.4399 34.4271 55.4334Z" fill="url(#paint23_linear_2217_10983)"/>
<g filter="url(#filter4_d_2217_10983)">
<path d="M32.1145 14.3039L21.7801 19.9257C20.1659 20.8039 19.161 22.4944 19.161 24.3321L19.161 37.3431C19.161 39.1808 20.1659 40.8713 21.7801 41.7494L32.1145 47.3713C33.6091 48.1843 35.4139 48.1843 36.9085 47.3713L47.2429 41.7494C48.8572 40.8713 49.862 39.1808 49.862 37.3431L49.862 24.3321C49.862 22.4944 48.8572 20.8039 47.2429 19.9257L36.9085 14.3039C35.4139 13.4909 33.6091 13.4909 32.1145 14.3039Z" fill="url(#paint24_linear_2217_10983)"/>
<path d="M32.105 17.0006L24.1034 21.3534C22.4952 22.2282 21.4941 23.9124 21.4941 25.7431L21.4941 35.8698C21.4941 37.7005 22.4952 39.3847 24.1034 40.2595L32.105 44.6123C33.594 45.4223 35.392 45.4223 36.8809 44.6123L44.8825 40.2595C46.4907 39.3847 47.4918 37.7005 47.4918 35.8698L47.4918 25.7431C47.4918 23.9124 46.4907 22.2282 44.8825 21.3534L36.8809 17.0006C35.392 16.1906 33.594 16.1906 32.105 17.0006Z" fill="url(#paint25_linear_2217_10983)"/>
<g filter="url(#filter5_f_2217_10983)">
<path d="M32.105 17.0006L24.1034 21.3534C22.4952 22.2282 21.4941 23.9124 21.4941 25.7431L21.4941 35.8698C21.4941 37.7005 22.4952 39.3847 24.1034 40.2595L32.105 44.6123C33.594 45.4223 35.392 45.4223 36.8809 44.6123L44.8825 40.2595C46.4907 39.3847 47.4918 37.7005 47.4918 35.8698L47.4918 25.7431C47.4918 23.9124 46.4907 22.2282 44.8825 21.3534L36.8809 17.0006C35.392 16.1906 33.594 16.1906 32.105 17.0006Z" stroke="url(#paint26_linear_2217_10983)" stroke-width="0.295065"/>
</g>
<g opacity="0.5">
<mask id="mask0_2217_10983" style="mask-type:alpha" maskUnits="userSpaceOnUse" x="22" y="17" width="25" height="28">
<path d="M32.3026 18.1636L25.0827 22.0877C23.5521 22.9196 22.5991 24.5221 22.5991 26.2641L22.5991 35.3974C22.5991 37.1394 23.5521 38.7419 25.0827 39.5738L32.3026 43.4979C33.7181 44.2672 35.4269 44.2672 36.8424 43.4979L44.0624 39.5738C45.593 38.7419 46.5459 37.1394 46.5459 35.3974L46.5459 26.2641C46.5459 24.5221 45.593 22.9196 44.0624 22.0877L36.8424 18.1636C35.4269 17.3943 33.7181 17.3943 32.3026 18.1636Z" fill="#A6D3DE"/>
</mask>
<g mask="url(#mask0_2217_10983)">
<path d="M32.3026 18.1636L25.0827 22.0877C23.5521 22.9196 22.5991 24.5221 22.5991 26.2641L22.5991 35.3974C22.5991 37.1394 23.5521 38.7419 25.0827 39.5738L32.3026 43.4979C33.7181 44.2672 35.4269 44.2672 36.8424 43.4979L44.0624 39.5738C45.593 38.7419 46.5459 37.1394 46.5459 35.3974L46.5459 26.2641C46.5459 24.5221 45.593 22.9196 44.0624 22.0877L36.8424 18.1636C35.4269 17.3943 33.7181 17.3943 32.3026 18.1636Z" fill="url(#paint27_radial_2217_10983)"/>
<path opacity="0.5" d="M32.5712 45.2808L32.0956 16.3795H37.0501L36.5745 45.2808H32.5712Z" fill="url(#paint28_linear_2217_10983)"/>
<path opacity="0.5" d="M32.5078 45.0244L17.6453 20.2329L21.936 17.7557L35.9747 43.0227L32.5078 45.0244Z" fill="url(#paint29_linear_2217_10983)"/>
<path opacity="0.5" d="M32.0949 43.0226L46.1337 17.7555L50.4244 20.2327L35.5618 45.0242L32.0949 43.0226Z" fill="url(#paint30_linear_2217_10983)"/>
<rect x="22.599" y="29.1783" width="23.9468" height="15.5517" fill="url(#paint31_linear_2217_10983)"/>
<g filter="url(#filter6_i_2217_10983)">
<path d="M32.3026 18.1636L25.0827 22.0877C23.5521 22.9196 22.5991 24.5221 22.5991 26.2641L22.5991 35.3974C22.5991 37.1394 23.5521 38.7419 25.0827 39.5738L32.3026 43.4979C33.7181 44.2672 35.4269 44.2672 36.8424 43.4979L44.0624 39.5738C45.593 38.7419 46.5459 37.1394 46.5459 35.3974L46.5459 26.2641C46.5459 24.5221 45.593 22.9196 44.0624 22.0877L36.8424 18.1636C35.4269 17.3943 33.7181 17.3943 32.3026 18.1636Z" fill="#6052B4" fill-opacity="0.01"/>
</g>
</g>
</g>
</g>
</g>
<g opacity="0.3" filter="url(#filter7_f_2217_10983)">
<ellipse cx="26.1082" cy="15.8907" rx="0.894835" ry="0.894835" fill="#FFEBC4"/>
</g>
<g filter="url(#filter8_f_2217_10983)">
<circle cx="22.3387" cy="48.316" r="0.298278" fill="#FFEBC4"/>
</g>
<g opacity="0.3" filter="url(#filter9_f_2217_10983)">
<circle cx="24.8066" cy="21.0522" r="0.298278" fill="#FFEBC4"/>
</g>
<g filter="url(#filter10_f_2217_10983)">
<circle cx="49.9545" cy="38.562" r="0.298278" fill="#FFEBC4"/>
</g>
<g filter="url(#filter11_f_2217_10983)">
<circle cx="13.986" cy="35.9293" r="0.994261" fill="#FFDDAA"/>
</g>
<g opacity="0.6" filter="url(#filter12_f_2217_10983)">
<circle cx="59.3829" cy="31.6556" r="0.795409" fill="#FFDDAA"/>
</g>
<g opacity="0.8" filter="url(#filter13_f_2217_10983)">
<circle cx="26.4788" cy="57.6265" r="0.795409" fill="#FFDDAA"/>
</g>
<g filter="url(#filter14_d_2217_10983)">
<path fill-rule="evenodd" clip-rule="evenodd" d="M34.4973 36.5007C37.353 36.5007 39.668 34.1857 39.668 31.3301C39.668 28.4744 37.353 26.1594 34.4973 26.1594C31.6416 26.1594 29.3267 28.4744 29.3267 31.3301C29.3267 34.1857 31.6416 36.5007 34.4973 36.5007ZM33.6977 36.201C35.8636 36.201 37.6194 34.4452 37.6194 32.2793C37.6194 30.1134 35.8636 28.3576 33.6977 28.3576C31.5318 28.3576 29.776 30.1134 29.776 32.2793C29.776 34.4452 31.5318 36.201 33.6977 36.201Z" fill="url(#paint32_linear_2217_10983)"/>
</g>
</g>
<defs>
<filter id="filter0_dd_2217_10983" x="-6.93332" y="0.100724" width="82.8662" height="73.8919" filterUnits="userSpaceOnUse" color-interpolation-filters="sRGB">
<feFlood flood-opacity="0" result="BackgroundImageFix"/>
<feColorMatrix in="SourceAlpha" type="matrix" values="0 0 0 0 0 0 0 0 0 0 0 0 0 0 0 0 0 0 127 0" result="hardAlpha"/>
<feOffset/>
<feGaussianBlur stdDeviation="4.51627"/>
<feColorMatrix type="matrix" values="0 0 0 0 0.991667 0 0 0 0 0.801597 0 0 0 0 0.516493 0 0 0 1 0"/>
<feBlend mode="normal" in2="BackgroundImageFix" result="effect1_dropShadow_2217_10983"/>
<feColorMatrix in="SourceAlpha" type="matrix" values="0 0 0 0 0 0 0 0 0 0 0 0 0 0 0 0 0 0 127 0" result="hardAlpha"/>
<feOffset dy="1.80651"/>
<feGaussianBlur stdDeviation="7.7"/>
<feColorMatrix type="matrix" values="0 0 0 0 1 0 0 0 0 0.722667 0 0 0 0 0.466667 0 0 0 0.6 0"/>
<feBlend mode="normal" in2="effect1_dropShadow_2217_10983" result="effect2_dropShadow_2217_10983"/>
<feBlend mode="normal" in="SourceGraphic" in2="effect2_dropShadow_2217_10983" result="shape"/>
</filter>
<filter id="filter1_d_2217_10983" x="20.0909" y="34.07" width="11.3405" height="19.669" filterUnits="userSpaceOnUse" color-interpolation-filters="sRGB">
<feFlood flood-opacity="0" result="BackgroundImageFix"/>
<feColorMatrix in="SourceAlpha" type="matrix" values="0 0 0 0 0 0 0 0 0 0 0 0 0 0 0 0 0 0 127 0" result="hardAlpha"/>
<feOffset/>
<feGaussianBlur stdDeviation="1.18026"/>
<feColorMatrix type="matrix" values="0 0 0 0 0.7 0 0 0 0 0.561568 0 0 0 0 0.32375 0 0 0 0.78 0"/>
<feBlend mode="normal" in2="BackgroundImageFix" result="effect1_dropShadow_2217_10983"/>
<feBlend mode="normal" in="SourceGraphic" in2="effect1_dropShadow_2217_10983" result="shape"/>
</filter>
<filter id="filter2_d_2217_10983" x="37.6524" y="34.07" width="11.3405" height="19.669" filterUnits="userSpaceOnUse" color-interpolation-filters="sRGB">
<feFlood flood-opacity="0" result="BackgroundImageFix"/>
<feColorMatrix in="SourceAlpha" type="matrix" values="0 0 0 0 0 0 0 0 0 0 0 0 0 0 0 0 0 0 127 0" result="hardAlpha"/>
<feOffset/>
<feGaussianBlur stdDeviation="1.18026"/>
<feColorMatrix type="matrix" values="0 0 0 0 0.7 0 0 0 0 0.561568 0 0 0 0 0.32375 0 0 0 0.78 0"/>
<feBlend mode="normal" in2="BackgroundImageFix" result="effect1_dropShadow_2217_10983"/>
<feBlend mode="normal" in="SourceGraphic" in2="effect1_dropShadow_2217_10983" result="shape"/>
</filter>
<filter id="filter3_d_2217_10983" x="25.1018" y="33.3088" width="18.8196" height="25.8379" filterUnits="userSpaceOnUse" color-interpolation-filters="sRGB">
<feFlood flood-opacity="0" result="BackgroundImageFix"/>
<feColorMatrix in="SourceAlpha" type="matrix" values="0 0 0 0 0 0 0 0 0 0 0 0 0 0 0 0 0 0 127 0" result="hardAlpha"/>
<feOffset/>
<feGaussianBlur stdDeviation="1.18026"/>
<feColorMatrix type="matrix" values="0 0 0 0 0.7 0 0 0 0 0.561568 0 0 0 0 0.32375 0 0 0 0.78 0"/>
<feBlend mode="normal" in2="BackgroundImageFix" result="effect1_dropShadow_2217_10983"/>
<feBlend mode="normal" in="SourceGraphic" in2="effect1_dropShadow_2217_10983" result="shape"/>
</filter>
<filter id="filter4_d_2217_10983" x="17.3906" y="13.6942" width="34.2418" height="38.4178" filterUnits="userSpaceOnUse" color-interpolation-filters="sRGB">
<feFlood flood-opacity="0" result="BackgroundImageFix"/>
<feColorMatrix in="SourceAlpha" type="matrix" values="0 0 0 0 0 0 0 0 0 0 0 0 0 0 0 0 0 0 127 0" result="hardAlpha"/>
<feOffset dy="2.36052"/>
<feGaussianBlur stdDeviation="0.885195"/>
<feColorMatrix type="matrix" values="0 0 0 0 0.4375 0 0 0 0 0.287401 0 0 0 0 0.111198 0 0 0 0.6 0"/>
<feBlend mode="normal" in2="BackgroundImageFix" result="effect1_dropShadow_2217_10983"/>
<feBlend mode="normal" in="SourceGraphic" in2="effect1_dropShadow_2217_10983" result="shape"/>
</filter>
<filter id="filter5_f_2217_10983" x="21.258" y="16.1571" width="26.4698" height="29.2987" filterUnits="userSpaceOnUse" color-interpolation-filters="sRGB">
<feFlood flood-opacity="0" result="BackgroundImageFix"/>
<feBlend mode="normal" in="SourceGraphic" in2="BackgroundImageFix" result="shape"/>
<feGaussianBlur stdDeviation="0.0442598" result="effect1_foregroundBlur_2217_10983"/>
</filter>
<filter id="filter6_i_2217_10983" x="22.5991" y="17.5867" width="23.9468" height="26.4882" filterUnits="userSpaceOnUse" color-interpolation-filters="sRGB">
<feFlood flood-opacity="0" result="BackgroundImageFix"/>
<feBlend mode="normal" in="SourceGraphic" in2="BackgroundImageFix" result="shape"/>
<feColorMatrix in="SourceAlpha" type="matrix" values="0 0 0 0 0 0 0 0 0 0 0 0 0 0 0 0 0 0 127 0" result="hardAlpha"/>
<feOffset/>
<feGaussianBlur stdDeviation="1.98406"/>
<feComposite in2="hardAlpha" operator="arithmetic" k2="-1" k3="1"/>
<feColorMatrix type="matrix" values="0 0 0 0 0.458333 0 0 0 0 0.256743 0 0 0 0 0.0706597 0 0 0 1 0"/>
<feBlend mode="normal" in2="shape" result="effect1_innerShadow_2217_10983"/>
</filter>
<filter id="filter7_f_2217_10983" x="19.2219" y="9.00433" width="13.7727" height="13.7727" filterUnits="userSpaceOnUse" color-interpolation-filters="sRGB">
<feFlood flood-opacity="0" result="BackgroundImageFix"/>
<feBlend mode="normal" in="SourceGraphic" in2="BackgroundImageFix" result="shape"/>
<feGaussianBlur stdDeviation="2.99576" result="effect1_foregroundBlur_2217_10983"/>
</filter>
<filter id="filter8_f_2217_10983" x="21.5411" y="47.5184" width="1.59514" height="1.59514" filterUnits="userSpaceOnUse" color-interpolation-filters="sRGB">
<feFlood flood-opacity="0" result="BackgroundImageFix"/>
<feBlend mode="normal" in="SourceGraphic" in2="BackgroundImageFix" result="shape"/>
<feGaussianBlur stdDeviation="0.249647" result="effect1_foregroundBlur_2217_10983"/>
</filter>
<filter id="filter9_f_2217_10983" x="22.1478" y="18.3934" width="5.3176" height="5.3176" filterUnits="userSpaceOnUse" color-interpolation-filters="sRGB">
<feFlood flood-opacity="0" result="BackgroundImageFix"/>
<feBlend mode="normal" in="SourceGraphic" in2="BackgroundImageFix" result="shape"/>
<feGaussianBlur stdDeviation="1.18026" result="effect1_foregroundBlur_2217_10983"/>
</filter>
<filter id="filter10_f_2217_10983" x="47.8859" y="36.4933" width="4.13734" height="4.13734" filterUnits="userSpaceOnUse" color-interpolation-filters="sRGB">
<feFlood flood-opacity="0" result="BackgroundImageFix"/>
<feBlend mode="normal" in="SourceGraphic" in2="BackgroundImageFix" result="shape"/>
<feGaussianBlur stdDeviation="0.885195" result="effect1_foregroundBlur_2217_10983"/>
</filter>
<filter id="filter11_f_2217_10983" x="7.0904" y="29.0338" width="13.7911" height="13.7911" filterUnits="userSpaceOnUse" color-interpolation-filters="sRGB">
<feFlood flood-opacity="0" result="BackgroundImageFix"/>
<feBlend mode="normal" in="SourceGraphic" in2="BackgroundImageFix" result="shape"/>
<feGaussianBlur stdDeviation="2.95065" result="effect1_foregroundBlur_2217_10983"/>
</filter>
<filter id="filter12_f_2217_10983" x="53.5946" y="25.8673" width="11.5767" height="11.5767" filterUnits="userSpaceOnUse" color-interpolation-filters="sRGB">
<feFlood flood-opacity="0" result="BackgroundImageFix"/>
<feBlend mode="normal" in="SourceGraphic" in2="BackgroundImageFix" result="shape"/>
<feGaussianBlur stdDeviation="2.49647" result="effect1_foregroundBlur_2217_10983"/>
</filter>
<filter id="filter13_f_2217_10983" x="20.6904" y="51.8381" width="11.5767" height="11.5767" filterUnits="userSpaceOnUse" color-interpolation-filters="sRGB">
<feFlood flood-opacity="0" result="BackgroundImageFix"/>
<feBlend mode="normal" in="SourceGraphic" in2="BackgroundImageFix" result="shape"/>
<feGaussianBlur stdDeviation="2.49647" result="effect1_foregroundBlur_2217_10983"/>
</filter>
<filter id="filter14_d_2217_10983" x="27.2992" y="25.0923" width="14.6096" height="14.6096" filterUnits="userSpaceOnUse" color-interpolation-filters="sRGB">
<feFlood flood-opacity="0" result="BackgroundImageFix"/>
<feColorMatrix in="SourceAlpha" type="matrix" values="0 0 0 0 0 0 0 0 0 0 0 0 0 0 0 0 0 0 127 0" result="hardAlpha"/>
<feOffset dx="0.106708" dy="1.06708"/>
<feGaussianBlur stdDeviation="1.06708"/>
<feColorMatrix type="matrix" values="0 0 0 0 0.795833 0 0 0 0 0.519745 0 0 0 0 0.195642 0 0 0 0.42 0"/>
<feBlend mode="normal" in2="BackgroundImageFix" result="effect1_dropShadow_2217_10983"/>
<feBlend mode="normal" in="SourceGraphic" in2="effect1_dropShadow_2217_10983" result="shape"/>
</filter>
<linearGradient id="paint0_linear_2217_10983" x1="14.9232" y1="23.7642" x2="11.5297" y2="18.7243" gradientUnits="userSpaceOnUse">
<stop stop-color="#D2A86B"/>
<stop offset="0.875" stop-color="#FFF5DE"/>
</linearGradient>
<linearGradient id="paint1_linear_2217_10983" x1="9.61446" y1="17.6858" x2="12.6522" y2="23.4456" gradientUnits="userSpaceOnUse">
<stop stop-color="#FFF5DE"/>
<stop offset="0.378992" stop-color="#F5E3C4"/>
<stop offset="0.480868" stop-color="#E6CA9E"/>
<stop offset="0.729174" stop-color="#D2A86B"/>
</linearGradient>
<linearGradient id="paint2_linear_2217_10983" x1="17.4274" y1="28.8829" x2="14.0339" y2="23.8429" gradientUnits="userSpaceOnUse">
<stop stop-color="#E0C08E"/>
<stop offset="0.875" stop-color="#FFF5DE"/>
</linearGradient>
<linearGradient id="paint3_linear_2217_10983" x1="11.9011" y1="22.6372" x2="18.7311" y2="30.7454" gradientUnits="userSpaceOnUse">
<stop stop-color="#FFF5DE"/>
<stop offset="0.378992" stop-color="#FFF5DE"/>
<stop offset="0.480868" stop-color="#EAD2A9"/>
<stop offset="0.729174" stop-color="#D2A86B"/>
</linearGradient>
<linearGradient id="paint4_linear_2217_10983" x1="20.7113" y1="34.1164" x2="17.3178" y2="29.0765" gradientUnits="userSpaceOnUse">
<stop stop-color="#E0C08E"/>
<stop offset="0.875" stop-color="#FFF5DE"/>
</linearGradient>
<linearGradient id="paint5_linear_2217_10983" x1="15.1851" y1="27.8707" x2="22.0151" y2="35.979" gradientUnits="userSpaceOnUse">
<stop stop-color="#FFF5DE"/>
<stop offset="0.378992" stop-color="#FFF5DE"/>
<stop offset="0.480868" stop-color="#EAD2A9"/>
<stop offset="0.729174" stop-color="#D2A86B"/>
</linearGradient>
<linearGradient id="paint6_linear_2217_10983" x1="22.599" y1="46.4962" x2="29.0921" y2="47.9633" gradientUnits="userSpaceOnUse">
<stop stop-color="#8D664F"/>
<stop offset="0.208702" stop-color="#C49F7D"/>
<stop offset="0.648432" stop-color="#FFF1DC"/>
<stop offset="0.827985" stop-color="#B38368"/>
<stop offset="0.971703" stop-color="#8C5F4C"/>
</linearGradient>
<linearGradient id="paint7_linear_2217_10983" x1="23.3968" y1="46.28" x2="25.7455" y2="45.5798" gradientUnits="userSpaceOnUse">
<stop stop-color="#C7A383"/>
<stop offset="0.309893" stop-color="#D5B198"/>
<stop offset="0.523799" stop-color="#CBA68C"/>
<stop offset="0.77229" stop-color="#BB9478"/>
<stop offset="1" stop-color="#D7B49B"/>
</linearGradient>
<linearGradient id="paint8_linear_2217_10983" x1="46.4849" y1="46.4962" x2="39.9918" y2="47.9633" gradientUnits="userSpaceOnUse">
<stop stop-color="#8D664F"/>
<stop offset="0.208702" stop-color="#C49F7D"/>
<stop offset="0.648432" stop-color="#FFF1DC"/>
<stop offset="0.827985" stop-color="#B38368"/>
<stop offset="0.971703" stop-color="#8C5F4C"/>
</linearGradient>
<linearGradient id="paint9_linear_2217_10983" x1="45.6869" y1="46.28" x2="43.3382" y2="45.5798" gradientUnits="userSpaceOnUse">
<stop stop-color="#C7A383"/>
<stop offset="0.309893" stop-color="#D5B198"/>
<stop offset="0.523799" stop-color="#CBA68C"/>
<stop offset="0.77229" stop-color="#BB9478"/>
<stop offset="1" stop-color="#D7B49B"/>
</linearGradient>
<linearGradient id="paint10_linear_2217_10983" x1="54.0763" y1="23.9239" x2="57.4699" y2="18.8839" gradientUnits="userSpaceOnUse">
<stop stop-color="#D2A86B"/>
<stop offset="0.875" stop-color="#FFF5DE"/>
</linearGradient>
<linearGradient id="paint11_linear_2217_10983" x1="59.385" y1="17.8459" x2="56.3474" y2="23.6058" gradientUnits="userSpaceOnUse">
<stop stop-color="#FFF5DE"/>
<stop offset="0.378992" stop-color="#F5E3C4"/>
<stop offset="0.480868" stop-color="#E6CA9E"/>
<stop offset="0.729174" stop-color="#D2A86B"/>
</linearGradient>
<linearGradient id="paint12_linear_2217_10983" x1="51.5726" y1="29.0427" x2="54.9661" y2="24.0027" gradientUnits="userSpaceOnUse">
<stop stop-color="#E0C08E"/>
<stop offset="0.875" stop-color="#FFF5DE"/>
</linearGradient>
<linearGradient id="paint13_linear_2217_10983" x1="57.0989" y1="22.797" x2="50.2689" y2="30.9052" gradientUnits="userSpaceOnUse">
<stop stop-color="#FFF5DE"/>
<stop offset="0.378992" stop-color="#FFF5DE"/>
<stop offset="0.480868" stop-color="#EAD2A9"/>
<stop offset="0.729174" stop-color="#D2A86B"/>
</linearGradient>
<linearGradient id="paint14_linear_2217_10983" x1="48.2887" y1="34.2769" x2="51.6822" y2="29.237" gradientUnits="userSpaceOnUse">
<stop stop-color="#E0C08E"/>
<stop offset="0.875" stop-color="#FFF5DE"/>
</linearGradient>
<linearGradient id="paint15_linear_2217_10983" x1="53.8149" y1="28.0312" x2="46.9849" y2="36.1395" gradientUnits="userSpaceOnUse">
<stop stop-color="#FFF5DE"/>
<stop offset="0.378992" stop-color="#FFF5DE"/>
<stop offset="0.480868" stop-color="#EAD2A9"/>
<stop offset="0.729174" stop-color="#D2A86B"/>
</linearGradient>
<linearGradient id="paint16_linear_2217_10983" x1="34.5115" y1="45.0519" x2="34.5115" y2="56.5954" gradientUnits="userSpaceOnUse">
<stop stop-color="#B58D70"/>
<stop offset="0.2286" stop-color="#B58D70"/>
<stop offset="0.47675" stop-color="#D8B59B"/>
<stop offset="0.88344" stop-color="#B58D70"/>
<stop offset="1" stop-color="#B58D70"/>
</linearGradient>
<linearGradient id="paint17_linear_2217_10983" x1="27.7573" y1="50.0254" x2="40.8204" y2="54.4721" gradientUnits="userSpaceOnUse">
<stop stop-color="#8D664F"/>
<stop offset="0.208702" stop-color="#FFF5E6"/>
<stop offset="0.648432" stop-color="#ECD8BA"/>
<stop offset="0.780206" stop-color="#D0A568"/>
<stop offset="0.971703" stop-color="#8C5F4C"/>
</linearGradient>
<linearGradient id="paint18_linear_2217_10983" x1="34.3887" y1="42.8412" x2="34.3887" y2="56.3683" gradientUnits="userSpaceOnUse">
<stop stop-color="#DDBFA9"/>
<stop offset="0.22229" stop-color="#DDBFA9"/>
<stop offset="0.669825" stop-color="#EBD4C4"/>
<stop offset="0.898796" stop-color="#DDBFA9"/>
<stop offset="1" stop-color="#DDBFA9"/>
</linearGradient>
<linearGradient id="paint19_linear_2217_10983" x1="39.9608" y1="51.6019" x2="35.0329" y2="47.7836" gradientUnits="userSpaceOnUse">
<stop stop-color="#ECD8BA"/>
<stop offset="0.309893" stop-color="#EBD3AE"/>
<stop offset="0.523799" stop-color="#E2C69C"/>
<stop offset="0.77229" stop-color="#E3C8A0"/>
<stop offset="1" stop-color="#ECD8BA"/>
</linearGradient>
<linearGradient id="paint20_linear_2217_10983" x1="34.4497" y1="53.1565" x2="34.4497" y2="55.2381" gradientUnits="userSpaceOnUse">
<stop stop-color="#FAECD8"/>
<stop offset="0.491891" stop-color="#F9EBD7"/>
<stop offset="1" stop-color="#ECD5B4"/>
</linearGradient>
<linearGradient id="paint21_linear_2217_10983" x1="33.9915" y1="53.2097" x2="33.9915" y2="54.8709" gradientUnits="userSpaceOnUse">
<stop stop-color="#F9EBD7"/>
<stop offset="0.479167" stop-color="#FAEDD9"/>
<stop offset="1" stop-color="#F8E9D4"/>
</linearGradient>
<linearGradient id="paint22_linear_2217_10983" x1="34.9078" y1="53.2097" x2="34.9078" y2="54.8709" gradientUnits="userSpaceOnUse">
<stop stop-color="#FAEDD8"/>
<stop offset="0.479167" stop-color="#FAECD8"/>
<stop offset="1" stop-color="#EAD4B2"/>
</linearGradient>
<linearGradient id="paint23_linear_2217_10983" x1="34.3202" y1="54.9875" x2="32.9355" y2="55.1514" gradientUnits="userSpaceOnUse">
<stop stop-color="#E5CBA6"/>
<stop offset="0.309893" stop-color="#FAEDDA"/>
<stop offset="0.523799" stop-color="#F3E2C9"/>
<stop offset="0.613641" stop-color="#EFDCC0"/>
<stop offset="1" stop-color="#EFDCC0"/>
</linearGradient>
<linearGradient id="paint24_linear_2217_10983" x1="28.0643" y1="17.2981" x2="41.8798" y2="44.7449" gradientUnits="userSpaceOnUse">
<stop stop-color="#FFF5DE"/>
<stop offset="1" stop-color="#CFA365"/>
</linearGradient>
<linearGradient id="paint25_linear_2217_10983" x1="27.9414" y1="19.5699" x2="39.8533" y2="41.5518" gradientUnits="userSpaceOnUse">
<stop stop-color="#D2A86C"/>
<stop offset="1" stop-color="#F8E6C0"/>
</linearGradient>
<linearGradient id="paint26_linear_2217_10983" x1="29.2308" y1="18.7716" x2="42.0638" y2="41.8588" gradientUnits="userSpaceOnUse">
<stop stop-color="#FFF6E7"/>
<stop offset="1" stop-color="#FFF8EC"/>
</linearGradient>
<radialGradient id="paint27_radial_2217_10983" cx="0" cy="0" r="1" gradientUnits="userSpaceOnUse" gradientTransform="translate(34.5725 30.8308) rotate(90) scale(13.9008 11.9734)">
<stop stop-color="#FFE4BA"/>
<stop offset="1" stop-color="#DEA44D"/>
</radialGradient>
<linearGradient id="paint28_linear_2217_10983" x1="34.5728" y1="16.3795" x2="34.5728" y2="45.2808" gradientUnits="userSpaceOnUse">
<stop stop-color="white"/>
<stop offset="1" stop-color="#F2EDED" stop-opacity="0"/>
</linearGradient>
<linearGradient id="paint29_linear_2217_10983" x1="19.7906" y1="18.9943" x2="34.2413" y2="44.0235" gradientUnits="userSpaceOnUse">
<stop stop-color="white"/>
<stop offset="1" stop-color="#F2EDED" stop-opacity="0"/>
</linearGradient>
<linearGradient id="paint30_linear_2217_10983" x1="48.279" y1="18.9941" x2="33.8284" y2="44.0234" gradientUnits="userSpaceOnUse">
<stop stop-color="white"/>
<stop offset="1" stop-color="#F2EDED" stop-opacity="0"/>
</linearGradient>
<linearGradient id="paint31_linear_2217_10983" x1="34.5724" y1="35.922" x2="34.5002" y2="43.7664" gradientUnits="userSpaceOnUse">
<stop stop-color="white" stop-opacity="0"/>
<stop offset="1" stop-color="#FFF1E3"/>
</linearGradient>
<linearGradient id="paint32_linear_2217_10983" x1="33.6783" y1="23.5672" x2="40.7658" y2="25.7212" gradientUnits="userSpaceOnUse">
<stop offset="0.168737" stop-color="#FDF2D9"/>
<stop offset="0.304755" stop-color="#FFF7E3"/>
<stop offset="0.451944" stop-color="#FFFCF4"/>
<stop offset="0.581036" stop-color="#FFF1D9"/>
<stop offset="0.705947" stop-color="#F3E0BF"/>
<stop offset="0.940592" stop-color="#FFF5DE"/>
</linearGradient>
<clipPath id="clip0_2217_10983">
<rect width="68" height="68" fill="white"/>
</clipPath>
</defs>
</svg>
